<svg width="16" height="16" viewBox="0 0 16 16" fill="none" xmlns="http://www.w3.org/2000/svg">
<path fill-rule="evenodd" clip-rule="evenodd" d="M5.99822 9.52739L1.43766 2.35784C1.15535 1.91402 1.47403 1.33325 1.99987 1.33325H13.9949C14.5208 1.33325 14.8394 1.91402 14.5571 2.35784L9.99657 9.52739V12.6666C9.99657 12.9191 9.85396 13.1499 9.6282 13.2629L6.96263 14.5962C6.51955 14.8178 5.99822 14.4955 5.99822 13.9999V9.52739ZM3.21346 2.6665L7.22646 8.97525C7.2945 9.08222 7.33064 9.20638 7.33064 9.33317V12.9211L8.66343 12.2545V9.33317C8.66343 9.20638 8.69957 9.08222 8.76761 8.97525L12.7806 2.6665H3.21346Z" fill="black"/>
</svg>
