<svg width="1081" height="575" viewBox="0 0 1081 575" fill="none" xmlns="http://www.w3.org/2000/svg">
<rect width="1081" height="1" fill="black" fill-opacity="0.1"/>
<rect y="23" width="1081" height="1" fill="black" fill-opacity="0.1"/>
<rect y="71" width="1081" height="1" fill="black" fill-opacity="0.1"/>
<rect y="47" width="1081" height="1" fill="black" fill-opacity="0.1"/>
<rect y="95" width="1081" height="1" fill="black" fill-opacity="0.1"/>
<rect y="119" width="1081" height="1" fill="black" fill-opacity="0.1"/>
<rect y="143" width="1081" height="1" fill="black" fill-opacity="0.1"/>
<rect y="167" width="1081" height="1" fill="black" fill-opacity="0.1"/>
<rect y="191" width="1081" height="1" fill="black" fill-opacity="0.1"/>
<rect y="215" width="1081" height="1" fill="black" fill-opacity="0.1"/>
<rect y="239" width="1081" height="1" fill="black" fill-opacity="0.1"/>
<rect y="263" width="1081" height="1" fill="black" fill-opacity="0.1"/>
<rect y="287" width="1081" height="1" fill="black" fill-opacity="0.1"/>
<rect y="311" width="1081" height="1" fill="black" fill-opacity="0.1"/>
<rect y="335" width="1081" height="1" fill="black" fill-opacity="0.1"/>
<rect y="359" width="1081" height="1" fill="black" fill-opacity="0.1"/>
<rect y="383" width="1081" height="1" fill="black" fill-opacity="0.1"/>
<rect y="407" width="1081" height="1" fill="black" fill-opacity="0.1"/>
<rect y="431" width="1081" height="1" fill="black" fill-opacity="0.1"/>
<rect y="455" width="1081" height="1" fill="black" fill-opacity="0.1"/>
<rect y="479" width="1081" height="1" fill="black" fill-opacity="0.1"/>
<rect y="503" width="1081" height="1" fill="black" fill-opacity="0.1"/>
<rect y="527" width="1081" height="1" fill="black" fill-opacity="0.1"/>
<rect y="548" width="1081" height="1" fill="black" fill-opacity="0.1"/>
<rect y="569" width="1081" height="1" fill="black" fill-opacity="0.1"/>
</svg>
