<svg width="33" height="616" viewBox="0 0 33 616" fill="none" xmlns="http://www.w3.org/2000/svg">
<path d="M0.96 606.256L2.82 605.704V613H3.84V604.48L0.96 605.2V606.256ZM5.64234 611.32H12.0383V610.42H10.3223H10.1183H7.32234L9.69834 606.868V610.756V610.888V613H10.7183V604.6H10.2983L5.64234 611.32ZM13.5384 612.52C13.5384 612.696 13.6024 612.852 13.7304 612.988C13.8664 613.116 14.0224 613.18 14.1984 613.18C14.3824 613.18 14.5384 613.116 14.6664 612.988C14.7944 612.852 14.8584 612.696 14.8584 612.52C14.8584 612.336 14.7944 612.18 14.6664 612.052C14.5384 611.924 14.3824 611.86 14.1984 611.86C14.0224 611.86 13.8664 611.924 13.7304 612.052C13.6024 612.18 13.5384 612.336 13.5384 612.52ZM13.5384 607.96C13.5384 608.136 13.6024 608.292 13.7304 608.428C13.8664 608.556 14.0224 608.62 14.1984 608.62C14.3824 608.62 14.5384 608.556 14.6664 608.428C14.7944 608.292 14.8584 608.136 14.8584 607.96C14.8584 607.776 14.7944 607.62 14.6664 607.492C14.5384 607.364 14.3824 607.3 14.1984 607.3C14.0224 607.3 13.8664 607.364 13.7304 607.492C13.6024 607.62 13.5384 607.776 13.5384 607.96ZM17.4961 608.8C17.4961 608.312 17.5441 607.864 17.6401 607.456C17.7361 607.04 17.8761 606.684 18.0601 606.388C18.2441 606.084 18.4641 605.852 18.7201 605.692C18.9841 605.524 19.2761 605.44 19.5961 605.44C19.8521 605.44 20.0881 605.496 20.3041 605.608C20.5281 605.712 20.7241 605.864 20.8921 606.064C21.0681 606.256 21.2121 606.492 21.3241 606.772C21.4441 607.052 21.5361 607.364 21.6001 607.708C21.6641 608.044 21.6961 608.408 21.6961 608.8C21.6961 609.288 21.6481 609.74 21.5521 610.156C21.4561 610.564 21.3161 610.92 21.1321 611.224C20.9481 611.52 20.7281 611.752 20.4721 611.92C20.2161 612.08 19.9241 612.16 19.5961 612.16C19.3401 612.16 19.1001 612.108 18.8761 612.004C18.6601 611.892 18.4641 611.74 18.2881 611.548C18.1201 611.348 17.9761 611.108 17.8561 610.828C17.7441 610.548 17.6561 610.24 17.5921 609.904C17.5281 609.56 17.4961 609.192 17.4961 608.8ZM16.4761 608.8C16.4761 609.304 16.5241 609.776 16.6201 610.216C16.7161 610.648 16.8561 611.044 17.0401 611.404C17.2241 611.764 17.4441 612.072 17.7001 612.328C17.9561 612.584 18.2441 612.78 18.5641 612.916C18.8841 613.052 19.2281 613.12 19.5961 613.12C20.0601 613.12 20.4801 613.016 20.8561 612.808C21.2401 612.592 21.5681 612.292 21.8401 611.908C22.1201 611.516 22.3361 611.056 22.4881 610.528C22.6401 610 22.7161 609.424 22.7161 608.8C22.7161 608.296 22.6681 607.828 22.5721 607.396C22.4761 606.956 22.3361 606.556 22.1521 606.196C21.9681 605.836 21.7481 605.528 21.4921 605.272C21.2361 605.016 20.9481 604.82 20.6281 604.684C20.3081 604.548 19.9641 604.48 19.5961 604.48C19.1321 604.48 18.7081 604.588 18.3241 604.804C17.9481 605.012 17.6201 605.312 17.3401 605.704C17.0681 606.088 16.8561 606.544 16.7041 607.072C16.5521 607.6 16.4761 608.176 16.4761 608.8ZM24.6914 608.8C24.6914 608.312 24.7394 607.864 24.8354 607.456C24.9314 607.04 25.0714 606.684 25.2554 606.388C25.4394 606.084 25.6594 605.852 25.9154 605.692C26.1794 605.524 26.4714 605.44 26.7914 605.44C27.0474 605.44 27.2834 605.496 27.4994 605.608C27.7234 605.712 27.9194 605.864 28.0874 606.064C28.2634 606.256 28.4074 606.492 28.5194 606.772C28.6394 607.052 28.7314 607.364 28.7954 607.708C28.8594 608.044 28.8914 608.408 28.8914 608.8C28.8914 609.288 28.8434 609.74 28.7474 610.156C28.6514 610.564 28.5114 610.92 28.3274 611.224C28.1434 611.52 27.9234 611.752 27.6674 611.92C27.4114 612.08 27.1194 612.16 26.7914 612.16C26.5354 612.16 26.2954 612.108 26.0714 612.004C25.8554 611.892 25.6594 611.74 25.4834 611.548C25.3154 611.348 25.1714 611.108 25.0514 610.828C24.9394 610.548 24.8514 610.24 24.7874 609.904C24.7234 609.56 24.6914 609.192 24.6914 608.8ZM23.6714 608.8C23.6714 609.304 23.7194 609.776 23.8154 610.216C23.9114 610.648 24.0514 611.044 24.2354 611.404C24.4194 611.764 24.6394 612.072 24.8954 612.328C25.1514 612.584 25.4394 612.78 25.7594 612.916C26.0794 613.052 26.4234 613.12 26.7914 613.12C27.2554 613.12 27.6754 613.016 28.0514 612.808C28.4354 612.592 28.7634 612.292 29.0354 611.908C29.3154 611.516 29.5314 611.056 29.6834 610.528C29.8354 610 29.9114 609.424 29.9114 608.8C29.9114 608.296 29.8634 607.828 29.7674 607.396C29.6714 606.956 29.5314 606.556 29.3474 606.196C29.1634 605.836 28.9434 605.528 28.6874 605.272C28.4314 605.016 28.1434 604.82 27.8234 604.684C27.5034 604.548 27.1594 604.48 26.7914 604.48C26.3274 604.48 25.9034 604.588 25.5194 604.804C25.1434 605.012 24.8154 605.312 24.5354 605.704C24.2634 606.088 24.0514 606.544 23.8994 607.072C23.7474 607.6 23.6714 608.176 23.6714 608.8Z" fill="black" fill-opacity="0.5"/>
<path d="M0.96 566.256L2.82 565.704V573H3.84V564.48L0.96 565.2V566.256ZM8.43834 568.86C8.84634 568.86 9.21434 568.804 9.54234 568.692C9.87834 568.58 10.1663 568.428 10.4063 568.236C10.6543 568.036 10.8423 567.808 10.9703 567.552C11.1063 567.288 11.1743 567.008 11.1743 566.712C11.1743 566.312 11.0783 565.944 10.8863 565.608C10.7023 565.272 10.4343 565 10.0823 564.792C9.73834 564.584 9.32634 564.48 8.84634 564.48C8.39034 564.48 7.98234 564.576 7.62234 564.768C7.27034 564.952 6.99034 565.208 6.78234 565.536C6.58234 565.864 6.48234 566.248 6.48234 566.688H7.45434C7.45434 566.44 7.51434 566.22 7.63434 566.028C7.76234 565.836 7.93034 565.684 8.13834 565.572C8.35434 565.46 8.59434 565.404 8.85834 565.404C9.13834 565.404 9.37034 565.46 9.55434 565.572C9.74634 565.684 9.89034 565.844 9.98634 566.052C10.0823 566.252 10.1303 566.484 10.1303 566.748C10.1303 566.948 10.0903 567.136 10.0103 567.312C9.93834 567.488 9.83034 567.644 9.68634 567.78C9.54234 567.908 9.36634 568.012 9.15834 568.092C8.95034 568.164 8.71034 568.2 8.43834 568.2V568.86ZM8.79834 573.12C9.30234 573.12 9.75034 573.024 10.1423 572.832C10.5343 572.64 10.8423 572.368 11.0663 572.016C11.2983 571.664 11.4143 571.252 11.4143 570.78C11.4143 570.364 11.3343 570.008 11.1743 569.712C11.0223 569.416 10.8063 569.176 10.5263 568.992C10.2543 568.8 9.93834 568.66 9.57834 568.572C9.22634 568.484 8.84634 568.44 8.43834 568.44V569.1C8.71034 569.1 8.96234 569.132 9.19434 569.196C9.42634 569.26 9.63034 569.36 9.80634 569.496C9.98234 569.624 10.1183 569.788 10.2143 569.988C10.3183 570.18 10.3703 570.404 10.3703 570.66C10.3703 570.964 10.3063 571.228 10.1783 571.452C10.0503 571.676 9.86634 571.852 9.62634 571.98C9.39434 572.1 9.11834 572.16 8.79834 572.16C8.47834 572.16 8.19434 572.1 7.94634 571.98C7.69834 571.86 7.50234 571.696 7.35834 571.488C7.22234 571.28 7.15434 571.044 7.15434 570.78H6.12234C6.12234 571.108 6.18634 571.416 6.31434 571.704C6.44234 571.984 6.62234 572.232 6.85434 572.448C7.08634 572.656 7.36634 572.82 7.69434 572.94C8.02234 573.06 8.39034 573.12 8.79834 573.12ZM13.0931 572.52C13.0931 572.696 13.1571 572.852 13.2851 572.988C13.4211 573.116 13.5771 573.18 13.7531 573.18C13.9371 573.18 14.0931 573.116 14.2211 572.988C14.3491 572.852 14.4131 572.696 14.4131 572.52C14.4131 572.336 14.3491 572.18 14.2211 572.052C14.0931 571.924 13.9371 571.86 13.7531 571.86C13.5771 571.86 13.4211 571.924 13.2851 572.052C13.1571 572.18 13.0931 572.336 13.0931 572.52ZM13.0931 567.96C13.0931 568.136 13.1571 568.292 13.2851 568.428C13.4211 568.556 13.5771 568.62 13.7531 568.62C13.9371 568.62 14.0931 568.556 14.2211 568.428C14.3491 568.292 14.4131 568.136 14.4131 567.96C14.4131 567.776 14.3491 567.62 14.2211 567.492C14.0931 567.364 13.9371 567.3 13.7531 567.3C13.5771 567.3 13.4211 567.364 13.2851 567.492C13.1571 567.62 13.0931 567.776 13.0931 567.96ZM18.5868 568.86C18.9948 568.86 19.3628 568.804 19.6908 568.692C20.0268 568.58 20.3148 568.428 20.5548 568.236C20.8028 568.036 20.9908 567.808 21.1188 567.552C21.2548 567.288 21.3228 567.008 21.3228 566.712C21.3228 566.312 21.2268 565.944 21.0348 565.608C20.8508 565.272 20.5828 565 20.2308 564.792C19.8868 564.584 19.4748 564.48 18.9948 564.48C18.5388 564.48 18.1308 564.576 17.7708 564.768C17.4188 564.952 17.1388 565.208 16.9308 565.536C16.7308 565.864 16.6308 566.248 16.6308 566.688H17.6028C17.6028 566.44 17.6628 566.22 17.7828 566.028C17.9108 565.836 18.0788 565.684 18.2868 565.572C18.5028 565.46 18.7428 565.404 19.0068 565.404C19.2868 565.404 19.5188 565.46 19.7028 565.572C19.8948 565.684 20.0388 565.844 20.1348 566.052C20.2308 566.252 20.2788 566.484 20.2788 566.748C20.2788 566.948 20.2388 567.136 20.1588 567.312C20.0868 567.488 19.9788 567.644 19.8348 567.78C19.6908 567.908 19.5148 568.012 19.3068 568.092C19.0988 568.164 18.8588 568.2 18.5868 568.2V568.86ZM18.9468 573.12C19.4508 573.12 19.8988 573.024 20.2908 572.832C20.6828 572.64 20.9908 572.368 21.2148 572.016C21.4468 571.664 21.5628 571.252 21.5628 570.78C21.5628 570.364 21.4828 570.008 21.3228 569.712C21.1708 569.416 20.9548 569.176 20.6748 568.992C20.4028 568.8 20.0868 568.66 19.7268 568.572C19.3748 568.484 18.9948 568.44 18.5868 568.44V569.1C18.8588 569.1 19.1108 569.132 19.3428 569.196C19.5748 569.26 19.7788 569.36 19.9548 569.496C20.1308 569.624 20.2668 569.788 20.3628 569.988C20.4668 570.18 20.5188 570.404 20.5188 570.66C20.5188 570.964 20.4548 571.228 20.3268 571.452C20.1988 571.676 20.0148 571.852 19.7748 571.98C19.5428 572.1 19.2668 572.16 18.9468 572.16C18.6268 572.16 18.3428 572.1 18.0948 571.98C17.8468 571.86 17.6508 571.696 17.5068 571.488C17.3708 571.28 17.3028 571.044 17.3028 570.78H16.2708C16.2708 571.108 16.3348 571.416 16.4628 571.704C16.5908 571.984 16.7708 572.232 17.0028 572.448C17.2348 572.656 17.5148 572.82 17.8428 572.94C18.1708 573.06 18.5388 573.12 18.9468 573.12ZM23.6016 568.8C23.6016 568.312 23.6496 567.864 23.7456 567.456C23.8416 567.04 23.9816 566.684 24.1656 566.388C24.3496 566.084 24.5696 565.852 24.8256 565.692C25.0896 565.524 25.3816 565.44 25.7016 565.44C25.9576 565.44 26.1936 565.496 26.4096 565.608C26.6336 565.712 26.8296 565.864 26.9976 566.064C27.1736 566.256 27.3176 566.492 27.4296 566.772C27.5496 567.052 27.6416 567.364 27.7056 567.708C27.7696 568.044 27.8016 568.408 27.8016 568.8C27.8016 569.288 27.7536 569.74 27.6576 570.156C27.5616 570.564 27.4216 570.92 27.2376 571.224C27.0536 571.52 26.8336 571.752 26.5776 571.92C26.3216 572.08 26.0296 572.16 25.7016 572.16C25.4456 572.16 25.2056 572.108 24.9816 572.004C24.7656 571.892 24.5696 571.74 24.3936 571.548C24.2256 571.348 24.0816 571.108 23.9616 570.828C23.8496 570.548 23.7616 570.24 23.6976 569.904C23.6336 569.56 23.6016 569.192 23.6016 568.8ZM22.5816 568.8C22.5816 569.304 22.6296 569.776 22.7256 570.216C22.8216 570.648 22.9616 571.044 23.1456 571.404C23.3296 571.764 23.5496 572.072 23.8056 572.328C24.0616 572.584 24.3496 572.78 24.6696 572.916C24.9896 573.052 25.3336 573.12 25.7016 573.12C26.1656 573.12 26.5856 573.016 26.9616 572.808C27.3456 572.592 27.6736 572.292 27.9456 571.908C28.2256 571.516 28.4416 571.056 28.5936 570.528C28.7456 570 28.8216 569.424 28.8216 568.8C28.8216 568.296 28.7736 567.828 28.6776 567.396C28.5816 566.956 28.4416 566.556 28.2576 566.196C28.0736 565.836 27.8536 565.528 27.5976 565.272C27.3416 565.016 27.0536 564.82 26.7336 564.684C26.4136 564.548 26.0696 564.48 25.7016 564.48C25.2376 564.48 24.8136 564.588 24.4296 564.804C24.0536 565.012 23.7256 565.312 23.4456 565.704C23.1736 566.088 22.9616 566.544 22.8096 567.072C22.6576 567.6 22.5816 568.176 22.5816 568.8Z" fill="black" fill-opacity="0.5"/>
<path d="M0.96 518.256L2.82 517.704V525H3.84V516.48L0.96 517.2V518.256ZM8.43834 520.86C8.84634 520.86 9.21434 520.804 9.54234 520.692C9.87834 520.58 10.1663 520.428 10.4063 520.236C10.6543 520.036 10.8423 519.808 10.9703 519.552C11.1063 519.288 11.1743 519.008 11.1743 518.712C11.1743 518.312 11.0783 517.944 10.8863 517.608C10.7023 517.272 10.4343 517 10.0823 516.792C9.73834 516.584 9.32634 516.48 8.84634 516.48C8.39034 516.48 7.98234 516.576 7.62234 516.768C7.27034 516.952 6.99034 517.208 6.78234 517.536C6.58234 517.864 6.48234 518.248 6.48234 518.688H7.45434C7.45434 518.44 7.51434 518.22 7.63434 518.028C7.76234 517.836 7.93034 517.684 8.13834 517.572C8.35434 517.46 8.59434 517.404 8.85834 517.404C9.13834 517.404 9.37034 517.46 9.55434 517.572C9.74634 517.684 9.89034 517.844 9.98634 518.052C10.0823 518.252 10.1303 518.484 10.1303 518.748C10.1303 518.948 10.0903 519.136 10.0103 519.312C9.93834 519.488 9.83034 519.644 9.68634 519.78C9.54234 519.908 9.36634 520.012 9.15834 520.092C8.95034 520.164 8.71034 520.2 8.43834 520.2V520.86ZM8.79834 525.12C9.30234 525.12 9.75034 525.024 10.1423 524.832C10.5343 524.64 10.8423 524.368 11.0663 524.016C11.2983 523.664 11.4143 523.252 11.4143 522.78C11.4143 522.364 11.3343 522.008 11.1743 521.712C11.0223 521.416 10.8063 521.176 10.5263 520.992C10.2543 520.8 9.93834 520.66 9.57834 520.572C9.22634 520.484 8.84634 520.44 8.43834 520.44V521.1C8.71034 521.1 8.96234 521.132 9.19434 521.196C9.42634 521.26 9.63034 521.36 9.80634 521.496C9.98234 521.624 10.1183 521.788 10.2143 521.988C10.3183 522.18 10.3703 522.404 10.3703 522.66C10.3703 522.964 10.3063 523.228 10.1783 523.452C10.0503 523.676 9.86634 523.852 9.62634 523.98C9.39434 524.1 9.11834 524.16 8.79834 524.16C8.47834 524.16 8.19434 524.1 7.94634 523.98C7.69834 523.86 7.50234 523.696 7.35834 523.488C7.22234 523.28 7.15434 523.044 7.15434 522.78H6.12234C6.12234 523.108 6.18634 523.416 6.31434 523.704C6.44234 523.984 6.62234 524.232 6.85434 524.448C7.08634 524.656 7.36634 524.82 7.69434 524.94C8.02234 525.06 8.39034 525.12 8.79834 525.12ZM13.0931 524.52C13.0931 524.696 13.1571 524.852 13.2851 524.988C13.4211 525.116 13.5771 525.18 13.7531 525.18C13.9371 525.18 14.0931 525.116 14.2211 524.988C14.3491 524.852 14.4131 524.696 14.4131 524.52C14.4131 524.336 14.3491 524.18 14.2211 524.052C14.0931 523.924 13.9371 523.86 13.7531 523.86C13.5771 523.86 13.4211 523.924 13.2851 524.052C13.1571 524.18 13.0931 524.336 13.0931 524.52ZM13.0931 519.96C13.0931 520.136 13.1571 520.292 13.2851 520.428C13.4211 520.556 13.5771 520.62 13.7531 520.62C13.9371 520.62 14.0931 520.556 14.2211 520.428C14.3491 520.292 14.4131 520.136 14.4131 519.96C14.4131 519.776 14.3491 519.62 14.2211 519.492C14.0931 519.364 13.9371 519.3 13.7531 519.3C13.5771 519.3 13.4211 519.364 13.2851 519.492C13.1571 519.62 13.0931 519.776 13.0931 519.96ZM17.0508 520.8C17.0508 520.312 17.0988 519.864 17.1948 519.456C17.2908 519.04 17.4308 518.684 17.6148 518.388C17.7988 518.084 18.0188 517.852 18.2748 517.692C18.5388 517.524 18.8308 517.44 19.1508 517.44C19.4068 517.44 19.6428 517.496 19.8588 517.608C20.0828 517.712 20.2788 517.864 20.4468 518.064C20.6228 518.256 20.7668 518.492 20.8788 518.772C20.9988 519.052 21.0908 519.364 21.1548 519.708C21.2188 520.044 21.2508 520.408 21.2508 520.8C21.2508 521.288 21.2028 521.74 21.1068 522.156C21.0108 522.564 20.8708 522.92 20.6868 523.224C20.5028 523.52 20.2828 523.752 20.0268 523.92C19.7708 524.08 19.4788 524.16 19.1508 524.16C18.8948 524.16 18.6548 524.108 18.4308 524.004C18.2148 523.892 18.0188 523.74 17.8428 523.548C17.6748 523.348 17.5308 523.108 17.4108 522.828C17.2988 522.548 17.2108 522.24 17.1468 521.904C17.0828 521.56 17.0508 521.192 17.0508 520.8ZM16.0308 520.8C16.0308 521.304 16.0788 521.776 16.1748 522.216C16.2708 522.648 16.4108 523.044 16.5948 523.404C16.7788 523.764 16.9988 524.072 17.2548 524.328C17.5108 524.584 17.7988 524.78 18.1188 524.916C18.4388 525.052 18.7828 525.12 19.1508 525.12C19.6148 525.12 20.0348 525.016 20.4108 524.808C20.7948 524.592 21.1228 524.292 21.3948 523.908C21.6748 523.516 21.8908 523.056 22.0428 522.528C22.1948 522 22.2708 521.424 22.2708 520.8C22.2708 520.296 22.2228 519.828 22.1268 519.396C22.0308 518.956 21.8908 518.556 21.7068 518.196C21.5228 517.836 21.3028 517.528 21.0468 517.272C20.7908 517.016 20.5028 516.82 20.1828 516.684C19.8628 516.548 19.5188 516.48 19.1508 516.48C18.6868 516.48 18.2628 516.588 17.8788 516.804C17.5028 517.012 17.1748 517.312 16.8948 517.704C16.6228 518.088 16.4108 518.544 16.2588 519.072C16.1068 519.6 16.0308 520.176 16.0308 520.8ZM24.2461 520.8C24.2461 520.312 24.2941 519.864 24.3901 519.456C24.4861 519.04 24.6261 518.684 24.8101 518.388C24.9941 518.084 25.2141 517.852 25.4701 517.692C25.7341 517.524 26.0261 517.44 26.3461 517.44C26.6021 517.44 26.8381 517.496 27.0541 517.608C27.2781 517.712 27.4741 517.864 27.6421 518.064C27.8181 518.256 27.9621 518.492 28.0741 518.772C28.1941 519.052 28.2861 519.364 28.3501 519.708C28.4141 520.044 28.4461 520.408 28.4461 520.8C28.4461 521.288 28.3981 521.74 28.3021 522.156C28.2061 522.564 28.0661 522.92 27.8821 523.224C27.6981 523.52 27.4781 523.752 27.2221 523.92C26.9661 524.08 26.6741 524.16 26.3461 524.16C26.0901 524.16 25.8501 524.108 25.6261 524.004C25.4101 523.892 25.2141 523.74 25.0381 523.548C24.8701 523.348 24.7261 523.108 24.6061 522.828C24.4941 522.548 24.4061 522.24 24.3421 521.904C24.2781 521.56 24.2461 521.192 24.2461 520.8ZM23.2261 520.8C23.2261 521.304 23.2741 521.776 23.3701 522.216C23.4661 522.648 23.6061 523.044 23.7901 523.404C23.9741 523.764 24.1941 524.072 24.4501 524.328C24.7061 524.584 24.9941 524.78 25.3141 524.916C25.6341 525.052 25.9781 525.12 26.3461 525.12C26.8101 525.12 27.2301 525.016 27.6061 524.808C27.9901 524.592 28.3181 524.292 28.5901 523.908C28.8701 523.516 29.0861 523.056 29.2381 522.528C29.3901 522 29.4661 521.424 29.4661 520.8C29.4661 520.296 29.4181 519.828 29.3221 519.396C29.2261 518.956 29.0861 518.556 28.9021 518.196C28.7181 517.836 28.4981 517.528 28.2421 517.272C27.9861 517.016 27.6981 516.82 27.3781 516.684C27.0581 516.548 26.7141 516.48 26.3461 516.48C25.8821 516.48 25.4581 516.588 25.0741 516.804C24.6981 517.012 24.3701 517.312 24.0901 517.704C23.8181 518.088 23.6061 518.544 23.4541 519.072C23.3021 519.6 23.2261 520.176 23.2261 520.8Z" fill="black" fill-opacity="0.5"/>
<path d="M0.96 470.256L2.82 469.704V477H3.84V468.48L0.96 469.2V470.256ZM5.64234 477H11.5703V476.04H7.74234L10.4183 473.316C10.7463 472.98 11.0143 472.6 11.2223 472.176C11.4303 471.752 11.5343 471.324 11.5343 470.892C11.5343 470.636 11.4823 470.368 11.3783 470.088C11.2743 469.808 11.1143 469.548 10.8983 469.308C10.6823 469.06 10.4063 468.86 10.0703 468.708C9.73434 468.548 9.33434 468.468 8.87034 468.468C8.29434 468.468 7.79834 468.596 7.38234 468.852C6.97434 469.1 6.66234 469.452 6.44634 469.908C6.23034 470.356 6.12234 470.88 6.12234 471.48H7.14234C7.14234 471.056 7.21034 470.692 7.34634 470.388C7.48234 470.076 7.67834 469.84 7.93434 469.68C8.19834 469.512 8.51034 469.428 8.87034 469.428C9.12634 469.428 9.35434 469.472 9.55434 469.56C9.75434 469.648 9.92234 469.764 10.0583 469.908C10.2023 470.052 10.3103 470.212 10.3823 470.388C10.4543 470.564 10.4903 470.744 10.4903 470.928C10.4903 471.152 10.4543 471.368 10.3823 471.576C10.3183 471.776 10.2183 471.976 10.0823 472.176C9.95434 472.368 9.79834 472.564 9.61434 472.764L5.64234 477ZM13.3744 476.52C13.3744 476.696 13.4384 476.852 13.5664 476.988C13.7024 477.116 13.8584 477.18 14.0344 477.18C14.2184 477.18 14.3744 477.116 14.5024 476.988C14.6304 476.852 14.6944 476.696 14.6944 476.52C14.6944 476.336 14.6304 476.18 14.5024 476.052C14.3744 475.924 14.2184 475.86 14.0344 475.86C13.8584 475.86 13.7024 475.924 13.5664 476.052C13.4384 476.18 13.3744 476.336 13.3744 476.52ZM13.3744 471.96C13.3744 472.136 13.4384 472.292 13.5664 472.428C13.7024 472.556 13.8584 472.62 14.0344 472.62C14.2184 472.62 14.3744 472.556 14.5024 472.428C14.6304 472.292 14.6944 472.136 14.6944 471.96C14.6944 471.776 14.6304 471.62 14.5024 471.492C14.3744 471.364 14.2184 471.3 14.0344 471.3C13.8584 471.3 13.7024 471.364 13.5664 471.492C13.4384 471.62 13.3744 471.776 13.3744 471.96ZM18.868 472.86C19.276 472.86 19.644 472.804 19.972 472.692C20.308 472.58 20.596 472.428 20.836 472.236C21.084 472.036 21.272 471.808 21.4 471.552C21.536 471.288 21.604 471.008 21.604 470.712C21.604 470.312 21.508 469.944 21.316 469.608C21.132 469.272 20.864 469 20.512 468.792C20.168 468.584 19.756 468.48 19.276 468.48C18.82 468.48 18.412 468.576 18.052 468.768C17.7 468.952 17.42 469.208 17.212 469.536C17.012 469.864 16.912 470.248 16.912 470.688H17.884C17.884 470.44 17.944 470.22 18.064 470.028C18.192 469.836 18.36 469.684 18.568 469.572C18.784 469.46 19.024 469.404 19.288 469.404C19.568 469.404 19.8 469.46 19.984 469.572C20.176 469.684 20.32 469.844 20.416 470.052C20.512 470.252 20.56 470.484 20.56 470.748C20.56 470.948 20.52 471.136 20.44 471.312C20.368 471.488 20.26 471.644 20.116 471.78C19.972 471.908 19.796 472.012 19.588 472.092C19.38 472.164 19.14 472.2 18.868 472.2V472.86ZM19.228 477.12C19.732 477.12 20.18 477.024 20.572 476.832C20.964 476.64 21.272 476.368 21.496 476.016C21.728 475.664 21.844 475.252 21.844 474.78C21.844 474.364 21.764 474.008 21.604 473.712C21.452 473.416 21.236 473.176 20.956 472.992C20.684 472.8 20.368 472.66 20.008 472.572C19.656 472.484 19.276 472.44 18.868 472.44V473.1C19.14 473.1 19.392 473.132 19.624 473.196C19.856 473.26 20.06 473.36 20.236 473.496C20.412 473.624 20.548 473.788 20.644 473.988C20.748 474.18 20.8 474.404 20.8 474.66C20.8 474.964 20.736 475.228 20.608 475.452C20.48 475.676 20.296 475.852 20.056 475.98C19.824 476.1 19.548 476.16 19.228 476.16C18.908 476.16 18.624 476.1 18.376 475.98C18.128 475.86 17.932 475.696 17.788 475.488C17.652 475.28 17.584 475.044 17.584 474.78H16.552C16.552 475.108 16.616 475.416 16.744 475.704C16.872 475.984 17.052 476.232 17.284 476.448C17.516 476.656 17.796 476.82 18.124 476.94C18.452 477.06 18.82 477.12 19.228 477.12ZM23.8828 472.8C23.8828 472.312 23.9308 471.864 24.0268 471.456C24.1228 471.04 24.2628 470.684 24.4468 470.388C24.6308 470.084 24.8508 469.852 25.1068 469.692C25.3708 469.524 25.6628 469.44 25.9828 469.44C26.2388 469.44 26.4748 469.496 26.6908 469.608C26.9148 469.712 27.1108 469.864 27.2788 470.064C27.4548 470.256 27.5988 470.492 27.7108 470.772C27.8308 471.052 27.9228 471.364 27.9868 471.708C28.0508 472.044 28.0828 472.408 28.0828 472.8C28.0828 473.288 28.0348 473.74 27.9388 474.156C27.8428 474.564 27.7028 474.92 27.5188 475.224C27.3348 475.52 27.1148 475.752 26.8588 475.92C26.6028 476.08 26.3108 476.16 25.9828 476.16C25.7268 476.16 25.4868 476.108 25.2628 476.004C25.0468 475.892 24.8508 475.74 24.6748 475.548C24.5068 475.348 24.3628 475.108 24.2428 474.828C24.1308 474.548 24.0428 474.24 23.9788 473.904C23.9148 473.56 23.8828 473.192 23.8828 472.8ZM22.8628 472.8C22.8628 473.304 22.9108 473.776 23.0068 474.216C23.1028 474.648 23.2428 475.044 23.4268 475.404C23.6108 475.764 23.8308 476.072 24.0868 476.328C24.3428 476.584 24.6308 476.78 24.9508 476.916C25.2708 477.052 25.6148 477.12 25.9828 477.12C26.4468 477.12 26.8668 477.016 27.2428 476.808C27.6268 476.592 27.9548 476.292 28.2268 475.908C28.5068 475.516 28.7228 475.056 28.8748 474.528C29.0268 474 29.1028 473.424 29.1028 472.8C29.1028 472.296 29.0548 471.828 28.9588 471.396C28.8628 470.956 28.7228 470.556 28.5388 470.196C28.3548 469.836 28.1348 469.528 27.8788 469.272C27.6228 469.016 27.3348 468.82 27.0148 468.684C26.6948 468.548 26.3508 468.48 25.9828 468.48C25.5188 468.48 25.0948 468.588 24.7108 468.804C24.3348 469.012 24.0068 469.312 23.7268 469.704C23.4548 470.088 23.2428 470.544 23.0908 471.072C22.9388 471.6 22.8628 472.176 22.8628 472.8Z" fill="black" fill-opacity="0.5"/>
<path d="M0.96 422.256L2.82 421.704V429H3.84V420.48L0.96 421.2V422.256ZM5.64234 429H11.5703V428.04H7.74234L10.4183 425.316C10.7463 424.98 11.0143 424.6 11.2223 424.176C11.4303 423.752 11.5343 423.324 11.5343 422.892C11.5343 422.636 11.4823 422.368 11.3783 422.088C11.2743 421.808 11.1143 421.548 10.8983 421.308C10.6823 421.06 10.4063 420.86 10.0703 420.708C9.73434 420.548 9.33434 420.468 8.87034 420.468C8.29434 420.468 7.79834 420.596 7.38234 420.852C6.97434 421.1 6.66234 421.452 6.44634 421.908C6.23034 422.356 6.12234 422.88 6.12234 423.48H7.14234C7.14234 423.056 7.21034 422.692 7.34634 422.388C7.48234 422.076 7.67834 421.84 7.93434 421.68C8.19834 421.512 8.51034 421.428 8.87034 421.428C9.12634 421.428 9.35434 421.472 9.55434 421.56C9.75434 421.648 9.92234 421.764 10.0583 421.908C10.2023 422.052 10.3103 422.212 10.3823 422.388C10.4543 422.564 10.4903 422.744 10.4903 422.928C10.4903 423.152 10.4543 423.368 10.3823 423.576C10.3183 423.776 10.2183 423.976 10.0823 424.176C9.95434 424.368 9.79834 424.564 9.61434 424.764L5.64234 429ZM13.3744 428.52C13.3744 428.696 13.4384 428.852 13.5664 428.988C13.7024 429.116 13.8584 429.18 14.0344 429.18C14.2184 429.18 14.3744 429.116 14.5024 428.988C14.6304 428.852 14.6944 428.696 14.6944 428.52C14.6944 428.336 14.6304 428.18 14.5024 428.052C14.3744 427.924 14.2184 427.86 14.0344 427.86C13.8584 427.86 13.7024 427.924 13.5664 428.052C13.4384 428.18 13.3744 428.336 13.3744 428.52ZM13.3744 423.96C13.3744 424.136 13.4384 424.292 13.5664 424.428C13.7024 424.556 13.8584 424.62 14.0344 424.62C14.2184 424.62 14.3744 424.556 14.5024 424.428C14.6304 424.292 14.6944 424.136 14.6944 423.96C14.6944 423.776 14.6304 423.62 14.5024 423.492C14.3744 423.364 14.2184 423.3 14.0344 423.3C13.8584 423.3 13.7024 423.364 13.5664 423.492C13.4384 423.62 13.3744 423.776 13.3744 423.96ZM17.332 424.8C17.332 424.312 17.38 423.864 17.476 423.456C17.572 423.04 17.712 422.684 17.896 422.388C18.08 422.084 18.3 421.852 18.556 421.692C18.82 421.524 19.112 421.44 19.432 421.44C19.688 421.44 19.924 421.496 20.14 421.608C20.364 421.712 20.56 421.864 20.728 422.064C20.904 422.256 21.048 422.492 21.16 422.772C21.28 423.052 21.372 423.364 21.436 423.708C21.5 424.044 21.532 424.408 21.532 424.8C21.532 425.288 21.484 425.74 21.388 426.156C21.292 426.564 21.152 426.92 20.968 427.224C20.784 427.52 20.564 427.752 20.308 427.92C20.052 428.08 19.76 428.16 19.432 428.16C19.176 428.16 18.936 428.108 18.712 428.004C18.496 427.892 18.3 427.74 18.124 427.548C17.956 427.348 17.812 427.108 17.692 426.828C17.58 426.548 17.492 426.24 17.428 425.904C17.364 425.56 17.332 425.192 17.332 424.8ZM16.312 424.8C16.312 425.304 16.36 425.776 16.456 426.216C16.552 426.648 16.692 427.044 16.876 427.404C17.06 427.764 17.28 428.072 17.536 428.328C17.792 428.584 18.08 428.78 18.4 428.916C18.72 429.052 19.064 429.12 19.432 429.12C19.896 429.12 20.316 429.016 20.692 428.808C21.076 428.592 21.404 428.292 21.676 427.908C21.956 427.516 22.172 427.056 22.324 426.528C22.476 426 22.552 425.424 22.552 424.8C22.552 424.296 22.504 423.828 22.408 423.396C22.312 422.956 22.172 422.556 21.988 422.196C21.804 421.836 21.584 421.528 21.328 421.272C21.072 421.016 20.784 420.82 20.464 420.684C20.144 420.548 19.8 420.48 19.432 420.48C18.968 420.48 18.544 420.588 18.16 420.804C17.784 421.012 17.456 421.312 17.176 421.704C16.904 422.088 16.692 422.544 16.54 423.072C16.388 423.6 16.312 424.176 16.312 424.8ZM24.5273 424.8C24.5273 424.312 24.5753 423.864 24.6713 423.456C24.7673 423.04 24.9073 422.684 25.0913 422.388C25.2753 422.084 25.4953 421.852 25.7513 421.692C26.0153 421.524 26.3073 421.44 26.6273 421.44C26.8833 421.44 27.1193 421.496 27.3353 421.608C27.5593 421.712 27.7553 421.864 27.9233 422.064C28.0993 422.256 28.2433 422.492 28.3553 422.772C28.4753 423.052 28.5673 423.364 28.6313 423.708C28.6953 424.044 28.7273 424.408 28.7273 424.8C28.7273 425.288 28.6793 425.74 28.5833 426.156C28.4873 426.564 28.3473 426.92 28.1633 427.224C27.9793 427.52 27.7593 427.752 27.5033 427.92C27.2473 428.08 26.9553 428.16 26.6273 428.16C26.3713 428.16 26.1313 428.108 25.9073 428.004C25.6913 427.892 25.4953 427.74 25.3193 427.548C25.1513 427.348 25.0073 427.108 24.8873 426.828C24.7753 426.548 24.6873 426.24 24.6233 425.904C24.5593 425.56 24.5273 425.192 24.5273 424.8ZM23.5073 424.8C23.5073 425.304 23.5553 425.776 23.6513 426.216C23.7473 426.648 23.8873 427.044 24.0713 427.404C24.2553 427.764 24.4753 428.072 24.7313 428.328C24.9873 428.584 25.2753 428.78 25.5953 428.916C25.9153 429.052 26.2593 429.12 26.6273 429.12C27.0913 429.12 27.5113 429.016 27.8873 428.808C28.2713 428.592 28.5993 428.292 28.8713 427.908C29.1513 427.516 29.3673 427.056 29.5193 426.528C29.6713 426 29.7473 425.424 29.7473 424.8C29.7473 424.296 29.6993 423.828 29.6033 423.396C29.5073 422.956 29.3673 422.556 29.1833 422.196C28.9993 421.836 28.7793 421.528 28.5233 421.272C28.2673 421.016 27.9793 420.82 27.6593 420.684C27.3393 420.548 26.9953 420.48 26.6273 420.48C26.1633 420.48 25.7393 420.588 25.3553 420.804C24.9793 421.012 24.6513 421.312 24.3713 421.704C24.0993 422.088 23.8873 422.544 23.7353 423.072C23.5833 423.6 23.5073 424.176 23.5073 424.8Z" fill="black" fill-opacity="0.5"/>
<path d="M0.96 374.256L2.82 373.704V381H3.84V372.48L0.96 373.2V374.256ZM6.36234 374.256L8.22234 373.704V381H9.24234V372.48L6.36234 373.2V374.256ZM11.9447 380.52C11.9447 380.696 12.0087 380.852 12.1367 380.988C12.2727 381.116 12.4287 381.18 12.6047 381.18C12.7887 381.18 12.9447 381.116 13.0727 380.988C13.2007 380.852 13.2647 380.696 13.2647 380.52C13.2647 380.336 13.2007 380.18 13.0727 380.052C12.9447 379.924 12.7887 379.86 12.6047 379.86C12.4287 379.86 12.2727 379.924 12.1367 380.052C12.0087 380.18 11.9447 380.336 11.9447 380.52ZM11.9447 375.96C11.9447 376.136 12.0087 376.292 12.1367 376.428C12.2727 376.556 12.4287 376.62 12.6047 376.62C12.7887 376.62 12.9447 376.556 13.0727 376.428C13.2007 376.292 13.2647 376.136 13.2647 375.96C13.2647 375.776 13.2007 375.62 13.0727 375.492C12.9447 375.364 12.7887 375.3 12.6047 375.3C12.4287 375.3 12.2727 375.364 12.1367 375.492C12.0087 375.62 11.9447 375.776 11.9447 375.96ZM17.4383 376.86C17.8463 376.86 18.2143 376.804 18.5423 376.692C18.8783 376.58 19.1663 376.428 19.4063 376.236C19.6543 376.036 19.8423 375.808 19.9703 375.552C20.1063 375.288 20.1743 375.008 20.1743 374.712C20.1743 374.312 20.0783 373.944 19.8863 373.608C19.7023 373.272 19.4343 373 19.0823 372.792C18.7383 372.584 18.3263 372.48 17.8463 372.48C17.3903 372.48 16.9823 372.576 16.6223 372.768C16.2703 372.952 15.9903 373.208 15.7823 373.536C15.5823 373.864 15.4823 374.248 15.4823 374.688H16.4543C16.4543 374.44 16.5143 374.22 16.6343 374.028C16.7623 373.836 16.9303 373.684 17.1383 373.572C17.3543 373.46 17.5943 373.404 17.8583 373.404C18.1383 373.404 18.3703 373.46 18.5543 373.572C18.7463 373.684 18.8903 373.844 18.9863 374.052C19.0823 374.252 19.1303 374.484 19.1303 374.748C19.1303 374.948 19.0903 375.136 19.0103 375.312C18.9383 375.488 18.8303 375.644 18.6863 375.78C18.5423 375.908 18.3663 376.012 18.1583 376.092C17.9503 376.164 17.7103 376.2 17.4383 376.2V376.86ZM17.7983 381.12C18.3023 381.12 18.7503 381.024 19.1423 380.832C19.5343 380.64 19.8423 380.368 20.0663 380.016C20.2983 379.664 20.4143 379.252 20.4143 378.78C20.4143 378.364 20.3343 378.008 20.1743 377.712C20.0223 377.416 19.8063 377.176 19.5263 376.992C19.2543 376.8 18.9383 376.66 18.5783 376.572C18.2263 376.484 17.8463 376.44 17.4383 376.44V377.1C17.7103 377.1 17.9623 377.132 18.1943 377.196C18.4263 377.26 18.6303 377.36 18.8063 377.496C18.9823 377.624 19.1183 377.788 19.2143 377.988C19.3183 378.18 19.3703 378.404 19.3703 378.66C19.3703 378.964 19.3063 379.228 19.1783 379.452C19.0503 379.676 18.8663 379.852 18.6263 379.98C18.3943 380.1 18.1183 380.16 17.7983 380.16C17.4783 380.16 17.1943 380.1 16.9463 379.98C16.6983 379.86 16.5023 379.696 16.3583 379.488C16.2223 379.28 16.1543 379.044 16.1543 378.78H15.1223C15.1223 379.108 15.1863 379.416 15.3143 379.704C15.4423 379.984 15.6223 380.232 15.8543 380.448C16.0863 380.656 16.3663 380.82 16.6943 380.94C17.0223 381.06 17.3903 381.12 17.7983 381.12ZM22.4531 376.8C22.4531 376.312 22.5011 375.864 22.5971 375.456C22.6931 375.04 22.8331 374.684 23.0171 374.388C23.2011 374.084 23.4211 373.852 23.6771 373.692C23.9411 373.524 24.2331 373.44 24.5531 373.44C24.8091 373.44 25.0451 373.496 25.2611 373.608C25.4851 373.712 25.6811 373.864 25.8491 374.064C26.0251 374.256 26.1691 374.492 26.2811 374.772C26.4011 375.052 26.4931 375.364 26.5571 375.708C26.6211 376.044 26.6531 376.408 26.6531 376.8C26.6531 377.288 26.6051 377.74 26.5091 378.156C26.4131 378.564 26.2731 378.92 26.0891 379.224C25.9051 379.52 25.6851 379.752 25.4291 379.92C25.1731 380.08 24.8811 380.16 24.5531 380.16C24.2971 380.16 24.0571 380.108 23.8331 380.004C23.6171 379.892 23.4211 379.74 23.2451 379.548C23.0771 379.348 22.9331 379.108 22.8131 378.828C22.7011 378.548 22.6131 378.24 22.5491 377.904C22.4851 377.56 22.4531 377.192 22.4531 376.8ZM21.4331 376.8C21.4331 377.304 21.4811 377.776 21.5771 378.216C21.6731 378.648 21.8131 379.044 21.9971 379.404C22.1811 379.764 22.4011 380.072 22.6571 380.328C22.9131 380.584 23.2011 380.78 23.5211 380.916C23.8411 381.052 24.1851 381.12 24.5531 381.12C25.0171 381.12 25.4371 381.016 25.8131 380.808C26.1971 380.592 26.5251 380.292 26.7971 379.908C27.0771 379.516 27.2931 379.056 27.4451 378.528C27.5971 378 27.6731 377.424 27.6731 376.8C27.6731 376.296 27.6251 375.828 27.5291 375.396C27.4331 374.956 27.2931 374.556 27.1091 374.196C26.9251 373.836 26.7051 373.528 26.4491 373.272C26.1931 373.016 25.9051 372.82 25.5851 372.684C25.2651 372.548 24.9211 372.48 24.5531 372.48C24.0891 372.48 23.6651 372.588 23.2811 372.804C22.9051 373.012 22.5771 373.312 22.2971 373.704C22.0251 374.088 21.8131 374.544 21.6611 375.072C21.5091 375.6 21.4331 376.176 21.4331 376.8Z" fill="black" fill-opacity="0.5"/>
<path d="M0.96 326.256L2.82 325.704V333H3.84V324.48L0.96 325.2V326.256ZM6.36234 326.256L8.22234 325.704V333H9.24234V324.48L6.36234 325.2V326.256ZM11.9447 332.52C11.9447 332.696 12.0087 332.852 12.1367 332.988C12.2727 333.116 12.4287 333.18 12.6047 333.18C12.7887 333.18 12.9447 333.116 13.0727 332.988C13.2007 332.852 13.2647 332.696 13.2647 332.52C13.2647 332.336 13.2007 332.18 13.0727 332.052C12.9447 331.924 12.7887 331.86 12.6047 331.86C12.4287 331.86 12.2727 331.924 12.1367 332.052C12.0087 332.18 11.9447 332.336 11.9447 332.52ZM11.9447 327.96C11.9447 328.136 12.0087 328.292 12.1367 328.428C12.2727 328.556 12.4287 328.62 12.6047 328.62C12.7887 328.62 12.9447 328.556 13.0727 328.428C13.2007 328.292 13.2647 328.136 13.2647 327.96C13.2647 327.776 13.2007 327.62 13.0727 327.492C12.9447 327.364 12.7887 327.3 12.6047 327.3C12.4287 327.3 12.2727 327.364 12.1367 327.492C12.0087 327.62 11.9447 327.776 11.9447 327.96ZM15.9023 328.8C15.9023 328.312 15.9503 327.864 16.0463 327.456C16.1423 327.04 16.2823 326.684 16.4663 326.388C16.6503 326.084 16.8703 325.852 17.1263 325.692C17.3903 325.524 17.6823 325.44 18.0023 325.44C18.2583 325.44 18.4943 325.496 18.7103 325.608C18.9343 325.712 19.1303 325.864 19.2983 326.064C19.4743 326.256 19.6183 326.492 19.7303 326.772C19.8503 327.052 19.9423 327.364 20.0063 327.708C20.0703 328.044 20.1023 328.408 20.1023 328.8C20.1023 329.288 20.0543 329.74 19.9583 330.156C19.8623 330.564 19.7223 330.92 19.5383 331.224C19.3543 331.52 19.1343 331.752 18.8783 331.92C18.6223 332.08 18.3303 332.16 18.0023 332.16C17.7463 332.16 17.5063 332.108 17.2823 332.004C17.0663 331.892 16.8703 331.74 16.6943 331.548C16.5263 331.348 16.3823 331.108 16.2623 330.828C16.1503 330.548 16.0623 330.24 15.9983 329.904C15.9343 329.56 15.9023 329.192 15.9023 328.8ZM14.8823 328.8C14.8823 329.304 14.9303 329.776 15.0263 330.216C15.1223 330.648 15.2623 331.044 15.4463 331.404C15.6303 331.764 15.8503 332.072 16.1063 332.328C16.3623 332.584 16.6503 332.78 16.9703 332.916C17.2903 333.052 17.6343 333.12 18.0023 333.12C18.4663 333.12 18.8863 333.016 19.2623 332.808C19.6463 332.592 19.9743 332.292 20.2463 331.908C20.5263 331.516 20.7423 331.056 20.8943 330.528C21.0463 330 21.1223 329.424 21.1223 328.8C21.1223 328.296 21.0743 327.828 20.9783 327.396C20.8823 326.956 20.7423 326.556 20.5583 326.196C20.3743 325.836 20.1543 325.528 19.8983 325.272C19.6423 325.016 19.3543 324.82 19.0343 324.684C18.7143 324.548 18.3703 324.48 18.0023 324.48C17.5383 324.48 17.1143 324.588 16.7303 324.804C16.3543 325.012 16.0263 325.312 15.7463 325.704C15.4743 326.088 15.2623 326.544 15.1103 327.072C14.9583 327.6 14.8823 328.176 14.8823 328.8ZM23.0977 328.8C23.0977 328.312 23.1457 327.864 23.2417 327.456C23.3377 327.04 23.4777 326.684 23.6617 326.388C23.8457 326.084 24.0657 325.852 24.3217 325.692C24.5857 325.524 24.8777 325.44 25.1977 325.44C25.4537 325.44 25.6897 325.496 25.9057 325.608C26.1297 325.712 26.3257 325.864 26.4937 326.064C26.6697 326.256 26.8137 326.492 26.9257 326.772C27.0457 327.052 27.1377 327.364 27.2017 327.708C27.2657 328.044 27.2977 328.408 27.2977 328.8C27.2977 329.288 27.2497 329.74 27.1537 330.156C27.0577 330.564 26.9177 330.92 26.7337 331.224C26.5497 331.52 26.3297 331.752 26.0737 331.92C25.8177 332.08 25.5257 332.16 25.1977 332.16C24.9417 332.16 24.7017 332.108 24.4777 332.004C24.2617 331.892 24.0657 331.74 23.8897 331.548C23.7217 331.348 23.5777 331.108 23.4577 330.828C23.3457 330.548 23.2577 330.24 23.1937 329.904C23.1297 329.56 23.0977 329.192 23.0977 328.8ZM22.0777 328.8C22.0777 329.304 22.1257 329.776 22.2217 330.216C22.3177 330.648 22.4577 331.044 22.6417 331.404C22.8257 331.764 23.0457 332.072 23.3017 332.328C23.5577 332.584 23.8457 332.78 24.1657 332.916C24.4857 333.052 24.8297 333.12 25.1977 333.12C25.6617 333.12 26.0817 333.016 26.4577 332.808C26.8417 332.592 27.1697 332.292 27.4417 331.908C27.7217 331.516 27.9377 331.056 28.0897 330.528C28.2417 330 28.3177 329.424 28.3177 328.8C28.3177 328.296 28.2697 327.828 28.1737 327.396C28.0777 326.956 27.9377 326.556 27.7537 326.196C27.5697 325.836 27.3497 325.528 27.0937 325.272C26.8377 325.016 26.5497 324.82 26.2297 324.684C25.9097 324.548 25.5657 324.48 25.1977 324.48C24.7337 324.48 24.3097 324.588 23.9257 324.804C23.5497 325.012 23.2217 325.312 22.9417 325.704C22.6697 326.088 22.4577 326.544 22.3057 327.072C22.1537 327.6 22.0777 328.176 22.0777 328.8Z" fill="black" fill-opacity="0.5"/>
<path d="M0.96 278.256L2.82 277.704V285H3.84V276.48L0.96 277.2V278.256ZM6.90234 280.8C6.90234 280.312 6.95034 279.864 7.04634 279.456C7.14234 279.04 7.28234 278.684 7.46634 278.388C7.65034 278.084 7.87034 277.852 8.12634 277.692C8.39034 277.524 8.68234 277.44 9.00234 277.44C9.25834 277.44 9.49434 277.496 9.71034 277.608C9.93434 277.712 10.1303 277.864 10.2983 278.064C10.4743 278.256 10.6183 278.492 10.7303 278.772C10.8503 279.052 10.9423 279.364 11.0063 279.708C11.0703 280.044 11.1023 280.408 11.1023 280.8C11.1023 281.288 11.0543 281.74 10.9583 282.156C10.8623 282.564 10.7223 282.92 10.5383 283.224C10.3543 283.52 10.1343 283.752 9.87834 283.92C9.62234 284.08 9.33034 284.16 9.00234 284.16C8.74634 284.16 8.50634 284.108 8.28234 284.004C8.06634 283.892 7.87034 283.74 7.69434 283.548C7.52634 283.348 7.38234 283.108 7.26234 282.828C7.15034 282.548 7.06234 282.24 6.99834 281.904C6.93434 281.56 6.90234 281.192 6.90234 280.8ZM5.88234 280.8C5.88234 281.304 5.93034 281.776 6.02634 282.216C6.12234 282.648 6.26234 283.044 6.44634 283.404C6.63034 283.764 6.85034 284.072 7.10634 284.328C7.36234 284.584 7.65034 284.78 7.97034 284.916C8.29034 285.052 8.63434 285.12 9.00234 285.12C9.46634 285.12 9.88634 285.016 10.2623 284.808C10.6463 284.592 10.9743 284.292 11.2463 283.908C11.5263 283.516 11.7423 283.056 11.8943 282.528C12.0463 282 12.1223 281.424 12.1223 280.8C12.1223 280.296 12.0743 279.828 11.9783 279.396C11.8823 278.956 11.7423 278.556 11.5583 278.196C11.3743 277.836 11.1543 277.528 10.8983 277.272C10.6423 277.016 10.3543 276.82 10.0343 276.684C9.71434 276.548 9.37034 276.48 9.00234 276.48C8.53834 276.48 8.11434 276.588 7.73034 276.804C7.35434 277.012 7.02634 277.312 6.74634 277.704C6.47434 278.088 6.26234 278.544 6.11034 279.072C5.95834 279.6 5.88234 280.176 5.88234 280.8ZM13.7377 284.52C13.7377 284.696 13.8017 284.852 13.9297 284.988C14.0657 285.116 14.2217 285.18 14.3977 285.18C14.5817 285.18 14.7377 285.116 14.8657 284.988C14.9937 284.852 15.0577 284.696 15.0577 284.52C15.0577 284.336 14.9937 284.18 14.8657 284.052C14.7377 283.924 14.5817 283.86 14.3977 283.86C14.2217 283.86 14.0657 283.924 13.9297 284.052C13.8017 284.18 13.7377 284.336 13.7377 284.52ZM13.7377 279.96C13.7377 280.136 13.8017 280.292 13.9297 280.428C14.0657 280.556 14.2217 280.62 14.3977 280.62C14.5817 280.62 14.7377 280.556 14.8657 280.428C14.9937 280.292 15.0577 280.136 15.0577 279.96C15.0577 279.776 14.9937 279.62 14.8657 279.492C14.7377 279.364 14.5817 279.3 14.3977 279.3C14.2217 279.3 14.0657 279.364 13.9297 279.492C13.8017 279.62 13.7377 279.776 13.7377 279.96ZM19.2313 280.86C19.6393 280.86 20.0073 280.804 20.3353 280.692C20.6713 280.58 20.9593 280.428 21.1993 280.236C21.4473 280.036 21.6353 279.808 21.7633 279.552C21.8993 279.288 21.9673 279.008 21.9673 278.712C21.9673 278.312 21.8713 277.944 21.6793 277.608C21.4953 277.272 21.2273 277 20.8753 276.792C20.5313 276.584 20.1193 276.48 19.6393 276.48C19.1833 276.48 18.7753 276.576 18.4153 276.768C18.0633 276.952 17.7833 277.208 17.5753 277.536C17.3753 277.864 17.2753 278.248 17.2753 278.688H18.2473C18.2473 278.44 18.3073 278.22 18.4273 278.028C18.5553 277.836 18.7233 277.684 18.9313 277.572C19.1473 277.46 19.3873 277.404 19.6513 277.404C19.9313 277.404 20.1633 277.46 20.3473 277.572C20.5393 277.684 20.6833 277.844 20.7793 278.052C20.8753 278.252 20.9233 278.484 20.9233 278.748C20.9233 278.948 20.8833 279.136 20.8033 279.312C20.7313 279.488 20.6233 279.644 20.4793 279.78C20.3353 279.908 20.1593 280.012 19.9513 280.092C19.7433 280.164 19.5033 280.2 19.2313 280.2V280.86ZM19.5913 285.12C20.0953 285.12 20.5433 285.024 20.9353 284.832C21.3273 284.64 21.6353 284.368 21.8593 284.016C22.0913 283.664 22.2073 283.252 22.2073 282.78C22.2073 282.364 22.1273 282.008 21.9673 281.712C21.8153 281.416 21.5993 281.176 21.3193 280.992C21.0473 280.8 20.7313 280.66 20.3713 280.572C20.0193 280.484 19.6393 280.44 19.2313 280.44V281.1C19.5033 281.1 19.7553 281.132 19.9873 281.196C20.2193 281.26 20.4233 281.36 20.5993 281.496C20.7753 281.624 20.9113 281.788 21.0073 281.988C21.1113 282.18 21.1633 282.404 21.1633 282.66C21.1633 282.964 21.0993 283.228 20.9713 283.452C20.8433 283.676 20.6593 283.852 20.4193 283.98C20.1873 284.1 19.9113 284.16 19.5913 284.16C19.2713 284.16 18.9873 284.1 18.7393 283.98C18.4913 283.86 18.2953 283.696 18.1513 283.488C18.0153 283.28 17.9473 283.044 17.9473 282.78H16.9153C16.9153 283.108 16.9793 283.416 17.1073 283.704C17.2353 283.984 17.4153 284.232 17.6473 284.448C17.8793 284.656 18.1593 284.82 18.4873 284.94C18.8153 285.06 19.1833 285.12 19.5913 285.12ZM24.2461 280.8C24.2461 280.312 24.2941 279.864 24.3901 279.456C24.4861 279.04 24.6261 278.684 24.8101 278.388C24.9941 278.084 25.2141 277.852 25.4701 277.692C25.7341 277.524 26.0261 277.44 26.3461 277.44C26.6021 277.44 26.8381 277.496 27.0541 277.608C27.2781 277.712 27.4741 277.864 27.6421 278.064C27.8181 278.256 27.9621 278.492 28.0741 278.772C28.1941 279.052 28.2861 279.364 28.3501 279.708C28.4141 280.044 28.4461 280.408 28.4461 280.8C28.4461 281.288 28.3981 281.74 28.3021 282.156C28.2061 282.564 28.0661 282.92 27.8821 283.224C27.6981 283.52 27.4781 283.752 27.2221 283.92C26.9661 284.08 26.6741 284.16 26.3461 284.16C26.0901 284.16 25.8501 284.108 25.6261 284.004C25.4101 283.892 25.2141 283.74 25.0381 283.548C24.8701 283.348 24.7261 283.108 24.6061 282.828C24.4941 282.548 24.4061 282.24 24.3421 281.904C24.2781 281.56 24.2461 281.192 24.2461 280.8ZM23.2261 280.8C23.2261 281.304 23.2741 281.776 23.3701 282.216C23.4661 282.648 23.6061 283.044 23.7901 283.404C23.9741 283.764 24.1941 284.072 24.4501 284.328C24.7061 284.584 24.9941 284.78 25.3141 284.916C25.6341 285.052 25.9781 285.12 26.3461 285.12C26.8101 285.12 27.2301 285.016 27.6061 284.808C27.9901 284.592 28.3181 284.292 28.5901 283.908C28.8701 283.516 29.0861 283.056 29.2381 282.528C29.3901 282 29.4661 281.424 29.4661 280.8C29.4661 280.296 29.4181 279.828 29.3221 279.396C29.2261 278.956 29.0861 278.556 28.9021 278.196C28.7181 277.836 28.4981 277.528 28.2421 277.272C27.9861 277.016 27.6981 276.82 27.3781 276.684C27.0581 276.548 26.7141 276.48 26.3461 276.48C25.8821 276.48 25.4581 276.588 25.0741 276.804C24.6981 277.012 24.3701 277.312 24.0901 277.704C23.8181 278.088 23.6061 278.544 23.4541 279.072C23.3021 279.6 23.2261 280.176 23.2261 280.8Z" fill="black" fill-opacity="0.5"/>
<path d="M0.96 230.256L2.82 229.704V237H3.84V228.48L0.96 229.2V230.256ZM6.90234 232.8C6.90234 232.312 6.95034 231.864 7.04634 231.456C7.14234 231.04 7.28234 230.684 7.46634 230.388C7.65034 230.084 7.87034 229.852 8.12634 229.692C8.39034 229.524 8.68234 229.44 9.00234 229.44C9.25834 229.44 9.49434 229.496 9.71034 229.608C9.93434 229.712 10.1303 229.864 10.2983 230.064C10.4743 230.256 10.6183 230.492 10.7303 230.772C10.8503 231.052 10.9423 231.364 11.0063 231.708C11.0703 232.044 11.1023 232.408 11.1023 232.8C11.1023 233.288 11.0543 233.74 10.9583 234.156C10.8623 234.564 10.7223 234.92 10.5383 235.224C10.3543 235.52 10.1343 235.752 9.87834 235.92C9.62234 236.08 9.33034 236.16 9.00234 236.16C8.74634 236.16 8.50634 236.108 8.28234 236.004C8.06634 235.892 7.87034 235.74 7.69434 235.548C7.52634 235.348 7.38234 235.108 7.26234 234.828C7.15034 234.548 7.06234 234.24 6.99834 233.904C6.93434 233.56 6.90234 233.192 6.90234 232.8ZM5.88234 232.8C5.88234 233.304 5.93034 233.776 6.02634 234.216C6.12234 234.648 6.26234 235.044 6.44634 235.404C6.63034 235.764 6.85034 236.072 7.10634 236.328C7.36234 236.584 7.65034 236.78 7.97034 236.916C8.29034 237.052 8.63434 237.12 9.00234 237.12C9.46634 237.12 9.88634 237.016 10.2623 236.808C10.6463 236.592 10.9743 236.292 11.2463 235.908C11.5263 235.516 11.7423 235.056 11.8943 234.528C12.0463 234 12.1223 233.424 12.1223 232.8C12.1223 232.296 12.0743 231.828 11.9783 231.396C11.8823 230.956 11.7423 230.556 11.5583 230.196C11.3743 229.836 11.1543 229.528 10.8983 229.272C10.6423 229.016 10.3543 228.82 10.0343 228.684C9.71434 228.548 9.37034 228.48 9.00234 228.48C8.53834 228.48 8.11434 228.588 7.73034 228.804C7.35434 229.012 7.02634 229.312 6.74634 229.704C6.47434 230.088 6.26234 230.544 6.11034 231.072C5.95834 231.6 5.88234 232.176 5.88234 232.8ZM13.7377 236.52C13.7377 236.696 13.8017 236.852 13.9297 236.988C14.0657 237.116 14.2217 237.18 14.3977 237.18C14.5817 237.18 14.7377 237.116 14.8657 236.988C14.9937 236.852 15.0577 236.696 15.0577 236.52C15.0577 236.336 14.9937 236.18 14.8657 236.052C14.7377 235.924 14.5817 235.86 14.3977 235.86C14.2217 235.86 14.0657 235.924 13.9297 236.052C13.8017 236.18 13.7377 236.336 13.7377 236.52ZM13.7377 231.96C13.7377 232.136 13.8017 232.292 13.9297 232.428C14.0657 232.556 14.2217 232.62 14.3977 232.62C14.5817 232.62 14.7377 232.556 14.8657 232.428C14.9937 232.292 15.0577 232.136 15.0577 231.96C15.0577 231.776 14.9937 231.62 14.8657 231.492C14.7377 231.364 14.5817 231.3 14.3977 231.3C14.2217 231.3 14.0657 231.364 13.9297 231.492C13.8017 231.62 13.7377 231.776 13.7377 231.96ZM17.6953 232.8C17.6953 232.312 17.7433 231.864 17.8393 231.456C17.9353 231.04 18.0753 230.684 18.2593 230.388C18.4433 230.084 18.6633 229.852 18.9193 229.692C19.1833 229.524 19.4753 229.44 19.7953 229.44C20.0513 229.44 20.2873 229.496 20.5033 229.608C20.7273 229.712 20.9233 229.864 21.0913 230.064C21.2673 230.256 21.4113 230.492 21.5233 230.772C21.6433 231.052 21.7353 231.364 21.7993 231.708C21.8633 232.044 21.8953 232.408 21.8953 232.8C21.8953 233.288 21.8473 233.74 21.7513 234.156C21.6553 234.564 21.5153 234.92 21.3313 235.224C21.1473 235.52 20.9273 235.752 20.6713 235.92C20.4153 236.08 20.1233 236.16 19.7953 236.16C19.5393 236.16 19.2993 236.108 19.0753 236.004C18.8593 235.892 18.6633 235.74 18.4873 235.548C18.3193 235.348 18.1753 235.108 18.0553 234.828C17.9433 234.548 17.8553 234.24 17.7913 233.904C17.7273 233.56 17.6953 233.192 17.6953 232.8ZM16.6753 232.8C16.6753 233.304 16.7233 233.776 16.8193 234.216C16.9153 234.648 17.0553 235.044 17.2393 235.404C17.4233 235.764 17.6433 236.072 17.8993 236.328C18.1553 236.584 18.4433 236.78 18.7633 236.916C19.0833 237.052 19.4273 237.12 19.7953 237.12C20.2593 237.12 20.6793 237.016 21.0553 236.808C21.4393 236.592 21.7673 236.292 22.0393 235.908C22.3193 235.516 22.5353 235.056 22.6873 234.528C22.8393 234 22.9153 233.424 22.9153 232.8C22.9153 232.296 22.8673 231.828 22.7713 231.396C22.6753 230.956 22.5353 230.556 22.3513 230.196C22.1673 229.836 21.9473 229.528 21.6913 229.272C21.4353 229.016 21.1473 228.82 20.8273 228.684C20.5073 228.548 20.1633 228.48 19.7953 228.48C19.3313 228.48 18.9073 228.588 18.5233 228.804C18.1473 229.012 17.8193 229.312 17.5393 229.704C17.2673 230.088 17.0553 230.544 16.9033 231.072C16.7513 231.6 16.6753 232.176 16.6753 232.8ZM24.8906 232.8C24.8906 232.312 24.9386 231.864 25.0346 231.456C25.1306 231.04 25.2706 230.684 25.4546 230.388C25.6386 230.084 25.8586 229.852 26.1146 229.692C26.3786 229.524 26.6706 229.44 26.9906 229.44C27.2466 229.44 27.4826 229.496 27.6986 229.608C27.9226 229.712 28.1186 229.864 28.2866 230.064C28.4626 230.256 28.6066 230.492 28.7186 230.772C28.8386 231.052 28.9306 231.364 28.9946 231.708C29.0586 232.044 29.0906 232.408 29.0906 232.8C29.0906 233.288 29.0426 233.74 28.9466 234.156C28.8506 234.564 28.7106 234.92 28.5266 235.224C28.3426 235.52 28.1226 235.752 27.8666 235.92C27.6106 236.08 27.3186 236.16 26.9906 236.16C26.7346 236.16 26.4946 236.108 26.2706 236.004C26.0546 235.892 25.8586 235.74 25.6826 235.548C25.5146 235.348 25.3706 235.108 25.2506 234.828C25.1386 234.548 25.0506 234.24 24.9866 233.904C24.9226 233.56 24.8906 233.192 24.8906 232.8ZM23.8706 232.8C23.8706 233.304 23.9186 233.776 24.0146 234.216C24.1106 234.648 24.2506 235.044 24.4346 235.404C24.6186 235.764 24.8386 236.072 25.0946 236.328C25.3506 236.584 25.6386 236.78 25.9586 236.916C26.2786 237.052 26.6226 237.12 26.9906 237.12C27.4546 237.12 27.8746 237.016 28.2506 236.808C28.6346 236.592 28.9626 236.292 29.2346 235.908C29.5146 235.516 29.7306 235.056 29.8826 234.528C30.0346 234 30.1106 233.424 30.1106 232.8C30.1106 232.296 30.0626 231.828 29.9666 231.396C29.8706 230.956 29.7306 230.556 29.5466 230.196C29.3626 229.836 29.1426 229.528 28.8866 229.272C28.6306 229.016 28.3426 228.82 28.0226 228.684C27.7026 228.548 27.3586 228.48 26.9906 228.48C26.5266 228.48 26.1026 228.588 25.7186 228.804C25.3426 229.012 25.0146 229.312 24.7346 229.704C24.4626 230.088 24.2506 230.544 24.0986 231.072C23.9466 231.6 23.8706 232.176 23.8706 232.8Z" fill="black" fill-opacity="0.5"/>
<path d="M1.5 184.8C1.5 184.312 1.548 183.864 1.644 183.456C1.74 183.04 1.88 182.684 2.064 182.388C2.248 182.084 2.468 181.852 2.724 181.692C2.988 181.524 3.28 181.44 3.6 181.44C3.856 181.44 4.092 181.496 4.308 181.608C4.532 181.712 4.728 181.864 4.896 182.064C5.072 182.256 5.216 182.492 5.328 182.772C5.448 183.052 5.54 183.364 5.604 183.708C5.668 184.044 5.7 184.408 5.7 184.8C5.7 185.288 5.652 185.74 5.556 186.156C5.46 186.564 5.32 186.92 5.136 187.224C4.952 187.52 4.732 187.752 4.476 187.92C4.22 188.08 3.928 188.16 3.6 188.16C3.344 188.16 3.104 188.108 2.88 188.004C2.664 187.892 2.468 187.74 2.292 187.548C2.124 187.348 1.98 187.108 1.86 186.828C1.748 186.548 1.66 186.24 1.596 185.904C1.532 185.56 1.5 185.192 1.5 184.8ZM0.48 184.8C0.48 185.304 0.528 185.776 0.624 186.216C0.72 186.648 0.86 187.044 1.044 187.404C1.228 187.764 1.448 188.072 1.704 188.328C1.96 188.584 2.248 188.78 2.568 188.916C2.888 189.052 3.232 189.12 3.6 189.12C4.064 189.12 4.484 189.016 4.86 188.808C5.244 188.592 5.572 188.292 5.844 187.908C6.124 187.516 6.34 187.056 6.492 186.528C6.644 186 6.72 185.424 6.72 184.8C6.72 184.296 6.672 183.828 6.576 183.396C6.48 182.956 6.34 182.556 6.156 182.196C5.972 181.836 5.752 181.528 5.496 181.272C5.24 181.016 4.952 180.82 4.632 180.684C4.312 180.548 3.968 180.48 3.6 180.48C3.136 180.48 2.712 180.588 2.328 180.804C1.952 181.012 1.624 181.312 1.344 181.704C1.072 182.088 0.86 182.544 0.708 183.072C0.556 183.6 0.48 184.176 0.48 184.8ZM12.5353 183.36C12.5353 183.744 12.4513 184.084 12.2833 184.38C12.1233 184.676 11.8993 184.912 11.6113 185.088C11.3313 185.256 11.0113 185.34 10.6513 185.34C10.2913 185.34 9.96731 185.256 9.67931 185.088C9.39931 184.912 9.17531 184.676 9.00731 184.38C8.84731 184.084 8.76731 183.744 8.76731 183.36C8.76731 182.976 8.84731 182.64 9.00731 182.352C9.17531 182.056 9.39931 181.824 9.67931 181.656C9.96731 181.488 10.2913 181.404 10.6513 181.404C11.0113 181.404 11.3313 181.488 11.6113 181.656C11.8993 181.824 12.1233 182.056 12.2833 182.352C12.4513 182.64 12.5353 182.976 12.5353 183.36ZM10.1473 189L12.9793 185.1C13.1393 184.876 13.2673 184.616 13.3633 184.32C13.4593 184.024 13.5073 183.704 13.5073 183.36C13.5073 182.784 13.3793 182.28 13.1233 181.848C12.8753 181.416 12.5353 181.08 12.1033 180.84C11.6793 180.6 11.1953 180.48 10.6513 180.48C10.1153 180.48 9.63131 180.6 9.19931 180.84C8.76731 181.08 8.42331 181.416 8.16731 181.848C7.91931 182.28 7.79531 182.784 7.79531 183.36C7.79531 183.744 7.85931 184.104 7.98731 184.44C8.11531 184.768 8.29131 185.056 8.51531 185.304C8.74731 185.552 9.01131 185.744 9.30731 185.88C9.61131 186.016 9.93531 186.084 10.2793 186.084C10.5513 186.084 10.7913 186.052 10.9993 185.988C11.2153 185.924 11.4033 185.792 11.5633 185.592L11.4913 185.532L8.86331 189H10.1473ZM15.2494 188.52C15.2494 188.696 15.3134 188.852 15.4414 188.988C15.5774 189.116 15.7334 189.18 15.9094 189.18C16.0934 189.18 16.2494 189.116 16.3774 188.988C16.5054 188.852 16.5694 188.696 16.5694 188.52C16.5694 188.336 16.5054 188.18 16.3774 188.052C16.2494 187.924 16.0934 187.86 15.9094 187.86C15.7334 187.86 15.5774 187.924 15.4414 188.052C15.3134 188.18 15.2494 188.336 15.2494 188.52ZM15.2494 183.96C15.2494 184.136 15.3134 184.292 15.4414 184.428C15.5774 184.556 15.7334 184.62 15.9094 184.62C16.0934 184.62 16.2494 184.556 16.3774 184.428C16.5054 184.292 16.5694 184.136 16.5694 183.96C16.5694 183.776 16.5054 183.62 16.3774 183.492C16.2494 183.364 16.0934 183.3 15.9094 183.3C15.7334 183.3 15.5774 183.364 15.4414 183.492C15.3134 183.62 15.2494 183.776 15.2494 183.96ZM20.743 184.86C21.151 184.86 21.519 184.804 21.847 184.692C22.183 184.58 22.471 184.428 22.711 184.236C22.959 184.036 23.147 183.808 23.275 183.552C23.411 183.288 23.479 183.008 23.479 182.712C23.479 182.312 23.383 181.944 23.191 181.608C23.007 181.272 22.739 181 22.387 180.792C22.043 180.584 21.631 180.48 21.151 180.48C20.695 180.48 20.287 180.576 19.927 180.768C19.575 180.952 19.295 181.208 19.087 181.536C18.887 181.864 18.787 182.248 18.787 182.688H19.759C19.759 182.44 19.819 182.22 19.939 182.028C20.067 181.836 20.235 181.684 20.443 181.572C20.659 181.46 20.899 181.404 21.163 181.404C21.443 181.404 21.675 181.46 21.859 181.572C22.051 181.684 22.195 181.844 22.291 182.052C22.387 182.252 22.435 182.484 22.435 182.748C22.435 182.948 22.395 183.136 22.315 183.312C22.243 183.488 22.135 183.644 21.991 183.78C21.847 183.908 21.671 184.012 21.463 184.092C21.255 184.164 21.015 184.2 20.743 184.2V184.86ZM21.103 189.12C21.607 189.12 22.055 189.024 22.447 188.832C22.839 188.64 23.147 188.368 23.371 188.016C23.603 187.664 23.719 187.252 23.719 186.78C23.719 186.364 23.639 186.008 23.479 185.712C23.327 185.416 23.111 185.176 22.831 184.992C22.559 184.8 22.243 184.66 21.883 184.572C21.531 184.484 21.151 184.44 20.743 184.44V185.1C21.015 185.1 21.267 185.132 21.499 185.196C21.731 185.26 21.935 185.36 22.111 185.496C22.287 185.624 22.423 185.788 22.519 185.988C22.623 186.18 22.675 186.404 22.675 186.66C22.675 186.964 22.611 187.228 22.483 187.452C22.355 187.676 22.171 187.852 21.931 187.98C21.699 188.1 21.423 188.16 21.103 188.16C20.783 188.16 20.499 188.1 20.251 187.98C20.003 187.86 19.807 187.696 19.663 187.488C19.527 187.28 19.459 187.044 19.459 186.78H18.427C18.427 187.108 18.491 187.416 18.619 187.704C18.747 187.984 18.927 188.232 19.159 188.448C19.391 188.656 19.671 188.82 19.999 188.94C20.327 189.06 20.695 189.12 21.103 189.12ZM25.7578 184.8C25.7578 184.312 25.8058 183.864 25.9018 183.456C25.9978 183.04 26.1378 182.684 26.3218 182.388C26.5058 182.084 26.7258 181.852 26.9818 181.692C27.2458 181.524 27.5378 181.44 27.8578 181.44C28.1138 181.44 28.3498 181.496 28.5658 181.608C28.7898 181.712 28.9858 181.864 29.1538 182.064C29.3298 182.256 29.4738 182.492 29.5858 182.772C29.7058 183.052 29.7978 183.364 29.8618 183.708C29.9258 184.044 29.9578 184.408 29.9578 184.8C29.9578 185.288 29.9098 185.74 29.8138 186.156C29.7178 186.564 29.5778 186.92 29.3938 187.224C29.2098 187.52 28.9898 187.752 28.7338 187.92C28.4778 188.08 28.1858 188.16 27.8578 188.16C27.6018 188.16 27.3618 188.108 27.1378 188.004C26.9218 187.892 26.7258 187.74 26.5498 187.548C26.3818 187.348 26.2378 187.108 26.1178 186.828C26.0058 186.548 25.9178 186.24 25.8538 185.904C25.7898 185.56 25.7578 185.192 25.7578 184.8ZM24.7378 184.8C24.7378 185.304 24.7858 185.776 24.8818 186.216C24.9778 186.648 25.1178 187.044 25.3018 187.404C25.4858 187.764 25.7058 188.072 25.9618 188.328C26.2178 188.584 26.5058 188.78 26.8258 188.916C27.1458 189.052 27.4898 189.12 27.8578 189.12C28.3218 189.12 28.7418 189.016 29.1178 188.808C29.5018 188.592 29.8298 188.292 30.1018 187.908C30.3818 187.516 30.5978 187.056 30.7498 186.528C30.9018 186 30.9778 185.424 30.9778 184.8C30.9778 184.296 30.9298 183.828 30.8338 183.396C30.7378 182.956 30.5978 182.556 30.4138 182.196C30.2298 181.836 30.0098 181.528 29.7538 181.272C29.4978 181.016 29.2098 180.82 28.8898 180.684C28.5698 180.548 28.2258 180.48 27.8578 180.48C27.3938 180.48 26.9698 180.588 26.5858 180.804C26.2098 181.012 25.8818 181.312 25.6018 181.704C25.3298 182.088 25.1178 182.544 24.9658 183.072C24.8138 183.6 24.7378 184.176 24.7378 184.8Z" fill="black" fill-opacity="0.5"/>
<path d="M1.5 136.8C1.5 136.312 1.548 135.864 1.644 135.456C1.74 135.04 1.88 134.684 2.064 134.388C2.248 134.084 2.468 133.852 2.724 133.692C2.988 133.524 3.28 133.44 3.6 133.44C3.856 133.44 4.092 133.496 4.308 133.608C4.532 133.712 4.728 133.864 4.896 134.064C5.072 134.256 5.216 134.492 5.328 134.772C5.448 135.052 5.54 135.364 5.604 135.708C5.668 136.044 5.7 136.408 5.7 136.8C5.7 137.288 5.652 137.74 5.556 138.156C5.46 138.564 5.32 138.92 5.136 139.224C4.952 139.52 4.732 139.752 4.476 139.92C4.22 140.08 3.928 140.16 3.6 140.16C3.344 140.16 3.104 140.108 2.88 140.004C2.664 139.892 2.468 139.74 2.292 139.548C2.124 139.348 1.98 139.108 1.86 138.828C1.748 138.548 1.66 138.24 1.596 137.904C1.532 137.56 1.5 137.192 1.5 136.8ZM0.48 136.8C0.48 137.304 0.528 137.776 0.624 138.216C0.72 138.648 0.86 139.044 1.044 139.404C1.228 139.764 1.448 140.072 1.704 140.328C1.96 140.584 2.248 140.78 2.568 140.916C2.888 141.052 3.232 141.12 3.6 141.12C4.064 141.12 4.484 141.016 4.86 140.808C5.244 140.592 5.572 140.292 5.844 139.908C6.124 139.516 6.34 139.056 6.492 138.528C6.644 138 6.72 137.424 6.72 136.8C6.72 136.296 6.672 135.828 6.576 135.396C6.48 134.956 6.34 134.556 6.156 134.196C5.972 133.836 5.752 133.528 5.496 133.272C5.24 133.016 4.952 132.82 4.632 132.684C4.312 132.548 3.968 132.48 3.6 132.48C3.136 132.48 2.712 132.588 2.328 132.804C1.952 133.012 1.624 133.312 1.344 133.704C1.072 134.088 0.86 134.544 0.708 135.072C0.556 135.6 0.48 136.176 0.48 136.8ZM12.5353 135.36C12.5353 135.744 12.4513 136.084 12.2833 136.38C12.1233 136.676 11.8993 136.912 11.6113 137.088C11.3313 137.256 11.0113 137.34 10.6513 137.34C10.2913 137.34 9.96731 137.256 9.67931 137.088C9.39931 136.912 9.17531 136.676 9.00731 136.38C8.84731 136.084 8.76731 135.744 8.76731 135.36C8.76731 134.976 8.84731 134.64 9.00731 134.352C9.17531 134.056 9.39931 133.824 9.67931 133.656C9.96731 133.488 10.2913 133.404 10.6513 133.404C11.0113 133.404 11.3313 133.488 11.6113 133.656C11.8993 133.824 12.1233 134.056 12.2833 134.352C12.4513 134.64 12.5353 134.976 12.5353 135.36ZM10.1473 141L12.9793 137.1C13.1393 136.876 13.2673 136.616 13.3633 136.32C13.4593 136.024 13.5073 135.704 13.5073 135.36C13.5073 134.784 13.3793 134.28 13.1233 133.848C12.8753 133.416 12.5353 133.08 12.1033 132.84C11.6793 132.6 11.1953 132.48 10.6513 132.48C10.1153 132.48 9.63131 132.6 9.19931 132.84C8.76731 133.08 8.42331 133.416 8.16731 133.848C7.91931 134.28 7.79531 134.784 7.79531 135.36C7.79531 135.744 7.85931 136.104 7.98731 136.44C8.11531 136.768 8.29131 137.056 8.51531 137.304C8.74731 137.552 9.01131 137.744 9.30731 137.88C9.61131 138.016 9.93531 138.084 10.2793 138.084C10.5513 138.084 10.7913 138.052 10.9993 137.988C11.2153 137.924 11.4033 137.792 11.5633 137.592L11.4913 137.532L8.86331 141H10.1473ZM15.2494 140.52C15.2494 140.696 15.3134 140.852 15.4414 140.988C15.5774 141.116 15.7334 141.18 15.9094 141.18C16.0934 141.18 16.2494 141.116 16.3774 140.988C16.5054 140.852 16.5694 140.696 16.5694 140.52C16.5694 140.336 16.5054 140.18 16.3774 140.052C16.2494 139.924 16.0934 139.86 15.9094 139.86C15.7334 139.86 15.5774 139.924 15.4414 140.052C15.3134 140.18 15.2494 140.336 15.2494 140.52ZM15.2494 135.96C15.2494 136.136 15.3134 136.292 15.4414 136.428C15.5774 136.556 15.7334 136.62 15.9094 136.62C16.0934 136.62 16.2494 136.556 16.3774 136.428C16.5054 136.292 16.5694 136.136 16.5694 135.96C16.5694 135.776 16.5054 135.62 16.3774 135.492C16.2494 135.364 16.0934 135.3 15.9094 135.3C15.7334 135.3 15.5774 135.364 15.4414 135.492C15.3134 135.62 15.2494 135.776 15.2494 135.96ZM19.207 136.8C19.207 136.312 19.255 135.864 19.351 135.456C19.447 135.04 19.587 134.684 19.771 134.388C19.955 134.084 20.175 133.852 20.431 133.692C20.695 133.524 20.987 133.44 21.307 133.44C21.563 133.44 21.799 133.496 22.015 133.608C22.239 133.712 22.435 133.864 22.603 134.064C22.779 134.256 22.923 134.492 23.035 134.772C23.155 135.052 23.247 135.364 23.311 135.708C23.375 136.044 23.407 136.408 23.407 136.8C23.407 137.288 23.359 137.74 23.263 138.156C23.167 138.564 23.027 138.92 22.843 139.224C22.659 139.52 22.439 139.752 22.183 139.92C21.927 140.08 21.635 140.16 21.307 140.16C21.051 140.16 20.811 140.108 20.587 140.004C20.371 139.892 20.175 139.74 19.999 139.548C19.831 139.348 19.687 139.108 19.567 138.828C19.455 138.548 19.367 138.24 19.303 137.904C19.239 137.56 19.207 137.192 19.207 136.8ZM18.187 136.8C18.187 137.304 18.235 137.776 18.331 138.216C18.427 138.648 18.567 139.044 18.751 139.404C18.935 139.764 19.155 140.072 19.411 140.328C19.667 140.584 19.955 140.78 20.275 140.916C20.595 141.052 20.939 141.12 21.307 141.12C21.771 141.12 22.191 141.016 22.567 140.808C22.951 140.592 23.279 140.292 23.551 139.908C23.831 139.516 24.047 139.056 24.199 138.528C24.351 138 24.427 137.424 24.427 136.8C24.427 136.296 24.379 135.828 24.283 135.396C24.187 134.956 24.047 134.556 23.863 134.196C23.679 133.836 23.459 133.528 23.203 133.272C22.947 133.016 22.659 132.82 22.339 132.684C22.019 132.548 21.675 132.48 21.307 132.48C20.843 132.48 20.419 132.588 20.035 132.804C19.659 133.012 19.331 133.312 19.051 133.704C18.779 134.088 18.567 134.544 18.415 135.072C18.263 135.6 18.187 136.176 18.187 136.8ZM26.4023 136.8C26.4023 136.312 26.4503 135.864 26.5463 135.456C26.6423 135.04 26.7823 134.684 26.9663 134.388C27.1503 134.084 27.3703 133.852 27.6263 133.692C27.8903 133.524 28.1823 133.44 28.5023 133.44C28.7583 133.44 28.9943 133.496 29.2103 133.608C29.4343 133.712 29.6303 133.864 29.7983 134.064C29.9743 134.256 30.1183 134.492 30.2303 134.772C30.3503 135.052 30.4423 135.364 30.5063 135.708C30.5703 136.044 30.6023 136.408 30.6023 136.8C30.6023 137.288 30.5543 137.74 30.4583 138.156C30.3623 138.564 30.2223 138.92 30.0383 139.224C29.8543 139.52 29.6343 139.752 29.3783 139.92C29.1223 140.08 28.8303 140.16 28.5023 140.16C28.2463 140.16 28.0063 140.108 27.7823 140.004C27.5663 139.892 27.3703 139.74 27.1943 139.548C27.0263 139.348 26.8823 139.108 26.7623 138.828C26.6503 138.548 26.5623 138.24 26.4983 137.904C26.4343 137.56 26.4023 137.192 26.4023 136.8ZM25.3823 136.8C25.3823 137.304 25.4303 137.776 25.5263 138.216C25.6223 138.648 25.7623 139.044 25.9463 139.404C26.1303 139.764 26.3503 140.072 26.6063 140.328C26.8623 140.584 27.1503 140.78 27.4703 140.916C27.7903 141.052 28.1343 141.12 28.5023 141.12C28.9663 141.12 29.3863 141.016 29.7623 140.808C30.1463 140.592 30.4743 140.292 30.7463 139.908C31.0263 139.516 31.2423 139.056 31.3943 138.528C31.5463 138 31.6223 137.424 31.6223 136.8C31.6223 136.296 31.5743 135.828 31.4783 135.396C31.3823 134.956 31.2423 134.556 31.0583 134.196C30.8743 133.836 30.6543 133.528 30.3983 133.272C30.1423 133.016 29.8543 132.82 29.5343 132.684C29.2143 132.548 28.8703 132.48 28.5023 132.48C28.0383 132.48 27.6143 132.588 27.2303 132.804C26.8543 133.012 26.5263 133.312 26.2463 133.704C25.9743 134.088 25.7623 134.544 25.6103 135.072C25.4583 135.6 25.3823 136.176 25.3823 136.8Z" fill="black" fill-opacity="0.5"/>
<path d="M1.5 88.8C1.5 88.312 1.548 87.864 1.644 87.456C1.74 87.04 1.88 86.684 2.064 86.388C2.248 86.084 2.468 85.852 2.724 85.692C2.988 85.524 3.28 85.44 3.6 85.44C3.856 85.44 4.092 85.496 4.308 85.608C4.532 85.712 4.728 85.864 4.896 86.064C5.072 86.256 5.216 86.492 5.328 86.772C5.448 87.052 5.54 87.364 5.604 87.708C5.668 88.044 5.7 88.408 5.7 88.8C5.7 89.288 5.652 89.74 5.556 90.156C5.46 90.564 5.32 90.92 5.136 91.224C4.952 91.52 4.732 91.752 4.476 91.92C4.22 92.08 3.928 92.16 3.6 92.16C3.344 92.16 3.104 92.108 2.88 92.004C2.664 91.892 2.468 91.74 2.292 91.548C2.124 91.348 1.98 91.108 1.86 90.828C1.748 90.548 1.66 90.24 1.596 89.904C1.532 89.56 1.5 89.192 1.5 88.8ZM0.48 88.8C0.48 89.304 0.528 89.776 0.624 90.216C0.72 90.648 0.86 91.044 1.044 91.404C1.228 91.764 1.448 92.072 1.704 92.328C1.96 92.584 2.248 92.78 2.568 92.916C2.888 93.052 3.232 93.12 3.6 93.12C4.064 93.12 4.484 93.016 4.86 92.808C5.244 92.592 5.572 92.292 5.844 91.908C6.124 91.516 6.34 91.056 6.492 90.528C6.644 90 6.72 89.424 6.72 88.8C6.72 88.296 6.672 87.828 6.576 87.396C6.48 86.956 6.34 86.556 6.156 86.196C5.972 85.836 5.752 85.528 5.496 85.272C5.24 85.016 4.952 84.82 4.632 84.684C4.312 84.548 3.968 84.48 3.6 84.48C3.136 84.48 2.712 84.588 2.328 84.804C1.952 85.012 1.624 85.312 1.344 85.704C1.072 86.088 0.86 86.544 0.708 87.072C0.556 87.6 0.48 88.176 0.48 88.8ZM8.15531 86.628C8.15531 86.956 8.21131 87.252 8.32331 87.516C8.43531 87.772 8.59131 87.992 8.79131 88.176C8.99931 88.36 9.24331 88.5 9.52331 88.596C9.81131 88.692 10.1273 88.74 10.4713 88.74C10.8153 88.74 11.1273 88.692 11.4073 88.596C11.6953 88.5 11.9393 88.36 12.1393 88.176C12.3473 87.992 12.5073 87.772 12.6193 87.516C12.7313 87.252 12.7873 86.956 12.7873 86.628C12.7873 86.332 12.7273 86.056 12.6073 85.8C12.4953 85.536 12.3353 85.308 12.1273 85.116C11.9193 84.916 11.6713 84.76 11.3833 84.648C11.1033 84.536 10.7993 84.48 10.4713 84.48C10.0313 84.48 9.63531 84.576 9.28331 84.768C8.93931 84.96 8.66331 85.22 8.45531 85.548C8.25531 85.868 8.15531 86.228 8.15531 86.628ZM9.12731 86.748C9.12731 86.484 9.18331 86.248 9.29531 86.04C9.41531 85.832 9.57531 85.672 9.77531 85.56C9.98331 85.44 10.2153 85.38 10.4713 85.38C10.7353 85.38 10.9673 85.44 11.1673 85.56C11.3673 85.672 11.5233 85.832 11.6353 86.04C11.7553 86.248 11.8153 86.484 11.8153 86.748C11.8153 87.012 11.7513 87.244 11.6233 87.444C11.5033 87.644 11.3393 87.8 11.1313 87.912C10.9313 88.024 10.7113 88.08 10.4713 88.08C10.2313 88.08 10.0073 88.024 9.79931 87.912C9.59931 87.8 9.43531 87.644 9.30731 87.444C9.18731 87.244 9.12731 87.012 9.12731 86.748ZM7.85531 90.72C7.85531 91.048 7.91931 91.356 8.04731 91.644C8.18331 91.932 8.36731 92.188 8.59931 92.412C8.83931 92.636 9.11531 92.812 9.42731 92.94C9.74731 93.06 10.0953 93.12 10.4713 93.12C10.8473 93.12 11.1913 93.06 11.5033 92.94C11.8233 92.812 12.0993 92.636 12.3313 92.412C12.5713 92.188 12.7553 91.932 12.8833 91.644C13.0193 91.356 13.0873 91.048 13.0873 90.72C13.0873 90.336 13.0153 89.996 12.8713 89.7C12.7353 89.396 12.5433 89.144 12.2953 88.944C12.0553 88.736 11.7753 88.58 11.4553 88.476C11.1433 88.372 10.8153 88.32 10.4713 88.32C10.1273 88.32 9.79531 88.372 9.47531 88.476C9.16331 88.58 8.88331 88.736 8.63531 88.944C8.39531 89.144 8.20331 89.396 8.05931 89.7C7.92331 89.996 7.85531 90.336 7.85531 90.72ZM8.82731 90.6C8.82731 90.296 8.90331 90.024 9.05531 89.784C9.21531 89.536 9.41931 89.34 9.66731 89.196C9.92331 89.052 10.1913 88.98 10.4713 88.98C10.7513 88.98 11.0153 89.052 11.2633 89.196C11.5193 89.34 11.7233 89.536 11.8753 89.784C12.0353 90.024 12.1153 90.296 12.1153 90.6C12.1153 90.944 12.0353 91.236 11.8753 91.476C11.7233 91.716 11.5193 91.9 11.2633 92.028C11.0153 92.156 10.7513 92.22 10.4713 92.22C10.1913 92.22 9.92331 92.156 9.66731 92.028C9.41931 91.9 9.21531 91.716 9.05531 91.476C8.90331 91.236 8.82731 90.944 8.82731 90.6ZM14.8861 92.52C14.8861 92.696 14.9501 92.852 15.0781 92.988C15.2141 93.116 15.3701 93.18 15.5461 93.18C15.7301 93.18 15.8861 93.116 16.0141 92.988C16.1421 92.852 16.2061 92.696 16.2061 92.52C16.2061 92.336 16.1421 92.18 16.0141 92.052C15.8861 91.924 15.7301 91.86 15.5461 91.86C15.3701 91.86 15.2141 91.924 15.0781 92.052C14.9501 92.18 14.8861 92.336 14.8861 92.52ZM14.8861 87.96C14.8861 88.136 14.9501 88.292 15.0781 88.428C15.2141 88.556 15.3701 88.62 15.5461 88.62C15.7301 88.62 15.8861 88.556 16.0141 88.428C16.1421 88.292 16.2061 88.136 16.2061 87.96C16.2061 87.776 16.1421 87.62 16.0141 87.492C15.8861 87.364 15.7301 87.3 15.5461 87.3C15.3701 87.3 15.2141 87.364 15.0781 87.492C14.9501 87.62 14.8861 87.776 14.8861 87.96ZM20.3798 88.86C20.7878 88.86 21.1558 88.804 21.4838 88.692C21.8198 88.58 22.1078 88.428 22.3478 88.236C22.5958 88.036 22.7838 87.808 22.9118 87.552C23.0478 87.288 23.1158 87.008 23.1158 86.712C23.1158 86.312 23.0198 85.944 22.8278 85.608C22.6438 85.272 22.3758 85 22.0238 84.792C21.6798 84.584 21.2678 84.48 20.7878 84.48C20.3318 84.48 19.9238 84.576 19.5638 84.768C19.2118 84.952 18.9318 85.208 18.7238 85.536C18.5238 85.864 18.4238 86.248 18.4238 86.688H19.3958C19.3958 86.44 19.4558 86.22 19.5758 86.028C19.7038 85.836 19.8718 85.684 20.0798 85.572C20.2958 85.46 20.5358 85.404 20.7998 85.404C21.0798 85.404 21.3118 85.46 21.4958 85.572C21.6878 85.684 21.8318 85.844 21.9278 86.052C22.0238 86.252 22.0718 86.484 22.0718 86.748C22.0718 86.948 22.0318 87.136 21.9518 87.312C21.8798 87.488 21.7718 87.644 21.6278 87.78C21.4838 87.908 21.3078 88.012 21.0998 88.092C20.8918 88.164 20.6518 88.2 20.3798 88.2V88.86ZM20.7398 93.12C21.2438 93.12 21.6918 93.024 22.0838 92.832C22.4758 92.64 22.7838 92.368 23.0078 92.016C23.2398 91.664 23.3558 91.252 23.3558 90.78C23.3558 90.364 23.2758 90.008 23.1158 89.712C22.9638 89.416 22.7478 89.176 22.4678 88.992C22.1958 88.8 21.8798 88.66 21.5198 88.572C21.1678 88.484 20.7878 88.44 20.3798 88.44V89.1C20.6518 89.1 20.9038 89.132 21.1358 89.196C21.3678 89.26 21.5718 89.36 21.7478 89.496C21.9238 89.624 22.0598 89.788 22.1558 89.988C22.2598 90.18 22.3118 90.404 22.3118 90.66C22.3118 90.964 22.2478 91.228 22.1198 91.452C21.9918 91.676 21.8078 91.852 21.5678 91.98C21.3358 92.1 21.0598 92.16 20.7398 92.16C20.4198 92.16 20.1358 92.1 19.8878 91.98C19.6398 91.86 19.4438 91.696 19.2998 91.488C19.1638 91.28 19.0958 91.044 19.0958 90.78H18.0638C18.0638 91.108 18.1278 91.416 18.2558 91.704C18.3838 91.984 18.5638 92.232 18.7958 92.448C19.0278 92.656 19.3078 92.82 19.6358 92.94C19.9638 93.06 20.3318 93.12 20.7398 93.12ZM25.3945 88.8C25.3945 88.312 25.4425 87.864 25.5385 87.456C25.6345 87.04 25.7745 86.684 25.9585 86.388C26.1425 86.084 26.3625 85.852 26.6185 85.692C26.8825 85.524 27.1745 85.44 27.4945 85.44C27.7505 85.44 27.9865 85.496 28.2025 85.608C28.4265 85.712 28.6225 85.864 28.7905 86.064C28.9665 86.256 29.1105 86.492 29.2225 86.772C29.3425 87.052 29.4345 87.364 29.4985 87.708C29.5625 88.044 29.5945 88.408 29.5945 88.8C29.5945 89.288 29.5465 89.74 29.4505 90.156C29.3545 90.564 29.2145 90.92 29.0305 91.224C28.8465 91.52 28.6265 91.752 28.3705 91.92C28.1145 92.08 27.8225 92.16 27.4945 92.16C27.2385 92.16 26.9985 92.108 26.7745 92.004C26.5585 91.892 26.3625 91.74 26.1865 91.548C26.0185 91.348 25.8745 91.108 25.7545 90.828C25.6425 90.548 25.5545 90.24 25.4905 89.904C25.4265 89.56 25.3945 89.192 25.3945 88.8ZM24.3745 88.8C24.3745 89.304 24.4225 89.776 24.5185 90.216C24.6145 90.648 24.7545 91.044 24.9385 91.404C25.1225 91.764 25.3425 92.072 25.5985 92.328C25.8545 92.584 26.1425 92.78 26.4625 92.916C26.7825 93.052 27.1265 93.12 27.4945 93.12C27.9585 93.12 28.3785 93.016 28.7545 92.808C29.1385 92.592 29.4665 92.292 29.7385 91.908C30.0185 91.516 30.2345 91.056 30.3865 90.528C30.5385 90 30.6145 89.424 30.6145 88.8C30.6145 88.296 30.5665 87.828 30.4705 87.396C30.3745 86.956 30.2345 86.556 30.0505 86.196C29.8665 85.836 29.6465 85.528 29.3905 85.272C29.1345 85.016 28.8465 84.82 28.5265 84.684C28.2065 84.548 27.8625 84.48 27.4945 84.48C27.0305 84.48 26.6065 84.588 26.2225 84.804C25.8465 85.012 25.5185 85.312 25.2385 85.704C24.9665 86.088 24.7545 86.544 24.6025 87.072C24.4505 87.6 24.3745 88.176 24.3745 88.8Z" fill="black" fill-opacity="0.5"/>
<path d="M1.5 40.8C1.5 40.312 1.548 39.864 1.644 39.456C1.74 39.04 1.88 38.684 2.064 38.388C2.248 38.084 2.468 37.852 2.724 37.692C2.988 37.524 3.28 37.44 3.6 37.44C3.856 37.44 4.092 37.496 4.308 37.608C4.532 37.712 4.728 37.864 4.896 38.064C5.072 38.256 5.216 38.492 5.328 38.772C5.448 39.052 5.54 39.364 5.604 39.708C5.668 40.044 5.7 40.408 5.7 40.8C5.7 41.288 5.652 41.74 5.556 42.156C5.46 42.564 5.32 42.92 5.136 43.224C4.952 43.52 4.732 43.752 4.476 43.92C4.22 44.08 3.928 44.16 3.6 44.16C3.344 44.16 3.104 44.108 2.88 44.004C2.664 43.892 2.468 43.74 2.292 43.548C2.124 43.348 1.98 43.108 1.86 42.828C1.748 42.548 1.66 42.24 1.596 41.904C1.532 41.56 1.5 41.192 1.5 40.8ZM0.48 40.8C0.48 41.304 0.528 41.776 0.624 42.216C0.72 42.648 0.86 43.044 1.044 43.404C1.228 43.764 1.448 44.072 1.704 44.328C1.96 44.584 2.248 44.78 2.568 44.916C2.888 45.052 3.232 45.12 3.6 45.12C4.064 45.12 4.484 45.016 4.86 44.808C5.244 44.592 5.572 44.292 5.844 43.908C6.124 43.516 6.34 43.056 6.492 42.528C6.644 42 6.72 41.424 6.72 40.8C6.72 40.296 6.672 39.828 6.576 39.396C6.48 38.956 6.34 38.556 6.156 38.196C5.972 37.836 5.752 37.528 5.496 37.272C5.24 37.016 4.952 36.82 4.632 36.684C4.312 36.548 3.968 36.48 3.6 36.48C3.136 36.48 2.712 36.588 2.328 36.804C1.952 37.012 1.624 37.312 1.344 37.704C1.072 38.088 0.86 38.544 0.708 39.072C0.556 39.6 0.48 40.176 0.48 40.8ZM8.15531 38.628C8.15531 38.956 8.21131 39.252 8.32331 39.516C8.43531 39.772 8.59131 39.992 8.79131 40.176C8.99931 40.36 9.24331 40.5 9.52331 40.596C9.81131 40.692 10.1273 40.74 10.4713 40.74C10.8153 40.74 11.1273 40.692 11.4073 40.596C11.6953 40.5 11.9393 40.36 12.1393 40.176C12.3473 39.992 12.5073 39.772 12.6193 39.516C12.7313 39.252 12.7873 38.956 12.7873 38.628C12.7873 38.332 12.7273 38.056 12.6073 37.8C12.4953 37.536 12.3353 37.308 12.1273 37.116C11.9193 36.916 11.6713 36.76 11.3833 36.648C11.1033 36.536 10.7993 36.48 10.4713 36.48C10.0313 36.48 9.63531 36.576 9.28331 36.768C8.93931 36.96 8.66331 37.22 8.45531 37.548C8.25531 37.868 8.15531 38.228 8.15531 38.628ZM9.12731 38.748C9.12731 38.484 9.18331 38.248 9.29531 38.04C9.41531 37.832 9.57531 37.672 9.77531 37.56C9.98331 37.44 10.2153 37.38 10.4713 37.38C10.7353 37.38 10.9673 37.44 11.1673 37.56C11.3673 37.672 11.5233 37.832 11.6353 38.04C11.7553 38.248 11.8153 38.484 11.8153 38.748C11.8153 39.012 11.7513 39.244 11.6233 39.444C11.5033 39.644 11.3393 39.8 11.1313 39.912C10.9313 40.024 10.7113 40.08 10.4713 40.08C10.2313 40.08 10.0073 40.024 9.79931 39.912C9.59931 39.8 9.43531 39.644 9.30731 39.444C9.18731 39.244 9.12731 39.012 9.12731 38.748ZM7.85531 42.72C7.85531 43.048 7.91931 43.356 8.04731 43.644C8.18331 43.932 8.36731 44.188 8.59931 44.412C8.83931 44.636 9.11531 44.812 9.42731 44.94C9.74731 45.06 10.0953 45.12 10.4713 45.12C10.8473 45.12 11.1913 45.06 11.5033 44.94C11.8233 44.812 12.0993 44.636 12.3313 44.412C12.5713 44.188 12.7553 43.932 12.8833 43.644C13.0193 43.356 13.0873 43.048 13.0873 42.72C13.0873 42.336 13.0153 41.996 12.8713 41.7C12.7353 41.396 12.5433 41.144 12.2953 40.944C12.0553 40.736 11.7753 40.58 11.4553 40.476C11.1433 40.372 10.8153 40.32 10.4713 40.32C10.1273 40.32 9.79531 40.372 9.47531 40.476C9.16331 40.58 8.88331 40.736 8.63531 40.944C8.39531 41.144 8.20331 41.396 8.05931 41.7C7.92331 41.996 7.85531 42.336 7.85531 42.72ZM8.82731 42.6C8.82731 42.296 8.90331 42.024 9.05531 41.784C9.21531 41.536 9.41931 41.34 9.66731 41.196C9.92331 41.052 10.1913 40.98 10.4713 40.98C10.7513 40.98 11.0153 41.052 11.2633 41.196C11.5193 41.34 11.7233 41.536 11.8753 41.784C12.0353 42.024 12.1153 42.296 12.1153 42.6C12.1153 42.944 12.0353 43.236 11.8753 43.476C11.7233 43.716 11.5193 43.9 11.2633 44.028C11.0153 44.156 10.7513 44.22 10.4713 44.22C10.1913 44.22 9.92331 44.156 9.66731 44.028C9.41931 43.9 9.21531 43.716 9.05531 43.476C8.90331 43.236 8.82731 42.944 8.82731 42.6ZM14.8861 44.52C14.8861 44.696 14.9501 44.852 15.0781 44.988C15.2141 45.116 15.3701 45.18 15.5461 45.18C15.7301 45.18 15.8861 45.116 16.0141 44.988C16.1421 44.852 16.2061 44.696 16.2061 44.52C16.2061 44.336 16.1421 44.18 16.0141 44.052C15.8861 43.924 15.7301 43.86 15.5461 43.86C15.3701 43.86 15.2141 43.924 15.0781 44.052C14.9501 44.18 14.8861 44.336 14.8861 44.52ZM14.8861 39.96C14.8861 40.136 14.9501 40.292 15.0781 40.428C15.2141 40.556 15.3701 40.62 15.5461 40.62C15.7301 40.62 15.8861 40.556 16.0141 40.428C16.1421 40.292 16.2061 40.136 16.2061 39.96C16.2061 39.776 16.1421 39.62 16.0141 39.492C15.8861 39.364 15.7301 39.3 15.5461 39.3C15.3701 39.3 15.2141 39.364 15.0781 39.492C14.9501 39.62 14.8861 39.776 14.8861 39.96ZM18.8438 40.8C18.8438 40.312 18.8918 39.864 18.9878 39.456C19.0838 39.04 19.2238 38.684 19.4078 38.388C19.5918 38.084 19.8118 37.852 20.0678 37.692C20.3318 37.524 20.6238 37.44 20.9438 37.44C21.1998 37.44 21.4358 37.496 21.6518 37.608C21.8758 37.712 22.0718 37.864 22.2398 38.064C22.4158 38.256 22.5598 38.492 22.6718 38.772C22.7918 39.052 22.8838 39.364 22.9478 39.708C23.0118 40.044 23.0438 40.408 23.0438 40.8C23.0438 41.288 22.9958 41.74 22.8998 42.156C22.8038 42.564 22.6638 42.92 22.4798 43.224C22.2958 43.52 22.0758 43.752 21.8198 43.92C21.5638 44.08 21.2718 44.16 20.9438 44.16C20.6878 44.16 20.4478 44.108 20.2238 44.004C20.0078 43.892 19.8118 43.74 19.6358 43.548C19.4678 43.348 19.3238 43.108 19.2038 42.828C19.0918 42.548 19.0038 42.24 18.9398 41.904C18.8758 41.56 18.8438 41.192 18.8438 40.8ZM17.8238 40.8C17.8238 41.304 17.8718 41.776 17.9678 42.216C18.0638 42.648 18.2038 43.044 18.3878 43.404C18.5718 43.764 18.7918 44.072 19.0478 44.328C19.3038 44.584 19.5918 44.78 19.9118 44.916C20.2318 45.052 20.5758 45.12 20.9438 45.12C21.4078 45.12 21.8278 45.016 22.2038 44.808C22.5878 44.592 22.9158 44.292 23.1878 43.908C23.4678 43.516 23.6838 43.056 23.8358 42.528C23.9878 42 24.0638 41.424 24.0638 40.8C24.0638 40.296 24.0158 39.828 23.9198 39.396C23.8238 38.956 23.6838 38.556 23.4998 38.196C23.3158 37.836 23.0958 37.528 22.8398 37.272C22.5838 37.016 22.2958 36.82 21.9758 36.684C21.6558 36.548 21.3118 36.48 20.9438 36.48C20.4798 36.48 20.0558 36.588 19.6718 36.804C19.2958 37.012 18.9678 37.312 18.6878 37.704C18.4158 38.088 18.2038 38.544 18.0518 39.072C17.8998 39.6 17.8238 40.176 17.8238 40.8ZM26.0391 40.8C26.0391 40.312 26.0871 39.864 26.1831 39.456C26.2791 39.04 26.4191 38.684 26.6031 38.388C26.7871 38.084 27.0071 37.852 27.2631 37.692C27.5271 37.524 27.8191 37.44 28.1391 37.44C28.3951 37.44 28.6311 37.496 28.8471 37.608C29.0711 37.712 29.2671 37.864 29.4351 38.064C29.6111 38.256 29.7551 38.492 29.8671 38.772C29.9871 39.052 30.0791 39.364 30.1431 39.708C30.2071 40.044 30.2391 40.408 30.2391 40.8C30.2391 41.288 30.1911 41.74 30.0951 42.156C29.9991 42.564 29.8591 42.92 29.6751 43.224C29.4911 43.52 29.2711 43.752 29.0151 43.92C28.7591 44.08 28.4671 44.16 28.1391 44.16C27.8831 44.16 27.6431 44.108 27.4191 44.004C27.2031 43.892 27.0071 43.74 26.8311 43.548C26.6631 43.348 26.5191 43.108 26.3991 42.828C26.2871 42.548 26.1991 42.24 26.1351 41.904C26.0711 41.56 26.0391 41.192 26.0391 40.8ZM25.0191 40.8C25.0191 41.304 25.0671 41.776 25.1631 42.216C25.2591 42.648 25.3991 43.044 25.5831 43.404C25.7671 43.764 25.9871 44.072 26.2431 44.328C26.4991 44.584 26.7871 44.78 27.1071 44.916C27.4271 45.052 27.7711 45.12 28.1391 45.12C28.6031 45.12 29.0231 45.016 29.3991 44.808C29.7831 44.592 30.1111 44.292 30.3831 43.908C30.6631 43.516 30.8791 43.056 31.0311 42.528C31.1831 42 31.2591 41.424 31.2591 40.8C31.2591 40.296 31.2111 39.828 31.1151 39.396C31.0191 38.956 30.8791 38.556 30.6951 38.196C30.5111 37.836 30.2911 37.528 30.0351 37.272C29.7791 37.016 29.4911 36.82 29.1711 36.684C28.8511 36.548 28.5071 36.48 28.1391 36.48C27.6751 36.48 27.2511 36.588 26.8671 36.804C26.4911 37.012 26.1631 37.312 25.8831 37.704C25.6111 38.088 25.3991 38.544 25.2471 39.072C25.0951 39.6 25.0191 40.176 25.0191 40.8Z" fill="black" fill-opacity="0.5"/>
<path fill-rule="evenodd" clip-rule="evenodd" d="M10.5273 3.52827L12.5273 1.52827C12.7876 1.26792 13.2098 1.26792 13.4701 1.52827C13.7305 1.78862 13.7305 2.21073 13.4701 2.47108L11.4701 4.47108C11.2098 4.73143 10.7876 4.73143 10.5273 4.47108C10.2669 4.21073 10.2669 3.78862 10.5273 3.52827ZM21.4701 1.52827L23.4701 3.52827C23.7305 3.78862 23.7305 4.21073 23.4701 4.47108C23.2098 4.73143 22.7876 4.73143 22.5273 4.47108L20.5273 2.47108C20.2669 2.21073 20.2669 1.78862 20.5273 1.52827C20.7876 1.26792 21.2098 1.26792 21.4701 1.52827ZM16.9987 14.6663C20.3124 14.6663 22.9987 11.9801 22.9987 8.66634C22.9987 5.35263 20.3124 2.66634 16.9987 2.66634C13.685 2.66634 10.9987 5.35263 10.9987 8.66634C10.9987 11.9801 13.685 14.6663 16.9987 14.6663ZM16.9987 13.333C14.4214 13.333 12.332 11.2437 12.332 8.66634C12.332 6.08901 14.4214 3.99967 16.9987 3.99967C19.576 3.99967 21.6654 6.08901 21.6654 8.66634C21.6654 11.2437 19.576 13.333 16.9987 13.333ZM16.9987 5.33301C17.3669 5.33301 17.6654 5.63148 17.6654 5.99967V7.72353L18.8034 8.8616C19.0638 9.12195 19.0638 9.54406 18.8034 9.80441C18.5431 10.0648 18.121 10.0648 17.8606 9.80441L16.5273 8.47108C16.4023 8.34605 16.332 8.17649 16.332 7.99967V5.99967C16.332 5.63148 16.6305 5.33301 16.9987 5.33301Z" fill="black"/>
</svg>
