<svg width="1080" height="27" viewBox="0 0 1080 27" fill="none" xmlns="http://www.w3.org/2000/svg">
<path d="M59.6736 11H65.6016V10.04H61.7736L64.4496 7.316C64.7776 6.98 65.0456 6.6 65.2536 6.176C65.4616 5.752 65.5656 5.324 65.5656 4.892C65.5656 4.636 65.5136 4.368 65.4096 4.088C65.3056 3.808 65.1456 3.548 64.9296 3.308C64.7136 3.06 64.4376 2.86 64.1016 2.708C63.7656 2.548 63.3656 2.468 62.9016 2.468C62.3256 2.468 61.8296 2.596 61.4136 2.852C61.0056 3.1 60.6936 3.452 60.4776 3.908C60.2616 4.356 60.1536 4.88 60.1536 5.48H61.1736C61.1736 5.056 61.2416 4.692 61.3776 4.388C61.5136 4.076 61.7096 3.84 61.9656 3.68C62.2296 3.512 62.5416 3.428 62.9016 3.428C63.1576 3.428 63.3856 3.472 63.5856 3.56C63.7856 3.648 63.9536 3.764 64.0896 3.908C64.2336 4.052 64.3416 4.212 64.4136 4.388C64.4856 4.564 64.5216 4.744 64.5216 4.928C64.5216 5.152 64.4856 5.368 64.4136 5.576C64.3496 5.776 64.2496 5.976 64.1136 6.176C63.9856 6.368 63.8296 6.564 63.6456 6.764L59.6736 11ZM66.6256 3.56H70.9816L67.4176 11H68.4856L72.5056 2.6H66.6256V3.56ZM72.515 10.52C72.515 10.696 72.579 10.852 72.707 10.988C72.843 11.116 72.999 11.18 73.175 11.18C73.359 11.18 73.515 11.116 73.643 10.988C73.771 10.852 73.835 10.696 73.835 10.52C73.835 10.336 73.771 10.18 73.643 10.052C73.515 9.924 73.359 9.86 73.175 9.86C72.999 9.86 72.843 9.924 72.707 10.052C72.579 10.18 72.515 10.336 72.515 10.52ZM76.4727 6.8C76.4727 6.312 76.5207 5.864 76.6167 5.456C76.7127 5.04 76.8527 4.684 77.0367 4.388C77.2207 4.084 77.4407 3.852 77.6967 3.692C77.9607 3.524 78.2527 3.44 78.5727 3.44C78.8287 3.44 79.0647 3.496 79.2807 3.608C79.5047 3.712 79.7007 3.864 79.8687 4.064C80.0447 4.256 80.1887 4.492 80.3007 4.772C80.4207 5.052 80.5127 5.364 80.5767 5.708C80.6407 6.044 80.6727 6.408 80.6727 6.8C80.6727 7.288 80.6247 7.74 80.5287 8.156C80.4327 8.564 80.2927 8.92 80.1087 9.224C79.9247 9.52 79.7047 9.752 79.4487 9.92C79.1927 10.08 78.9007 10.16 78.5727 10.16C78.3167 10.16 78.0767 10.108 77.8527 10.004C77.6367 9.892 77.4407 9.74 77.2647 9.548C77.0967 9.348 76.9527 9.108 76.8327 8.828C76.7207 8.548 76.6327 8.24 76.5687 7.904C76.5047 7.56 76.4727 7.192 76.4727 6.8ZM75.4527 6.8C75.4527 7.304 75.5007 7.776 75.5967 8.216C75.6927 8.648 75.8327 9.044 76.0167 9.404C76.2007 9.764 76.4207 10.072 76.6767 10.328C76.9327 10.584 77.2207 10.78 77.5407 10.916C77.8607 11.052 78.2047 11.12 78.5727 11.12C79.0367 11.12 79.4567 11.016 79.8327 10.808C80.2167 10.592 80.5447 10.292 80.8167 9.908C81.0967 9.516 81.3127 9.056 81.4647 8.528C81.6167 8 81.6927 7.424 81.6927 6.8C81.6927 6.296 81.6447 5.828 81.5487 5.396C81.4527 4.956 81.3127 4.556 81.1287 4.196C80.9447 3.836 80.7247 3.528 80.4687 3.272C80.2127 3.016 79.9247 2.82 79.6047 2.684C79.2847 2.548 78.9407 2.48 78.5727 2.48C78.1087 2.48 77.6847 2.588 77.3007 2.804C76.9247 3.012 76.5967 3.312 76.3167 3.704C76.0447 4.088 75.8327 4.544 75.6807 5.072C75.5287 5.6 75.4527 6.176 75.4527 6.8ZM82.528 3.56H86.884L83.32 11H84.388L88.408 2.6H82.528V3.56ZM89.0533 9.68L87.9973 12.788L88.6933 13.04L90.0133 10.04L89.0533 9.68Z" fill="black"/>
<path d="M47.2836 16.56V24H48.3036V15.6H41.6436V24H42.6636V16.56H47.2836ZM49.6817 21.24C49.6817 21.792 49.8057 22.288 50.0537 22.728C50.3097 23.16 50.6537 23.5 51.0857 23.748C51.5177 23.996 52.0017 24.12 52.5377 24.12C53.0817 24.12 53.5657 23.996 53.9897 23.748C54.4217 23.5 54.7617 23.16 55.0097 22.728C55.2657 22.288 55.3937 21.792 55.3937 21.24C55.3937 20.68 55.2657 20.184 55.0097 19.752C54.7617 19.32 54.4217 18.98 53.9897 18.732C53.5657 18.484 53.0817 18.36 52.5377 18.36C52.0017 18.36 51.5177 18.484 51.0857 18.732C50.6537 18.98 50.3097 19.32 50.0537 19.752C49.8057 20.184 49.6817 20.68 49.6817 21.24ZM50.6537 21.24C50.6537 20.856 50.7337 20.516 50.8937 20.22C51.0617 19.916 51.2857 19.68 51.5657 19.512C51.8537 19.344 52.1777 19.26 52.5377 19.26C52.8977 19.26 53.2177 19.344 53.4977 19.512C53.7857 19.68 54.0097 19.916 54.1697 20.22C54.3377 20.516 54.4217 20.856 54.4217 21.24C54.4217 21.624 54.3377 21.964 54.1697 22.26C54.0097 22.556 53.7857 22.792 53.4977 22.968C53.2177 23.136 52.8977 23.22 52.5377 23.22C52.1777 23.22 51.8537 23.136 51.5657 22.968C51.2857 22.792 51.0617 22.556 50.8937 22.26C50.7337 21.964 50.6537 21.624 50.6537 21.24ZM57.2765 21.54H61.3565V20.64H57.2765V21.54ZM60.7325 18.48V24H61.6925V18.48H60.7325ZM56.7125 18.48V24H57.6725V18.48H56.7125ZM63.6297 21.48H68.3457C68.3537 21.432 68.3577 21.384 68.3577 21.336C68.3577 21.288 68.3577 21.24 68.3577 21.192C68.3577 20.608 68.2497 20.108 68.0337 19.692C67.8177 19.268 67.5137 18.94 67.1217 18.708C66.7297 18.476 66.2737 18.36 65.7537 18.36C65.2817 18.36 64.8537 18.456 64.4697 18.648C64.0937 18.84 63.7857 19.108 63.5457 19.452C63.3057 19.796 63.1457 20.196 63.0657 20.652C63.0497 20.748 63.0377 20.844 63.0297 20.94C63.0217 21.036 63.0177 21.136 63.0177 21.24C63.0177 21.792 63.1297 22.288 63.3537 22.728C63.5857 23.16 63.8977 23.5 64.2897 23.748C64.6897 23.996 65.1377 24.12 65.6337 24.12C66.1137 24.12 66.5137 24.064 66.8337 23.952C67.1537 23.832 67.4257 23.668 67.6497 23.46C67.8737 23.244 68.0777 22.996 68.2617 22.716L67.4817 22.224C67.3617 22.424 67.2177 22.6 67.0497 22.752C66.8817 22.896 66.6897 23.012 66.4737 23.1C66.2657 23.18 66.0257 23.22 65.7537 23.22C65.3937 23.22 65.0817 23.144 64.8177 22.992C64.5537 22.84 64.3497 22.616 64.2057 22.32C64.0617 22.024 63.9897 21.664 63.9897 21.24L64.0137 20.88C64.0137 20.536 64.0897 20.24 64.2417 19.992C64.4017 19.736 64.6137 19.54 64.8777 19.404C65.1417 19.268 65.4337 19.2 65.7537 19.2C66.0737 19.2 66.3417 19.264 66.5577 19.392C66.7817 19.512 66.9537 19.684 67.0737 19.908C67.2017 20.124 67.2817 20.376 67.3137 20.664H63.6297V21.48ZM72.0758 20.136L73.6958 23.64H74.7758L72.0758 18.06L69.3758 23.64H70.4558L72.0758 20.136ZM74.5358 24V25.08H75.4958V23.1H68.6558V25.08H69.6758V24H74.5358ZM77.0711 21.48H81.7871C81.7951 21.432 81.7991 21.384 81.7991 21.336C81.7991 21.288 81.7991 21.24 81.7991 21.192C81.7991 20.608 81.6911 20.108 81.4751 19.692C81.2591 19.268 80.9551 18.94 80.5631 18.708C80.1711 18.476 79.7151 18.36 79.1951 18.36C78.7231 18.36 78.2951 18.456 77.9111 18.648C77.5351 18.84 77.2271 19.108 76.9871 19.452C76.7471 19.796 76.5871 20.196 76.5071 20.652C76.4911 20.748 76.4791 20.844 76.4711 20.94C76.4631 21.036 76.4591 21.136 76.4591 21.24C76.4591 21.792 76.5711 22.288 76.7951 22.728C77.0271 23.16 77.3391 23.5 77.7311 23.748C78.1311 23.996 78.5791 24.12 79.0751 24.12C79.5551 24.12 79.9551 24.064 80.2751 23.952C80.5951 23.832 80.8671 23.668 81.0911 23.46C81.3151 23.244 81.5191 22.996 81.7031 22.716L80.9231 22.224C80.8031 22.424 80.6591 22.6 80.4911 22.752C80.3231 22.896 80.1311 23.012 79.9151 23.1C79.7071 23.18 79.4671 23.22 79.1951 23.22C78.8351 23.22 78.5231 23.144 78.2591 22.992C77.9951 22.84 77.7911 22.616 77.6471 22.32C77.5031 22.024 77.4311 21.664 77.4311 21.24L77.4551 20.88C77.4551 20.536 77.5311 20.24 77.6831 19.992C77.8431 19.736 78.0551 19.54 78.3191 19.404C78.5831 19.268 78.8751 19.2 79.1951 19.2C79.5151 19.2 79.7831 19.264 79.9991 19.392C80.2231 19.512 80.3951 19.684 80.5151 19.908C80.6431 20.124 80.7231 20.376 80.7551 20.664H77.0711V21.48ZM87.9508 18.48H83.2108V22.08C83.2108 22.472 83.1228 22.744 82.9468 22.896C82.7788 23.048 82.5748 23.124 82.3348 23.124V24C82.7508 24 83.0948 23.932 83.3668 23.796C83.6388 23.652 83.8388 23.44 83.9668 23.16C84.1028 22.872 84.1708 22.512 84.1708 22.08V19.38H86.9908V24H87.9508V18.48ZM89.8063 18.48V24H90.7663V18.48H89.8063ZM90.3703 21.408H92.0863C92.3183 21.408 92.5103 21.444 92.6623 21.516C92.8223 21.58 92.9423 21.68 93.0223 21.816C93.1023 21.944 93.1423 22.1 93.1423 22.284C93.1423 22.468 93.1023 22.628 93.0223 22.764C92.9423 22.892 92.8223 22.992 92.6623 23.064C92.5103 23.128 92.3183 23.16 92.0863 23.16H90.3703V24H92.0863C92.4703 24 92.8143 23.94 93.1183 23.82C93.4223 23.7 93.6623 23.512 93.8383 23.256C94.0143 23 94.1023 22.676 94.1023 22.284C94.1023 21.884 94.0143 21.56 93.8383 21.312C93.6623 21.056 93.4223 20.868 93.1183 20.748C92.8143 20.628 92.4703 20.568 92.0863 20.568H90.3703V21.408ZM96.171 21.54H100.251V20.64H96.171V21.54ZM99.627 18.48V24H100.587V18.48H99.627ZM95.607 18.48V24H96.567V18.48H95.607ZM107.012 19.44L107.072 18.06L102.512 23.04L102.452 24.42L107.012 19.44ZM103.412 18.48H102.452V24.42L103.412 23.1V18.48ZM107.072 18.06L106.112 19.38V24H107.072V18.06ZM108.871 18.48V24H109.831V18.48H108.871ZM111.871 18.48L109.471 20.76L112.111 24H113.311L110.671 20.76L113.071 18.48H111.871Z" fill="black" fill-opacity="0.5"/>
<path d="M213.041 11H218.969V10.04H215.141L217.817 7.316C218.145 6.98 218.413 6.6 218.621 6.176C218.829 5.752 218.933 5.324 218.933 4.892C218.933 4.636 218.881 4.368 218.777 4.088C218.673 3.808 218.513 3.548 218.297 3.308C218.081 3.06 217.805 2.86 217.469 2.708C217.133 2.548 216.733 2.468 216.269 2.468C215.693 2.468 215.197 2.596 214.781 2.852C214.373 3.1 214.061 3.452 213.845 3.908C213.629 4.356 213.521 4.88 213.521 5.48H214.541C214.541 5.056 214.609 4.692 214.745 4.388C214.881 4.076 215.077 3.84 215.333 3.68C215.597 3.512 215.909 3.428 216.269 3.428C216.525 3.428 216.753 3.472 216.953 3.56C217.153 3.648 217.321 3.764 217.457 3.908C217.601 4.052 217.709 4.212 217.781 4.388C217.853 4.564 217.889 4.744 217.889 4.928C217.889 5.152 217.853 5.368 217.781 5.576C217.717 5.776 217.617 5.976 217.481 6.176C217.353 6.368 217.197 6.564 217.013 6.764L213.041 11ZM220.593 4.628C220.593 4.956 220.649 5.252 220.761 5.516C220.873 5.772 221.029 5.992 221.229 6.176C221.437 6.36 221.681 6.5 221.961 6.596C222.249 6.692 222.565 6.74 222.909 6.74C223.253 6.74 223.565 6.692 223.845 6.596C224.133 6.5 224.377 6.36 224.577 6.176C224.785 5.992 224.945 5.772 225.057 5.516C225.169 5.252 225.225 4.956 225.225 4.628C225.225 4.332 225.165 4.056 225.045 3.8C224.933 3.536 224.773 3.308 224.565 3.116C224.357 2.916 224.109 2.76 223.821 2.648C223.541 2.536 223.237 2.48 222.909 2.48C222.469 2.48 222.073 2.576 221.721 2.768C221.377 2.96 221.101 3.22 220.893 3.548C220.693 3.868 220.593 4.228 220.593 4.628ZM221.565 4.748C221.565 4.484 221.621 4.248 221.733 4.04C221.853 3.832 222.013 3.672 222.213 3.56C222.421 3.44 222.653 3.38 222.909 3.38C223.173 3.38 223.405 3.44 223.605 3.56C223.805 3.672 223.961 3.832 224.073 4.04C224.193 4.248 224.253 4.484 224.253 4.748C224.253 5.012 224.189 5.244 224.061 5.444C223.941 5.644 223.777 5.8 223.569 5.912C223.369 6.024 223.149 6.08 222.909 6.08C222.669 6.08 222.445 6.024 222.237 5.912C222.037 5.8 221.873 5.644 221.745 5.444C221.625 5.244 221.565 5.012 221.565 4.748ZM220.293 8.72C220.293 9.048 220.357 9.356 220.485 9.644C220.621 9.932 220.805 10.188 221.037 10.412C221.277 10.636 221.553 10.812 221.865 10.94C222.185 11.06 222.533 11.12 222.909 11.12C223.285 11.12 223.629 11.06 223.941 10.94C224.261 10.812 224.537 10.636 224.769 10.412C225.009 10.188 225.193 9.932 225.321 9.644C225.457 9.356 225.525 9.048 225.525 8.72C225.525 8.336 225.453 7.996 225.309 7.7C225.173 7.396 224.981 7.144 224.733 6.944C224.493 6.736 224.213 6.58 223.893 6.476C223.581 6.372 223.253 6.32 222.909 6.32C222.565 6.32 222.233 6.372 221.913 6.476C221.601 6.58 221.321 6.736 221.073 6.944C220.833 7.144 220.641 7.396 220.497 7.7C220.361 7.996 220.293 8.336 220.293 8.72ZM221.265 8.6C221.265 8.296 221.341 8.024 221.493 7.784C221.653 7.536 221.857 7.34 222.105 7.196C222.361 7.052 222.629 6.98 222.909 6.98C223.189 6.98 223.453 7.052 223.701 7.196C223.957 7.34 224.161 7.536 224.313 7.784C224.473 8.024 224.553 8.296 224.553 8.6C224.553 8.944 224.473 9.236 224.313 9.476C224.161 9.716 223.957 9.9 223.701 10.028C223.453 10.156 223.189 10.22 222.909 10.22C222.629 10.22 222.361 10.156 222.105 10.028C221.857 9.9 221.653 9.716 221.493 9.476C221.341 9.236 221.265 8.944 221.265 8.6ZM227.148 10.52C227.148 10.696 227.212 10.852 227.34 10.988C227.476 11.116 227.632 11.18 227.808 11.18C227.992 11.18 228.148 11.116 228.276 10.988C228.404 10.852 228.468 10.696 228.468 10.52C228.468 10.336 228.404 10.18 228.276 10.052C228.148 9.924 227.992 9.86 227.808 9.86C227.632 9.86 227.476 9.924 227.34 10.052C227.212 10.18 227.148 10.336 227.148 10.52ZM231.105 6.8C231.105 6.312 231.153 5.864 231.249 5.456C231.345 5.04 231.485 4.684 231.669 4.388C231.853 4.084 232.073 3.852 232.329 3.692C232.593 3.524 232.885 3.44 233.205 3.44C233.461 3.44 233.697 3.496 233.913 3.608C234.137 3.712 234.333 3.864 234.501 4.064C234.677 4.256 234.821 4.492 234.933 4.772C235.053 5.052 235.145 5.364 235.209 5.708C235.273 6.044 235.305 6.408 235.305 6.8C235.305 7.288 235.257 7.74 235.161 8.156C235.065 8.564 234.925 8.92 234.741 9.224C234.557 9.52 234.337 9.752 234.081 9.92C233.825 10.08 233.533 10.16 233.205 10.16C232.949 10.16 232.709 10.108 232.485 10.004C232.269 9.892 232.073 9.74 231.897 9.548C231.729 9.348 231.585 9.108 231.465 8.828C231.353 8.548 231.265 8.24 231.201 7.904C231.137 7.56 231.105 7.192 231.105 6.8ZM230.085 6.8C230.085 7.304 230.133 7.776 230.229 8.216C230.325 8.648 230.465 9.044 230.649 9.404C230.833 9.764 231.053 10.072 231.309 10.328C231.565 10.584 231.853 10.78 232.173 10.916C232.493 11.052 232.837 11.12 233.205 11.12C233.669 11.12 234.089 11.016 234.465 10.808C234.849 10.592 235.177 10.292 235.449 9.908C235.729 9.516 235.945 9.056 236.097 8.528C236.249 8 236.325 7.424 236.325 6.8C236.325 6.296 236.277 5.828 236.181 5.396C236.085 4.956 235.945 4.556 235.761 4.196C235.577 3.836 235.357 3.528 235.101 3.272C234.845 3.016 234.557 2.82 234.237 2.684C233.917 2.548 233.573 2.48 233.205 2.48C232.741 2.48 232.317 2.588 231.933 2.804C231.557 3.012 231.229 3.312 230.949 3.704C230.677 4.088 230.465 4.544 230.313 5.072C230.161 5.6 230.085 6.176 230.085 6.8ZM237.161 3.56H241.517L237.953 11H239.021L243.041 2.6H237.161V3.56ZM243.686 9.68L242.63 12.788L243.326 13.04L244.646 10.04L243.686 9.68Z" fill="black"/>
<path d="M211.823 19.56H213.179C213.683 19.56 214.119 19.488 214.487 19.344C214.863 19.2 215.155 18.988 215.363 18.708C215.571 18.428 215.675 18.092 215.675 17.7C215.675 17.34 215.615 17.028 215.495 16.764C215.375 16.5 215.203 16.284 214.979 16.116C214.763 15.94 214.503 15.812 214.199 15.732C213.895 15.644 213.555 15.6 213.179 15.6H211.019V24H213.299C213.843 24 214.327 23.912 214.751 23.736C215.183 23.552 215.523 23.28 215.771 22.92C216.027 22.552 216.155 22.092 216.155 21.54C216.155 21.156 216.083 20.824 215.939 20.544C215.795 20.264 215.591 20.036 215.327 19.86C215.071 19.676 214.771 19.54 214.427 19.452C214.083 19.364 213.707 19.32 213.299 19.32H211.823V19.884H213.299C213.571 19.884 213.819 19.92 214.043 19.992C214.267 20.056 214.459 20.156 214.619 20.292C214.787 20.428 214.915 20.596 215.003 20.796C215.091 20.996 215.135 21.224 215.135 21.48C215.135 21.824 215.055 22.116 214.895 22.356C214.743 22.596 214.527 22.78 214.247 22.908C213.975 23.036 213.659 23.1 213.299 23.1H212.039V16.5H213.179C213.603 16.5 213.955 16.612 214.235 16.836C214.515 17.052 214.655 17.36 214.655 17.76C214.655 18.024 214.591 18.248 214.463 18.432C214.335 18.616 214.159 18.756 213.935 18.852C213.711 18.948 213.459 18.996 213.179 18.996H211.823V19.56ZM216.81 18.48V19.38H220.05V18.48H216.81ZM217.95 18.72V24H218.91V18.72H217.95ZM220.358 21.24C220.358 21.792 220.481 22.288 220.729 22.728C220.986 23.16 221.33 23.5 221.762 23.748C222.194 23.996 222.678 24.12 223.214 24.12C223.758 24.12 224.242 23.996 224.666 23.748C225.098 23.5 225.438 23.16 225.686 22.728C225.942 22.288 226.07 21.792 226.07 21.24C226.07 20.68 225.942 20.184 225.686 19.752C225.438 19.32 225.098 18.98 224.666 18.732C224.242 18.484 223.758 18.36 223.214 18.36C222.678 18.36 222.194 18.484 221.762 18.732C221.33 18.98 220.986 19.32 220.729 19.752C220.481 20.184 220.358 20.68 220.358 21.24ZM221.33 21.24C221.33 20.856 221.41 20.516 221.57 20.22C221.738 19.916 221.962 19.68 222.242 19.512C222.53 19.344 222.854 19.26 223.214 19.26C223.574 19.26 223.894 19.344 224.174 19.512C224.462 19.68 224.686 19.916 224.846 20.22C225.014 20.516 225.098 20.856 225.098 21.24C225.098 21.624 225.014 21.964 224.846 22.26C224.686 22.556 224.462 22.792 224.174 22.968C223.894 23.136 223.574 23.22 223.214 23.22C222.854 23.22 222.53 23.136 222.242 22.968C221.962 22.792 221.738 22.556 221.57 22.26C221.41 21.964 221.33 21.624 221.33 21.24ZM228.288 26.64V18.48H227.328V26.64H228.288ZM232.908 21.24C232.908 20.64 232.784 20.128 232.536 19.704C232.288 19.272 231.956 18.94 231.54 18.708C231.132 18.476 230.676 18.36 230.172 18.36C229.828 18.36 229.512 18.428 229.224 18.564C228.944 18.692 228.7 18.88 228.492 19.128C228.292 19.376 228.136 19.68 228.024 20.04C227.912 20.392 227.856 20.792 227.856 21.24C227.856 21.688 227.912 22.092 228.024 22.452C228.136 22.804 228.292 23.104 228.492 23.352C228.7 23.6 228.944 23.792 229.224 23.928C229.512 24.056 229.828 24.12 230.172 24.12C230.676 24.12 231.132 24.004 231.54 23.772C231.956 23.54 232.288 23.208 232.536 22.776C232.784 22.344 232.908 21.832 232.908 21.24ZM231.936 21.24C231.936 21.664 231.848 22.024 231.672 22.32C231.504 22.616 231.276 22.84 230.988 22.992C230.708 23.144 230.396 23.22 230.052 23.22C229.844 23.22 229.636 23.176 229.428 23.088C229.22 23 229.028 22.872 228.852 22.704C228.684 22.536 228.548 22.332 228.444 22.092C228.34 21.844 228.288 21.56 228.288 21.24C228.288 20.92 228.34 20.64 228.444 20.4C228.548 20.152 228.684 19.944 228.852 19.776C229.028 19.608 229.22 19.48 229.428 19.392C229.636 19.304 229.844 19.26 230.052 19.26C230.396 19.26 230.708 19.336 230.988 19.488C231.276 19.64 231.504 19.864 231.672 20.16C231.848 20.456 231.936 20.816 231.936 21.24ZM234.796 21.54H238.876V20.64H234.796V21.54ZM238.252 18.48V24H239.212V18.48H238.252ZM234.232 18.48V24H235.192V18.48H234.232ZM245.637 19.44L245.697 18.06L241.137 23.04L241.077 24.42L245.637 19.44ZM242.037 18.48H241.077V24.42L242.037 23.1V18.48ZM245.697 18.06L244.737 19.38V24H245.697V18.06ZM247.496 18.48V24H248.456V18.48H247.496ZM250.496 18.48L248.096 20.76L250.736 24H251.936L249.296 20.76L251.696 18.48H250.496Z" fill="black" fill-opacity="0.5"/>
<path d="M367.193 11H373.121V10.04H369.293L371.969 7.316C372.297 6.98 372.565 6.6 372.773 6.176C372.981 5.752 373.085 5.324 373.085 4.892C373.085 4.636 373.033 4.368 372.929 4.088C372.825 3.808 372.665 3.548 372.449 3.308C372.233 3.06 371.957 2.86 371.621 2.708C371.285 2.548 370.885 2.468 370.421 2.468C369.845 2.468 369.349 2.596 368.933 2.852C368.525 3.1 368.213 3.452 367.997 3.908C367.781 4.356 367.673 4.88 367.673 5.48H368.693C368.693 5.056 368.761 4.692 368.897 4.388C369.033 4.076 369.229 3.84 369.485 3.68C369.749 3.512 370.061 3.428 370.421 3.428C370.677 3.428 370.905 3.472 371.105 3.56C371.305 3.648 371.473 3.764 371.609 3.908C371.753 4.052 371.861 4.212 371.933 4.388C372.005 4.564 372.041 4.744 372.041 4.928C372.041 5.152 372.005 5.368 371.933 5.576C371.869 5.776 371.769 5.976 371.633 6.176C371.505 6.368 371.349 6.564 371.165 6.764L367.193 11ZM379.125 5.36C379.125 5.744 379.041 6.084 378.873 6.38C378.713 6.676 378.489 6.912 378.201 7.088C377.921 7.256 377.601 7.34 377.241 7.34C376.881 7.34 376.557 7.256 376.269 7.088C375.989 6.912 375.765 6.676 375.597 6.38C375.437 6.084 375.357 5.744 375.357 5.36C375.357 4.976 375.437 4.64 375.597 4.352C375.765 4.056 375.989 3.824 376.269 3.656C376.557 3.488 376.881 3.404 377.241 3.404C377.601 3.404 377.921 3.488 378.201 3.656C378.489 3.824 378.713 4.056 378.873 4.352C379.041 4.64 379.125 4.976 379.125 5.36ZM376.737 11L379.569 7.1C379.729 6.876 379.857 6.616 379.953 6.32C380.049 6.024 380.097 5.704 380.097 5.36C380.097 4.784 379.969 4.28 379.713 3.848C379.465 3.416 379.125 3.08 378.693 2.84C378.269 2.6 377.785 2.48 377.241 2.48C376.705 2.48 376.221 2.6 375.789 2.84C375.357 3.08 375.013 3.416 374.757 3.848C374.509 4.28 374.385 4.784 374.385 5.36C374.385 5.744 374.449 6.104 374.577 6.44C374.705 6.768 374.881 7.056 375.105 7.304C375.337 7.552 375.601 7.744 375.897 7.88C376.201 8.016 376.525 8.084 376.869 8.084C377.141 8.084 377.381 8.052 377.589 7.988C377.805 7.924 377.993 7.792 378.153 7.592L378.081 7.532L375.453 11H376.737ZM380.995 10.52C380.995 10.696 381.059 10.852 381.187 10.988C381.323 11.116 381.479 11.18 381.655 11.18C381.839 11.18 381.995 11.116 382.123 10.988C382.251 10.852 382.315 10.696 382.315 10.52C382.315 10.336 382.251 10.18 382.123 10.052C381.995 9.924 381.839 9.86 381.655 9.86C381.479 9.86 381.323 9.924 381.187 10.052C381.059 10.18 380.995 10.336 380.995 10.52ZM384.953 6.8C384.953 6.312 385.001 5.864 385.097 5.456C385.193 5.04 385.333 4.684 385.517 4.388C385.701 4.084 385.921 3.852 386.177 3.692C386.441 3.524 386.733 3.44 387.053 3.44C387.309 3.44 387.545 3.496 387.761 3.608C387.985 3.712 388.181 3.864 388.349 4.064C388.525 4.256 388.669 4.492 388.781 4.772C388.901 5.052 388.993 5.364 389.057 5.708C389.121 6.044 389.153 6.408 389.153 6.8C389.153 7.288 389.105 7.74 389.009 8.156C388.913 8.564 388.773 8.92 388.589 9.224C388.405 9.52 388.185 9.752 387.929 9.92C387.673 10.08 387.381 10.16 387.053 10.16C386.797 10.16 386.557 10.108 386.333 10.004C386.117 9.892 385.921 9.74 385.745 9.548C385.577 9.348 385.433 9.108 385.313 8.828C385.201 8.548 385.113 8.24 385.049 7.904C384.985 7.56 384.953 7.192 384.953 6.8ZM383.933 6.8C383.933 7.304 383.981 7.776 384.077 8.216C384.173 8.648 384.313 9.044 384.497 9.404C384.681 9.764 384.901 10.072 385.157 10.328C385.413 10.584 385.701 10.78 386.021 10.916C386.341 11.052 386.685 11.12 387.053 11.12C387.517 11.12 387.937 11.016 388.313 10.808C388.697 10.592 389.025 10.292 389.297 9.908C389.577 9.516 389.793 9.056 389.945 8.528C390.097 8 390.173 7.424 390.173 6.8C390.173 6.296 390.125 5.828 390.029 5.396C389.933 4.956 389.793 4.556 389.609 4.196C389.425 3.836 389.205 3.528 388.949 3.272C388.693 3.016 388.405 2.82 388.085 2.684C387.765 2.548 387.421 2.48 387.053 2.48C386.589 2.48 386.165 2.588 385.781 2.804C385.405 3.012 385.077 3.312 384.797 3.704C384.525 4.088 384.313 4.544 384.161 5.072C384.009 5.6 383.933 6.176 383.933 6.8ZM391.008 3.56H395.364L391.8 11H392.868L396.888 2.6H391.008V3.56ZM397.534 9.68L396.478 12.788L397.174 13.04L398.494 10.04L397.534 9.68Z" fill="black"/>
<path d="M369.398 19.8C369.398 19.312 369.482 18.868 369.65 18.468C369.818 18.06 370.046 17.712 370.334 17.424C370.63 17.128 370.962 16.9 371.33 16.74C371.706 16.58 372.102 16.5 372.518 16.5C372.918 16.5 373.282 16.552 373.61 16.656C373.946 16.76 374.25 16.908 374.522 17.1C374.794 17.284 375.026 17.5 375.218 17.748V16.404C374.866 16.092 374.482 15.86 374.066 15.708C373.65 15.556 373.134 15.48 372.518 15.48C371.934 15.48 371.386 15.588 370.874 15.804C370.37 16.012 369.926 16.312 369.542 16.704C369.158 17.088 368.858 17.544 368.642 18.072C368.426 18.6 368.318 19.176 368.318 19.8C368.318 20.424 368.426 21 368.642 21.528C368.858 22.056 369.158 22.516 369.542 22.908C369.926 23.292 370.37 23.592 370.874 23.808C371.386 24.016 371.934 24.12 372.518 24.12C373.134 24.12 373.65 24.044 374.066 23.892C374.482 23.74 374.866 23.508 375.218 23.196V21.852C375.026 22.1 374.794 22.32 374.522 22.512C374.25 22.696 373.946 22.84 373.61 22.944C373.282 23.048 372.918 23.1 372.518 23.1C372.102 23.1 371.706 23.02 371.33 22.86C370.962 22.7 370.63 22.476 370.334 22.188C370.046 21.892 369.818 21.544 369.65 21.144C369.482 20.736 369.398 20.288 369.398 19.8ZM377.853 26.64V18.48H376.893V26.64H377.853ZM382.473 21.24C382.473 20.64 382.349 20.128 382.101 19.704C381.853 19.272 381.521 18.94 381.105 18.708C380.697 18.476 380.241 18.36 379.737 18.36C379.393 18.36 379.077 18.428 378.789 18.564C378.509 18.692 378.265 18.88 378.057 19.128C377.857 19.376 377.701 19.68 377.589 20.04C377.477 20.392 377.421 20.792 377.421 21.24C377.421 21.688 377.477 22.092 377.589 22.452C377.701 22.804 377.857 23.104 378.057 23.352C378.265 23.6 378.509 23.792 378.789 23.928C379.077 24.056 379.393 24.12 379.737 24.12C380.241 24.12 380.697 24.004 381.105 23.772C381.521 23.54 381.853 23.208 382.101 22.776C382.349 22.344 382.473 21.832 382.473 21.24ZM381.501 21.24C381.501 21.664 381.413 22.024 381.237 22.32C381.069 22.616 380.841 22.84 380.553 22.992C380.273 23.144 379.961 23.22 379.617 23.22C379.409 23.22 379.201 23.176 378.993 23.088C378.785 23 378.593 22.872 378.417 22.704C378.249 22.536 378.113 22.332 378.009 22.092C377.905 21.844 377.853 21.56 377.853 21.24C377.853 20.92 377.905 20.64 378.009 20.4C378.113 20.152 378.249 19.944 378.417 19.776C378.593 19.608 378.785 19.48 378.993 19.392C379.201 19.304 379.409 19.26 379.617 19.26C379.961 19.26 380.273 19.336 380.553 19.488C380.841 19.64 381.069 19.864 381.237 20.16C381.413 20.456 381.501 20.816 381.501 21.24ZM383.928 21.48H388.644C388.652 21.432 388.656 21.384 388.656 21.336C388.656 21.288 388.656 21.24 388.656 21.192C388.656 20.608 388.548 20.108 388.332 19.692C388.116 19.268 387.812 18.94 387.42 18.708C387.028 18.476 386.572 18.36 386.052 18.36C385.58 18.36 385.152 18.456 384.768 18.648C384.392 18.84 384.084 19.108 383.844 19.452C383.604 19.796 383.444 20.196 383.364 20.652C383.348 20.748 383.336 20.844 383.328 20.94C383.32 21.036 383.316 21.136 383.316 21.24C383.316 21.792 383.428 22.288 383.652 22.728C383.884 23.16 384.196 23.5 384.588 23.748C384.988 23.996 385.436 24.12 385.932 24.12C386.412 24.12 386.812 24.064 387.132 23.952C387.452 23.832 387.724 23.668 387.948 23.46C388.172 23.244 388.376 22.996 388.56 22.716L387.78 22.224C387.66 22.424 387.516 22.6 387.348 22.752C387.18 22.896 386.988 23.012 386.772 23.1C386.564 23.18 386.324 23.22 386.052 23.22C385.692 23.22 385.38 23.144 385.116 22.992C384.852 22.84 384.648 22.616 384.504 22.32C384.36 22.024 384.288 21.664 384.288 21.24L384.312 20.88C384.312 20.536 384.388 20.24 384.54 19.992C384.7 19.736 384.912 19.54 385.176 19.404C385.44 19.268 385.732 19.2 386.052 19.2C386.372 19.2 386.64 19.264 386.856 19.392C387.08 19.512 387.252 19.684 387.372 19.908C387.5 20.124 387.58 20.376 387.612 20.664H383.928V21.48ZM392.375 20.136L393.995 23.64H395.075L392.375 18.06L389.675 23.64H390.755L392.375 20.136ZM394.835 24V25.08H395.795V23.1H388.955V25.08H389.975V24H394.835ZM397.67 22.38C397.67 22.156 397.722 21.964 397.826 21.804C397.93 21.644 398.086 21.52 398.294 21.432C398.51 21.344 398.778 21.3 399.098 21.3C399.45 21.3 399.766 21.348 400.046 21.444C400.326 21.532 400.602 21.672 400.874 21.864V21.3C400.818 21.228 400.714 21.136 400.562 21.024C400.41 20.904 400.206 20.8 399.95 20.712C399.702 20.616 399.402 20.568 399.05 20.568C398.57 20.568 398.154 20.644 397.802 20.796C397.45 20.94 397.178 21.148 396.986 21.42C396.794 21.692 396.698 22.024 396.698 22.416C396.698 22.792 396.782 23.108 396.95 23.364C397.126 23.612 397.358 23.8 397.646 23.928C397.934 24.056 398.25 24.12 398.594 24.12C398.978 24.12 399.326 24.056 399.638 23.928C399.95 23.792 400.198 23.6 400.382 23.352C400.574 23.096 400.67 22.792 400.67 22.44L400.478 21.84C400.478 22.184 400.406 22.46 400.262 22.668C400.126 22.876 399.934 23.028 399.686 23.124C399.438 23.22 399.154 23.268 398.834 23.268C398.618 23.268 398.422 23.236 398.246 23.172C398.07 23.1 397.93 23 397.826 22.872C397.722 22.736 397.67 22.572 397.67 22.38ZM397.67 19.776C397.758 19.712 397.878 19.636 398.03 19.548C398.19 19.452 398.378 19.372 398.594 19.308C398.81 19.236 399.05 19.2 399.314 19.2C399.514 19.2 399.702 19.232 399.878 19.296C400.054 19.36 400.198 19.456 400.31 19.584C400.422 19.704 400.478 19.856 400.478 20.04V24H401.438V20.04C401.438 19.776 401.386 19.54 401.282 19.332C401.178 19.124 401.03 18.948 400.838 18.804C400.654 18.66 400.43 18.552 400.166 18.48C399.91 18.4 399.626 18.36 399.314 18.36C398.818 18.36 398.394 18.436 398.042 18.588C397.69 18.74 397.41 18.892 397.202 19.044L397.67 19.776Z" fill="black" fill-opacity="0.5"/>
<path d="M524.067 6.86C524.475 6.86 524.843 6.804 525.171 6.692C525.507 6.58 525.795 6.428 526.035 6.236C526.283 6.036 526.471 5.808 526.599 5.552C526.735 5.288 526.803 5.008 526.803 4.712C526.803 4.312 526.707 3.944 526.515 3.608C526.331 3.272 526.063 3 525.711 2.792C525.367 2.584 524.955 2.48 524.475 2.48C524.019 2.48 523.611 2.576 523.251 2.768C522.899 2.952 522.619 3.208 522.411 3.536C522.211 3.864 522.111 4.248 522.111 4.688H523.083C523.083 4.44 523.143 4.22 523.263 4.028C523.391 3.836 523.559 3.684 523.767 3.572C523.983 3.46 524.223 3.404 524.487 3.404C524.767 3.404 524.999 3.46 525.183 3.572C525.375 3.684 525.519 3.844 525.615 4.052C525.711 4.252 525.759 4.484 525.759 4.748C525.759 4.948 525.719 5.136 525.639 5.312C525.567 5.488 525.459 5.644 525.315 5.78C525.171 5.908 524.995 6.012 524.787 6.092C524.579 6.164 524.339 6.2 524.067 6.2V6.86ZM524.427 11.12C524.931 11.12 525.379 11.024 525.771 10.832C526.163 10.64 526.471 10.368 526.695 10.016C526.927 9.664 527.043 9.252 527.043 8.78C527.043 8.364 526.963 8.008 526.803 7.712C526.651 7.416 526.435 7.176 526.155 6.992C525.883 6.8 525.567 6.66 525.207 6.572C524.855 6.484 524.475 6.44 524.067 6.44V7.1C524.339 7.1 524.591 7.132 524.823 7.196C525.055 7.26 525.259 7.36 525.435 7.496C525.611 7.624 525.747 7.788 525.843 7.988C525.947 8.18 525.999 8.404 525.999 8.66C525.999 8.964 525.935 9.228 525.807 9.452C525.679 9.676 525.495 9.852 525.255 9.98C525.023 10.1 524.747 10.16 524.427 10.16C524.107 10.16 523.823 10.1 523.575 9.98C523.327 9.86 523.131 9.696 522.987 9.488C522.851 9.28 522.783 9.044 522.783 8.78H521.751C521.751 9.108 521.815 9.416 521.943 9.704C522.071 9.984 522.251 10.232 522.483 10.448C522.715 10.656 522.995 10.82 523.323 10.94C523.651 11.06 524.019 11.12 524.427 11.12ZM529.082 6.8C529.082 6.312 529.13 5.864 529.226 5.456C529.322 5.04 529.462 4.684 529.646 4.388C529.83 4.084 530.05 3.852 530.306 3.692C530.57 3.524 530.862 3.44 531.182 3.44C531.438 3.44 531.674 3.496 531.89 3.608C532.114 3.712 532.31 3.864 532.478 4.064C532.654 4.256 532.798 4.492 532.91 4.772C533.03 5.052 533.122 5.364 533.186 5.708C533.25 6.044 533.282 6.408 533.282 6.8C533.282 7.288 533.234 7.74 533.138 8.156C533.042 8.564 532.902 8.92 532.718 9.224C532.534 9.52 532.314 9.752 532.058 9.92C531.802 10.08 531.51 10.16 531.182 10.16C530.926 10.16 530.686 10.108 530.462 10.004C530.246 9.892 530.05 9.74 529.874 9.548C529.706 9.348 529.562 9.108 529.442 8.828C529.33 8.548 529.242 8.24 529.178 7.904C529.114 7.56 529.082 7.192 529.082 6.8ZM528.062 6.8C528.062 7.304 528.11 7.776 528.206 8.216C528.302 8.648 528.442 9.044 528.626 9.404C528.81 9.764 529.03 10.072 529.286 10.328C529.542 10.584 529.83 10.78 530.15 10.916C530.47 11.052 530.814 11.12 531.182 11.12C531.646 11.12 532.066 11.016 532.442 10.808C532.826 10.592 533.154 10.292 533.426 9.908C533.706 9.516 533.922 9.056 534.074 8.528C534.226 8 534.302 7.424 534.302 6.8C534.302 6.296 534.254 5.828 534.158 5.396C534.062 4.956 533.922 4.556 533.738 4.196C533.554 3.836 533.334 3.528 533.078 3.272C532.822 3.016 532.534 2.82 532.214 2.684C531.894 2.548 531.55 2.48 531.182 2.48C530.718 2.48 530.294 2.588 529.91 2.804C529.534 3.012 529.206 3.312 528.926 3.704C528.654 4.088 528.442 4.544 528.29 5.072C528.138 5.6 528.062 6.176 528.062 6.8ZM535.917 10.52C535.917 10.696 535.981 10.852 536.109 10.988C536.245 11.116 536.401 11.18 536.577 11.18C536.761 11.18 536.917 11.116 537.045 10.988C537.173 10.852 537.237 10.696 537.237 10.52C537.237 10.336 537.173 10.18 537.045 10.052C536.917 9.924 536.761 9.86 536.577 9.86C536.401 9.86 536.245 9.924 536.109 10.052C535.981 10.18 535.917 10.336 535.917 10.52ZM539.875 6.8C539.875 6.312 539.923 5.864 540.019 5.456C540.115 5.04 540.255 4.684 540.439 4.388C540.623 4.084 540.843 3.852 541.099 3.692C541.363 3.524 541.655 3.44 541.975 3.44C542.231 3.44 542.467 3.496 542.683 3.608C542.907 3.712 543.103 3.864 543.271 4.064C543.447 4.256 543.591 4.492 543.703 4.772C543.823 5.052 543.915 5.364 543.979 5.708C544.043 6.044 544.075 6.408 544.075 6.8C544.075 7.288 544.027 7.74 543.931 8.156C543.835 8.564 543.695 8.92 543.511 9.224C543.327 9.52 543.107 9.752 542.851 9.92C542.595 10.08 542.303 10.16 541.975 10.16C541.719 10.16 541.479 10.108 541.255 10.004C541.039 9.892 540.843 9.74 540.667 9.548C540.499 9.348 540.355 9.108 540.235 8.828C540.123 8.548 540.035 8.24 539.971 7.904C539.907 7.56 539.875 7.192 539.875 6.8ZM538.855 6.8C538.855 7.304 538.903 7.776 538.999 8.216C539.095 8.648 539.235 9.044 539.419 9.404C539.603 9.764 539.823 10.072 540.079 10.328C540.335 10.584 540.623 10.78 540.943 10.916C541.263 11.052 541.607 11.12 541.975 11.12C542.439 11.12 542.859 11.016 543.235 10.808C543.619 10.592 543.947 10.292 544.219 9.908C544.499 9.516 544.715 9.056 544.867 8.528C545.019 8 545.095 7.424 545.095 6.8C545.095 6.296 545.047 5.828 544.951 5.396C544.855 4.956 544.715 4.556 544.531 4.196C544.347 3.836 544.127 3.528 543.871 3.272C543.615 3.016 543.327 2.82 543.007 2.684C542.687 2.548 542.343 2.48 541.975 2.48C541.511 2.48 541.087 2.588 540.703 2.804C540.327 3.012 539.999 3.312 539.719 3.704C539.447 4.088 539.235 4.544 539.083 5.072C538.931 5.6 538.855 6.176 538.855 6.8ZM545.93 3.56H550.286L546.722 11H547.79L551.81 2.6H545.93V3.56ZM552.456 9.68L551.4 12.788L552.096 13.04L553.416 10.04L552.456 9.68Z" fill="black"/>
<path d="M523.31 20.64H525.914V19.74H523.31V20.64ZM525.23 15.6V24H526.25V15.6H525.23ZM521.75 15.6H520.79V17.784C520.79 18.32 520.882 18.804 521.066 19.236C521.258 19.668 521.542 20.012 521.918 20.268C522.294 20.516 522.758 20.64 523.31 20.64V19.74C522.966 19.74 522.678 19.652 522.446 19.476C522.214 19.3 522.038 19.064 521.918 18.768C521.806 18.472 521.75 18.144 521.75 17.784V15.6ZM528.245 21.48H532.961C532.969 21.432 532.973 21.384 532.973 21.336C532.973 21.288 532.973 21.24 532.973 21.192C532.973 20.608 532.865 20.108 532.649 19.692C532.433 19.268 532.129 18.94 531.737 18.708C531.345 18.476 530.889 18.36 530.369 18.36C529.897 18.36 529.469 18.456 529.085 18.648C528.709 18.84 528.401 19.108 528.161 19.452C527.921 19.796 527.761 20.196 527.681 20.652C527.665 20.748 527.653 20.844 527.645 20.94C527.637 21.036 527.633 21.136 527.633 21.24C527.633 21.792 527.745 22.288 527.969 22.728C528.201 23.16 528.513 23.5 528.905 23.748C529.305 23.996 529.753 24.12 530.249 24.12C530.729 24.12 531.129 24.064 531.449 23.952C531.769 23.832 532.041 23.668 532.265 23.46C532.489 23.244 532.693 22.996 532.877 22.716L532.097 22.224C531.977 22.424 531.833 22.6 531.665 22.752C531.497 22.896 531.305 23.012 531.089 23.1C530.881 23.18 530.641 23.22 530.369 23.22C530.009 23.22 529.697 23.144 529.433 22.992C529.169 22.84 528.965 22.616 528.821 22.32C528.677 22.024 528.605 21.664 528.605 21.24L528.629 20.88C528.629 20.536 528.705 20.24 528.857 19.992C529.017 19.736 529.229 19.54 529.493 19.404C529.757 19.268 530.049 19.2 530.369 19.2C530.689 19.2 530.957 19.264 531.173 19.392C531.397 19.512 531.569 19.684 531.689 19.908C531.817 20.124 531.897 20.376 531.929 20.664H528.245V21.48ZM533.449 18.48V19.38H536.689V18.48H533.449ZM534.589 18.72V24H535.549V18.72H534.589ZM538.216 21.12V21.624H539.812C539.996 21.624 540.152 21.644 540.28 21.684C540.416 21.716 540.524 21.768 540.604 21.84C540.692 21.912 540.756 21.992 540.796 22.08C540.844 22.168 540.868 22.268 540.868 22.38C540.868 22.596 540.78 22.78 540.604 22.932C540.436 23.084 540.172 23.16 539.812 23.16H538.216V24H540.052C540.684 24 541.136 23.856 541.408 23.568C541.688 23.272 541.828 22.916 541.828 22.5C541.828 22.14 541.74 21.86 541.564 21.66C541.388 21.46 541.148 21.32 540.844 21.24C540.54 21.16 540.196 21.12 539.812 21.12H538.216ZM538.216 21.36H539.692C540.036 21.36 540.348 21.312 540.628 21.216C540.916 21.112 541.148 20.96 541.324 20.76C541.5 20.552 541.588 20.292 541.588 19.98C541.588 19.62 541.5 19.332 541.324 19.116C541.148 18.892 540.916 18.732 540.628 18.636C540.348 18.532 540.036 18.48 539.692 18.48H538.216V19.32H539.692C539.884 19.32 540.048 19.352 540.184 19.416C540.328 19.472 540.436 19.556 540.508 19.668C540.588 19.772 540.628 19.896 540.628 20.04C540.628 20.144 540.604 20.244 540.556 20.34C540.516 20.428 540.456 20.508 540.376 20.58C540.296 20.652 540.196 20.708 540.076 20.748C539.964 20.78 539.836 20.796 539.692 20.796H538.216V21.36ZM537.652 18.48V24H538.612V18.48H537.652ZM543.221 21.48H547.937C547.945 21.432 547.949 21.384 547.949 21.336C547.949 21.288 547.949 21.24 547.949 21.192C547.949 20.608 547.841 20.108 547.625 19.692C547.409 19.268 547.105 18.94 546.713 18.708C546.321 18.476 545.865 18.36 545.345 18.36C544.873 18.36 544.445 18.456 544.061 18.648C543.685 18.84 543.377 19.108 543.137 19.452C542.897 19.796 542.737 20.196 542.657 20.652C542.641 20.748 542.629 20.844 542.621 20.94C542.613 21.036 542.609 21.136 542.609 21.24C542.609 21.792 542.721 22.288 542.945 22.728C543.177 23.16 543.489 23.5 543.881 23.748C544.281 23.996 544.729 24.12 545.225 24.12C545.705 24.12 546.105 24.064 546.425 23.952C546.745 23.832 547.017 23.668 547.241 23.46C547.465 23.244 547.669 22.996 547.853 22.716L547.073 22.224C546.953 22.424 546.809 22.6 546.641 22.752C546.473 22.896 546.281 23.012 546.065 23.1C545.857 23.18 545.617 23.22 545.345 23.22C544.985 23.22 544.673 23.144 544.409 22.992C544.145 22.84 543.941 22.616 543.797 22.32C543.653 22.024 543.581 21.664 543.581 21.24L543.605 20.88C543.605 20.536 543.681 20.24 543.833 19.992C543.993 19.736 544.205 19.54 544.469 19.404C544.733 19.268 545.025 19.2 545.345 19.2C545.665 19.2 545.933 19.264 546.149 19.392C546.373 19.512 546.545 19.684 546.665 19.908C546.793 20.124 546.873 20.376 546.905 20.664H543.221V21.48ZM550.165 26.64V18.48H549.205V26.64H550.165ZM554.785 21.24C554.785 20.64 554.661 20.128 554.413 19.704C554.165 19.272 553.833 18.94 553.417 18.708C553.009 18.476 552.553 18.36 552.049 18.36C551.705 18.36 551.389 18.428 551.101 18.564C550.821 18.692 550.577 18.88 550.369 19.128C550.169 19.376 550.013 19.68 549.901 20.04C549.789 20.392 549.733 20.792 549.733 21.24C549.733 21.688 549.789 22.092 549.901 22.452C550.013 22.804 550.169 23.104 550.369 23.352C550.577 23.6 550.821 23.792 551.101 23.928C551.389 24.056 551.705 24.12 552.049 24.12C552.553 24.12 553.009 24.004 553.417 23.772C553.833 23.54 554.165 23.208 554.413 22.776C554.661 22.344 554.785 21.832 554.785 21.24ZM553.813 21.24C553.813 21.664 553.725 22.024 553.549 22.32C553.381 22.616 553.153 22.84 552.865 22.992C552.585 23.144 552.273 23.22 551.929 23.22C551.721 23.22 551.513 23.176 551.305 23.088C551.097 23 550.905 22.872 550.729 22.704C550.561 22.536 550.425 22.332 550.321 22.092C550.217 21.844 550.165 21.56 550.165 21.24C550.165 20.92 550.217 20.64 550.321 20.4C550.425 20.152 550.561 19.944 550.729 19.776C550.905 19.608 551.097 19.48 551.305 19.392C551.513 19.304 551.721 19.26 551.929 19.26C552.273 19.26 552.585 19.336 552.865 19.488C553.153 19.64 553.381 19.864 553.549 20.16C553.725 20.456 553.813 20.816 553.813 21.24ZM556.169 18.48V24H557.129V19.38H559.109V18.48H556.169Z" fill="black" fill-opacity="0.5"/>
<path d="M679.464 6.86C679.872 6.86 680.24 6.804 680.568 6.692C680.904 6.58 681.192 6.428 681.432 6.236C681.68 6.036 681.868 5.808 681.996 5.552C682.132 5.288 682.2 5.008 682.2 4.712C682.2 4.312 682.104 3.944 681.912 3.608C681.728 3.272 681.46 3 681.108 2.792C680.764 2.584 680.352 2.48 679.872 2.48C679.416 2.48 679.008 2.576 678.648 2.768C678.296 2.952 678.016 3.208 677.808 3.536C677.608 3.864 677.508 4.248 677.508 4.688H678.48C678.48 4.44 678.54 4.22 678.66 4.028C678.788 3.836 678.956 3.684 679.164 3.572C679.38 3.46 679.62 3.404 679.884 3.404C680.164 3.404 680.396 3.46 680.58 3.572C680.772 3.684 680.916 3.844 681.012 4.052C681.108 4.252 681.156 4.484 681.156 4.748C681.156 4.948 681.116 5.136 681.036 5.312C680.964 5.488 680.856 5.644 680.712 5.78C680.568 5.908 680.392 6.012 680.184 6.092C679.976 6.164 679.736 6.2 679.464 6.2V6.86ZM679.824 11.12C680.328 11.12 680.776 11.024 681.168 10.832C681.56 10.64 681.868 10.368 682.092 10.016C682.324 9.664 682.44 9.252 682.44 8.78C682.44 8.364 682.36 8.008 682.2 7.712C682.048 7.416 681.832 7.176 681.552 6.992C681.28 6.8 680.964 6.66 680.604 6.572C680.252 6.484 679.872 6.44 679.464 6.44V7.1C679.736 7.1 679.988 7.132 680.22 7.196C680.452 7.26 680.656 7.36 680.832 7.496C681.008 7.624 681.144 7.788 681.24 7.988C681.344 8.18 681.396 8.404 681.396 8.66C681.396 8.964 681.332 9.228 681.204 9.452C681.076 9.676 680.892 9.852 680.652 9.98C680.42 10.1 680.144 10.16 679.824 10.16C679.504 10.16 679.22 10.1 678.972 9.98C678.724 9.86 678.528 9.696 678.384 9.488C678.248 9.28 678.18 9.044 678.18 8.78H677.148C677.148 9.108 677.212 9.416 677.34 9.704C677.468 9.984 677.648 10.232 677.88 10.448C678.112 10.656 678.392 10.82 678.72 10.94C679.048 11.06 679.416 11.12 679.824 11.12ZM683.939 4.256L685.799 3.704V11H686.819V2.48L683.939 3.2V4.256ZM689.521 10.52C689.521 10.696 689.585 10.852 689.713 10.988C689.849 11.116 690.005 11.18 690.181 11.18C690.365 11.18 690.521 11.116 690.649 10.988C690.777 10.852 690.841 10.696 690.841 10.52C690.841 10.336 690.777 10.18 690.649 10.052C690.521 9.924 690.365 9.86 690.181 9.86C690.005 9.86 689.849 9.924 689.713 10.052C689.585 10.18 689.521 10.336 689.521 10.52ZM693.479 6.8C693.479 6.312 693.527 5.864 693.623 5.456C693.719 5.04 693.859 4.684 694.043 4.388C694.227 4.084 694.447 3.852 694.703 3.692C694.967 3.524 695.259 3.44 695.579 3.44C695.835 3.44 696.071 3.496 696.287 3.608C696.511 3.712 696.707 3.864 696.875 4.064C697.051 4.256 697.195 4.492 697.307 4.772C697.427 5.052 697.519 5.364 697.583 5.708C697.647 6.044 697.679 6.408 697.679 6.8C697.679 7.288 697.631 7.74 697.535 8.156C697.439 8.564 697.299 8.92 697.115 9.224C696.931 9.52 696.711 9.752 696.455 9.92C696.199 10.08 695.907 10.16 695.579 10.16C695.323 10.16 695.083 10.108 694.859 10.004C694.643 9.892 694.447 9.74 694.271 9.548C694.103 9.348 693.959 9.108 693.839 8.828C693.727 8.548 693.639 8.24 693.575 7.904C693.511 7.56 693.479 7.192 693.479 6.8ZM692.459 6.8C692.459 7.304 692.507 7.776 692.603 8.216C692.699 8.648 692.839 9.044 693.023 9.404C693.207 9.764 693.427 10.072 693.683 10.328C693.939 10.584 694.227 10.78 694.547 10.916C694.867 11.052 695.211 11.12 695.579 11.12C696.043 11.12 696.463 11.016 696.839 10.808C697.223 10.592 697.551 10.292 697.823 9.908C698.103 9.516 698.319 9.056 698.471 8.528C698.623 8 698.699 7.424 698.699 6.8C698.699 6.296 698.651 5.828 698.555 5.396C698.459 4.956 698.319 4.556 698.135 4.196C697.951 3.836 697.731 3.528 697.475 3.272C697.219 3.016 696.931 2.82 696.611 2.684C696.291 2.548 695.947 2.48 695.579 2.48C695.115 2.48 694.691 2.588 694.307 2.804C693.931 3.012 693.603 3.312 693.323 3.704C693.051 4.088 692.839 4.544 692.687 5.072C692.535 5.6 692.459 6.176 692.459 6.8ZM699.534 3.56H703.89L700.326 11H701.394L705.414 2.6H699.534V3.56ZM706.059 9.68L705.003 12.788L705.699 13.04L707.019 10.04L706.059 9.68Z" fill="black"/>
<path d="M678.762 16.56V24H679.782V15.6H673.122V24H674.142V16.56H678.762ZM682.432 24L684.472 21.12H683.416L681.376 24H682.432ZM685.936 24V18.48H684.976V24H685.936ZM685.372 20.952H683.656C683.424 20.952 683.228 20.924 683.068 20.868C682.916 20.804 682.8 20.712 682.72 20.592C682.64 20.472 682.6 20.32 682.6 20.136C682.6 19.952 682.64 19.8 682.72 19.68C682.8 19.56 682.916 19.472 683.068 19.416C683.228 19.352 683.424 19.32 683.656 19.32H685.372V18.48H683.656C683.28 18.48 682.936 18.536 682.624 18.648C682.32 18.76 682.08 18.936 681.904 19.176C681.728 19.416 681.64 19.736 681.64 20.136C681.64 20.528 681.728 20.848 681.904 21.096C682.08 21.336 682.32 21.512 682.624 21.624C682.936 21.736 683.28 21.792 683.656 21.792H685.372V20.952ZM686.601 18.48V19.38H689.841V18.48H686.601ZM687.741 18.72V24H688.701V18.72H687.741ZM691.368 21.54H695.448V20.64H691.368V21.54ZM694.824 18.48V24H695.784V18.48H694.824ZM690.804 18.48V24H691.764V18.48H690.804ZM702.209 19.44L702.269 18.06L697.709 23.04L697.649 24.42L702.209 19.44ZM698.609 18.48H697.649V24.42L698.609 23.1V18.48ZM702.269 18.06L701.309 19.38V24H702.269V18.06ZM708.629 23.1V18.48H707.669V23.1H705.089V18.48H704.129V24H708.749V25.08H709.589V23.1H708.629ZM711.346 22.38C711.346 22.156 711.398 21.964 711.502 21.804C711.606 21.644 711.762 21.52 711.97 21.432C712.186 21.344 712.454 21.3 712.774 21.3C713.126 21.3 713.442 21.348 713.722 21.444C714.002 21.532 714.278 21.672 714.55 21.864V21.3C714.494 21.228 714.39 21.136 714.238 21.024C714.086 20.904 713.882 20.8 713.626 20.712C713.378 20.616 713.078 20.568 712.726 20.568C712.246 20.568 711.83 20.644 711.478 20.796C711.126 20.94 710.854 21.148 710.662 21.42C710.47 21.692 710.374 22.024 710.374 22.416C710.374 22.792 710.458 23.108 710.626 23.364C710.802 23.612 711.034 23.8 711.322 23.928C711.61 24.056 711.926 24.12 712.27 24.12C712.654 24.12 713.002 24.056 713.314 23.928C713.626 23.792 713.874 23.6 714.058 23.352C714.25 23.096 714.346 22.792 714.346 22.44L714.154 21.84C714.154 22.184 714.082 22.46 713.938 22.668C713.802 22.876 713.61 23.028 713.362 23.124C713.114 23.22 712.83 23.268 712.51 23.268C712.294 23.268 712.098 23.236 711.922 23.172C711.746 23.1 711.606 23 711.502 22.872C711.398 22.736 711.346 22.572 711.346 22.38ZM711.346 19.776C711.434 19.712 711.554 19.636 711.706 19.548C711.866 19.452 712.054 19.372 712.27 19.308C712.486 19.236 712.726 19.2 712.99 19.2C713.19 19.2 713.378 19.232 713.554 19.296C713.73 19.36 713.874 19.456 713.986 19.584C714.098 19.704 714.154 19.856 714.154 20.04V24H715.114V20.04C715.114 19.776 715.062 19.54 714.958 19.332C714.854 19.124 714.706 18.948 714.514 18.804C714.33 18.66 714.106 18.552 713.842 18.48C713.586 18.4 713.302 18.36 712.99 18.36C712.494 18.36 712.07 18.436 711.718 18.588C711.366 18.74 711.086 18.892 710.878 19.044L711.346 19.776Z" fill="black" fill-opacity="0.5"/>
<path d="M830.973 6.8C830.973 6.312 831.021 5.864 831.117 5.456C831.213 5.04 831.353 4.684 831.537 4.388C831.721 4.084 831.941 3.852 832.197 3.692C832.461 3.524 832.753 3.44 833.073 3.44C833.329 3.44 833.565 3.496 833.781 3.608C834.005 3.712 834.201 3.864 834.369 4.064C834.545 4.256 834.689 4.492 834.801 4.772C834.921 5.052 835.013 5.364 835.077 5.708C835.141 6.044 835.173 6.408 835.173 6.8C835.173 7.288 835.125 7.74 835.029 8.156C834.933 8.564 834.793 8.92 834.609 9.224C834.425 9.52 834.205 9.752 833.949 9.92C833.693 10.08 833.401 10.16 833.073 10.16C832.817 10.16 832.577 10.108 832.353 10.004C832.137 9.892 831.941 9.74 831.765 9.548C831.597 9.348 831.453 9.108 831.333 8.828C831.221 8.548 831.133 8.24 831.069 7.904C831.005 7.56 830.973 7.192 830.973 6.8ZM829.953 6.8C829.953 7.304 830.001 7.776 830.097 8.216C830.193 8.648 830.333 9.044 830.517 9.404C830.701 9.764 830.921 10.072 831.177 10.328C831.433 10.584 831.721 10.78 832.041 10.916C832.361 11.052 832.705 11.12 833.073 11.12C833.537 11.12 833.957 11.016 834.333 10.808C834.717 10.592 835.045 10.292 835.317 9.908C835.597 9.516 835.813 9.056 835.965 8.528C836.117 8 836.193 7.424 836.193 6.8C836.193 6.296 836.145 5.828 836.049 5.396C835.953 4.956 835.813 4.556 835.629 4.196C835.445 3.836 835.225 3.528 834.969 3.272C834.713 3.016 834.425 2.82 834.105 2.684C833.785 2.548 833.441 2.48 833.073 2.48C832.609 2.48 832.185 2.588 831.801 2.804C831.425 3.012 831.097 3.312 830.817 3.704C830.545 4.088 830.333 4.544 830.181 5.072C830.029 5.6 829.953 6.176 829.953 6.8ZM837.628 4.256L839.488 3.704V11H840.508V2.48L837.628 3.2V4.256ZM843.21 10.52C843.21 10.696 843.274 10.852 843.402 10.988C843.538 11.116 843.694 11.18 843.87 11.18C844.054 11.18 844.21 11.116 844.338 10.988C844.466 10.852 844.53 10.696 844.53 10.52C844.53 10.336 844.466 10.18 844.338 10.052C844.21 9.924 844.054 9.86 843.87 9.86C843.694 9.86 843.538 9.924 843.402 10.052C843.274 10.18 843.21 10.336 843.21 10.52ZM847.168 6.8C847.168 6.312 847.216 5.864 847.312 5.456C847.408 5.04 847.548 4.684 847.732 4.388C847.916 4.084 848.136 3.852 848.392 3.692C848.656 3.524 848.948 3.44 849.268 3.44C849.524 3.44 849.76 3.496 849.976 3.608C850.2 3.712 850.396 3.864 850.564 4.064C850.74 4.256 850.884 4.492 850.996 4.772C851.116 5.052 851.208 5.364 851.272 5.708C851.336 6.044 851.368 6.408 851.368 6.8C851.368 7.288 851.32 7.74 851.224 8.156C851.128 8.564 850.988 8.92 850.804 9.224C850.62 9.52 850.4 9.752 850.144 9.92C849.888 10.08 849.596 10.16 849.268 10.16C849.012 10.16 848.772 10.108 848.548 10.004C848.332 9.892 848.136 9.74 847.96 9.548C847.792 9.348 847.648 9.108 847.528 8.828C847.416 8.548 847.328 8.24 847.264 7.904C847.2 7.56 847.168 7.192 847.168 6.8ZM846.148 6.8C846.148 7.304 846.196 7.776 846.292 8.216C846.388 8.648 846.528 9.044 846.712 9.404C846.896 9.764 847.116 10.072 847.372 10.328C847.628 10.584 847.916 10.78 848.236 10.916C848.556 11.052 848.9 11.12 849.268 11.12C849.732 11.12 850.152 11.016 850.528 10.808C850.912 10.592 851.24 10.292 851.512 9.908C851.792 9.516 852.008 9.056 852.16 8.528C852.312 8 852.388 7.424 852.388 6.8C852.388 6.296 852.34 5.828 852.244 5.396C852.148 4.956 852.008 4.556 851.824 4.196C851.64 3.836 851.42 3.528 851.164 3.272C850.908 3.016 850.62 2.82 850.3 2.684C849.98 2.548 849.636 2.48 849.268 2.48C848.804 2.48 848.38 2.588 847.996 2.804C847.62 3.012 847.292 3.312 847.012 3.704C846.74 4.088 846.528 4.544 846.376 5.072C846.224 5.6 846.148 6.176 846.148 6.8ZM853.823 4.628C853.823 4.956 853.879 5.252 853.991 5.516C854.103 5.772 854.259 5.992 854.459 6.176C854.667 6.36 854.911 6.5 855.191 6.596C855.479 6.692 855.795 6.74 856.139 6.74C856.483 6.74 856.795 6.692 857.075 6.596C857.363 6.5 857.607 6.36 857.807 6.176C858.015 5.992 858.175 5.772 858.287 5.516C858.399 5.252 858.455 4.956 858.455 4.628C858.455 4.332 858.395 4.056 858.275 3.8C858.163 3.536 858.003 3.308 857.795 3.116C857.587 2.916 857.339 2.76 857.051 2.648C856.771 2.536 856.467 2.48 856.139 2.48C855.699 2.48 855.303 2.576 854.951 2.768C854.607 2.96 854.331 3.22 854.123 3.548C853.923 3.868 853.823 4.228 853.823 4.628ZM854.795 4.748C854.795 4.484 854.851 4.248 854.963 4.04C855.083 3.832 855.243 3.672 855.443 3.56C855.651 3.44 855.883 3.38 856.139 3.38C856.403 3.38 856.635 3.44 856.835 3.56C857.035 3.672 857.191 3.832 857.303 4.04C857.423 4.248 857.483 4.484 857.483 4.748C857.483 5.012 857.419 5.244 857.291 5.444C857.171 5.644 857.007 5.8 856.799 5.912C856.599 6.024 856.379 6.08 856.139 6.08C855.899 6.08 855.675 6.024 855.467 5.912C855.267 5.8 855.103 5.644 854.975 5.444C854.855 5.244 854.795 5.012 854.795 4.748ZM853.523 8.72C853.523 9.048 853.587 9.356 853.715 9.644C853.851 9.932 854.035 10.188 854.267 10.412C854.507 10.636 854.783 10.812 855.095 10.94C855.415 11.06 855.763 11.12 856.139 11.12C856.515 11.12 856.859 11.06 857.171 10.94C857.491 10.812 857.767 10.636 857.999 10.412C858.239 10.188 858.423 9.932 858.551 9.644C858.687 9.356 858.755 9.048 858.755 8.72C858.755 8.336 858.683 7.996 858.539 7.7C858.403 7.396 858.211 7.144 857.963 6.944C857.723 6.736 857.443 6.58 857.123 6.476C856.811 6.372 856.483 6.32 856.139 6.32C855.795 6.32 855.463 6.372 855.143 6.476C854.831 6.58 854.551 6.736 854.303 6.944C854.063 7.144 853.871 7.396 853.727 7.7C853.591 7.996 853.523 8.336 853.523 8.72ZM854.495 8.6C854.495 8.296 854.571 8.024 854.723 7.784C854.883 7.536 855.087 7.34 855.335 7.196C855.591 7.052 855.859 6.98 856.139 6.98C856.419 6.98 856.683 7.052 856.931 7.196C857.187 7.34 857.391 7.536 857.543 7.784C857.703 8.024 857.783 8.296 857.783 8.6C857.783 8.944 857.703 9.236 857.543 9.476C857.391 9.716 857.187 9.9 856.931 10.028C856.683 10.156 856.419 10.22 856.139 10.22C855.859 10.22 855.591 10.156 855.335 10.028C855.087 9.9 854.883 9.716 854.723 9.476C854.571 9.236 854.495 8.944 854.495 8.6ZM861.014 9.68L859.958 12.788L860.654 13.04L861.974 10.04L861.014 9.68Z" fill="black"/>
<path d="M831.665 19.8C831.665 19.312 831.749 18.868 831.917 18.468C832.085 18.06 832.313 17.712 832.601 17.424C832.897 17.128 833.229 16.9 833.597 16.74C833.973 16.58 834.369 16.5 834.785 16.5C835.185 16.5 835.549 16.552 835.877 16.656C836.213 16.76 836.517 16.908 836.789 17.1C837.061 17.284 837.293 17.5 837.485 17.748V16.404C837.133 16.092 836.749 15.86 836.333 15.708C835.917 15.556 835.401 15.48 834.785 15.48C834.201 15.48 833.653 15.588 833.141 15.804C832.637 16.012 832.193 16.312 831.809 16.704C831.425 17.088 831.125 17.544 830.909 18.072C830.693 18.6 830.585 19.176 830.585 19.8C830.585 20.424 830.693 21 830.909 21.528C831.125 22.056 831.425 22.516 831.809 22.908C832.193 23.292 832.637 23.592 833.141 23.808C833.653 24.016 834.201 24.12 834.785 24.12C835.401 24.12 835.917 24.044 836.333 23.892C836.749 23.74 837.133 23.508 837.485 23.196V21.852C837.293 22.1 837.061 22.32 836.789 22.512C836.517 22.696 836.213 22.84 835.877 22.944C835.549 23.048 835.185 23.1 834.785 23.1C834.369 23.1 833.973 23.02 833.597 22.86C833.229 22.7 832.897 22.476 832.601 22.188C832.313 21.892 832.085 21.544 831.917 21.144C831.749 20.736 831.665 20.288 831.665 19.8ZM843.6 18.48H842.52L840.816 22.752L841.212 22.8L839.46 18.48H838.32L840.432 23.22L838.92 26.64H840L843.6 18.48ZM846.881 19.26C847.241 19.26 847.561 19.344 847.841 19.512C848.129 19.68 848.353 19.916 848.513 20.22C848.681 20.516 848.765 20.856 848.765 21.24C848.765 21.624 848.681 21.964 848.513 22.26C848.353 22.556 848.129 22.792 847.841 22.968C847.561 23.136 847.241 23.22 846.881 23.22C846.521 23.22 846.197 23.136 845.909 22.968C845.629 22.792 845.405 22.556 845.237 22.26C845.069 21.964 844.985 21.624 844.985 21.24L844.025 20.52C844.025 21.312 844.149 21.976 844.397 22.512C844.653 23.048 844.997 23.452 845.429 23.724C845.861 23.988 846.345 24.12 846.881 24.12C847.425 24.12 847.909 23.996 848.333 23.748C848.765 23.5 849.105 23.16 849.353 22.728C849.609 22.288 849.737 21.792 849.737 21.24C849.737 20.68 849.609 20.184 849.353 19.752C849.105 19.32 848.765 18.98 848.333 18.732C847.909 18.484 847.425 18.36 846.881 18.36V19.26ZM844.553 21.24H844.985C844.985 20.92 845.041 20.64 845.153 20.4C845.273 20.152 845.425 19.944 845.609 19.776C845.801 19.608 846.009 19.48 846.233 19.392C846.457 19.304 846.673 19.26 846.881 19.26V18.36C846.537 18.36 846.221 18.428 845.933 18.564C845.653 18.692 845.409 18.88 845.201 19.128C844.993 19.376 844.833 19.68 844.721 20.04C844.609 20.392 844.553 20.792 844.553 21.24ZM844.025 20.52L844.865 21.156V19.92C844.865 19.616 844.893 19.312 844.949 19.008C845.005 18.704 845.101 18.416 845.237 18.144C845.381 17.872 845.573 17.628 845.813 17.412C846.061 17.196 846.373 17.028 846.749 16.908C847.189 16.764 847.581 16.584 847.925 16.368C848.277 16.152 848.561 15.9 848.777 15.612C848.993 15.316 849.121 14.992 849.161 14.64H848.213C848.157 14.928 847.993 15.204 847.721 15.468C847.457 15.724 847.053 15.944 846.509 16.128C846.029 16.296 845.629 16.516 845.309 16.788C844.989 17.052 844.733 17.368 844.541 17.736C844.357 18.104 844.225 18.52 844.145 18.984C844.065 19.448 844.025 19.96 844.025 20.52ZM850.576 21.24C850.576 21.792 850.7 22.288 850.948 22.728C851.204 23.16 851.548 23.5 851.98 23.748C852.412 23.996 852.896 24.12 853.432 24.12C853.976 24.12 854.46 23.996 854.884 23.748C855.316 23.5 855.656 23.16 855.904 22.728C856.16 22.288 856.288 21.792 856.288 21.24C856.288 20.68 856.16 20.184 855.904 19.752C855.656 19.32 855.316 18.98 854.884 18.732C854.46 18.484 853.976 18.36 853.432 18.36C852.896 18.36 852.412 18.484 851.98 18.732C851.548 18.98 851.204 19.32 850.948 19.752C850.7 20.184 850.576 20.68 850.576 21.24ZM851.548 21.24C851.548 20.856 851.628 20.516 851.788 20.22C851.956 19.916 852.18 19.68 852.46 19.512C852.748 19.344 853.072 19.26 853.432 19.26C853.792 19.26 854.112 19.344 854.392 19.512C854.68 19.68 854.904 19.916 855.064 20.22C855.232 20.516 855.316 20.856 855.316 21.24C855.316 21.624 855.232 21.964 855.064 22.26C854.904 22.556 854.68 22.792 854.392 22.968C854.112 23.136 853.792 23.22 853.432 23.22C853.072 23.22 852.748 23.136 852.46 22.968C852.18 22.792 851.956 22.556 851.788 22.26C851.628 21.964 851.548 21.624 851.548 21.24ZM856.767 18.48V19.38H860.007V18.48H856.767ZM857.907 18.72V24H858.867V18.72H857.907ZM861.402 22.38C861.402 22.156 861.454 21.964 861.558 21.804C861.662 21.644 861.818 21.52 862.026 21.432C862.242 21.344 862.51 21.3 862.83 21.3C863.182 21.3 863.498 21.348 863.778 21.444C864.058 21.532 864.334 21.672 864.606 21.864V21.3C864.55 21.228 864.446 21.136 864.294 21.024C864.142 20.904 863.938 20.8 863.682 20.712C863.434 20.616 863.134 20.568 862.782 20.568C862.302 20.568 861.886 20.644 861.534 20.796C861.182 20.94 860.91 21.148 860.718 21.42C860.526 21.692 860.43 22.024 860.43 22.416C860.43 22.792 860.514 23.108 860.682 23.364C860.858 23.612 861.09 23.8 861.378 23.928C861.666 24.056 861.982 24.12 862.326 24.12C862.71 24.12 863.058 24.056 863.37 23.928C863.682 23.792 863.93 23.6 864.114 23.352C864.306 23.096 864.402 22.792 864.402 22.44L864.21 21.84C864.21 22.184 864.138 22.46 863.994 22.668C863.858 22.876 863.666 23.028 863.418 23.124C863.17 23.22 862.886 23.268 862.566 23.268C862.35 23.268 862.154 23.236 861.978 23.172C861.802 23.1 861.662 23 861.558 22.872C861.454 22.736 861.402 22.572 861.402 22.38ZM861.402 19.776C861.49 19.712 861.61 19.636 861.762 19.548C861.922 19.452 862.11 19.372 862.326 19.308C862.542 19.236 862.782 19.2 863.046 19.2C863.246 19.2 863.434 19.232 863.61 19.296C863.786 19.36 863.93 19.456 864.042 19.584C864.154 19.704 864.21 19.856 864.21 20.04V24H865.17V20.04C865.17 19.776 865.118 19.54 865.014 19.332C864.91 19.124 864.762 18.948 864.57 18.804C864.386 18.66 864.162 18.552 863.898 18.48C863.642 18.4 863.358 18.36 863.046 18.36C862.55 18.36 862.126 18.436 861.774 18.588C861.422 18.74 861.142 18.892 860.934 19.044L861.402 19.776Z" fill="black" fill-opacity="0.5"/>
<path d="M984.758 6.8C984.758 6.312 984.806 5.864 984.902 5.456C984.998 5.04 985.138 4.684 985.322 4.388C985.506 4.084 985.726 3.852 985.982 3.692C986.246 3.524 986.538 3.44 986.858 3.44C987.114 3.44 987.35 3.496 987.566 3.608C987.79 3.712 987.986 3.864 988.154 4.064C988.33 4.256 988.474 4.492 988.586 4.772C988.706 5.052 988.798 5.364 988.862 5.708C988.926 6.044 988.958 6.408 988.958 6.8C988.958 7.288 988.91 7.74 988.814 8.156C988.718 8.564 988.578 8.92 988.394 9.224C988.21 9.52 987.99 9.752 987.734 9.92C987.478 10.08 987.186 10.16 986.858 10.16C986.602 10.16 986.362 10.108 986.138 10.004C985.922 9.892 985.726 9.74 985.55 9.548C985.382 9.348 985.238 9.108 985.118 8.828C985.006 8.548 984.918 8.24 984.854 7.904C984.79 7.56 984.758 7.192 984.758 6.8ZM983.738 6.8C983.738 7.304 983.786 7.776 983.882 8.216C983.978 8.648 984.118 9.044 984.302 9.404C984.486 9.764 984.706 10.072 984.962 10.328C985.218 10.584 985.506 10.78 985.826 10.916C986.146 11.052 986.49 11.12 986.858 11.12C987.322 11.12 987.742 11.016 988.118 10.808C988.502 10.592 988.83 10.292 989.102 9.908C989.382 9.516 989.598 9.056 989.75 8.528C989.902 8 989.978 7.424 989.978 6.8C989.978 6.296 989.93 5.828 989.834 5.396C989.738 4.956 989.598 4.556 989.414 4.196C989.23 3.836 989.01 3.528 988.754 3.272C988.498 3.016 988.21 2.82 987.89 2.684C987.57 2.548 987.226 2.48 986.858 2.48C986.394 2.48 985.97 2.588 985.586 2.804C985.21 3.012 984.882 3.312 984.602 3.704C984.33 4.088 984.118 4.544 983.966 5.072C983.814 5.6 983.738 6.176 983.738 6.8ZM990.693 11H996.621V10.04H992.793L995.469 7.316C995.797 6.98 996.065 6.6 996.273 6.176C996.481 5.752 996.585 5.324 996.585 4.892C996.585 4.636 996.533 4.368 996.429 4.088C996.325 3.808 996.165 3.548 995.949 3.308C995.733 3.06 995.457 2.86 995.121 2.708C994.785 2.548 994.385 2.468 993.921 2.468C993.345 2.468 992.849 2.596 992.433 2.852C992.025 3.1 991.713 3.452 991.497 3.908C991.281 4.356 991.173 4.88 991.173 5.48H992.193C992.193 5.056 992.261 4.692 992.397 4.388C992.533 4.076 992.729 3.84 992.985 3.68C993.249 3.512 993.561 3.428 993.921 3.428C994.177 3.428 994.405 3.472 994.605 3.56C994.805 3.648 994.973 3.764 995.109 3.908C995.253 4.052 995.361 4.212 995.433 4.388C995.505 4.564 995.541 4.744 995.541 4.928C995.541 5.152 995.505 5.368 995.433 5.576C995.369 5.776 995.269 5.976 995.133 6.176C995.005 6.368 994.849 6.564 994.665 6.764L990.693 11ZM998.425 10.52C998.425 10.696 998.489 10.852 998.617 10.988C998.753 11.116 998.909 11.18 999.085 11.18C999.269 11.18 999.425 11.116 999.553 10.988C999.681 10.852 999.745 10.696 999.745 10.52C999.745 10.336 999.681 10.18 999.553 10.052C999.425 9.924 999.269 9.86 999.085 9.86C998.909 9.86 998.753 9.924 998.617 10.052C998.489 10.18 998.425 10.336 998.425 10.52ZM1002.38 6.8C1002.38 6.312 1002.43 5.864 1002.53 5.456C1002.62 5.04 1002.76 4.684 1002.95 4.388C1003.13 4.084 1003.35 3.852 1003.61 3.692C1003.87 3.524 1004.16 3.44 1004.48 3.44C1004.74 3.44 1004.97 3.496 1005.19 3.608C1005.41 3.712 1005.61 3.864 1005.78 4.064C1005.95 4.256 1006.1 4.492 1006.21 4.772C1006.33 5.052 1006.42 5.364 1006.49 5.708C1006.55 6.044 1006.58 6.408 1006.58 6.8C1006.58 7.288 1006.53 7.74 1006.44 8.156C1006.34 8.564 1006.2 8.92 1006.02 9.224C1005.83 9.52 1005.61 9.752 1005.36 9.92C1005.1 10.08 1004.81 10.16 1004.48 10.16C1004.23 10.16 1003.99 10.108 1003.76 10.004C1003.55 9.892 1003.35 9.74 1003.17 9.548C1003.01 9.348 1002.86 9.108 1002.74 8.828C1002.63 8.548 1002.54 8.24 1002.48 7.904C1002.41 7.56 1002.38 7.192 1002.38 6.8ZM1001.36 6.8C1001.36 7.304 1001.41 7.776 1001.51 8.216C1001.6 8.648 1001.74 9.044 1001.93 9.404C1002.11 9.764 1002.33 10.072 1002.59 10.328C1002.84 10.584 1003.13 10.78 1003.45 10.916C1003.77 11.052 1004.11 11.12 1004.48 11.12C1004.95 11.12 1005.37 11.016 1005.74 10.808C1006.13 10.592 1006.45 10.292 1006.73 9.908C1007.01 9.516 1007.22 9.056 1007.37 8.528C1007.53 8 1007.6 7.424 1007.6 6.8C1007.6 6.296 1007.55 5.828 1007.46 5.396C1007.36 4.956 1007.22 4.556 1007.04 4.196C1006.85 3.836 1006.63 3.528 1006.38 3.272C1006.12 3.016 1005.83 2.82 1005.51 2.684C1005.19 2.548 1004.85 2.48 1004.48 2.48C1004.02 2.48 1003.59 2.588 1003.21 2.804C1002.83 3.012 1002.51 3.312 1002.23 3.704C1001.95 4.088 1001.74 4.544 1001.59 5.072C1001.44 5.6 1001.36 6.176 1001.36 6.8ZM1009.04 4.628C1009.04 4.956 1009.09 5.252 1009.21 5.516C1009.32 5.772 1009.47 5.992 1009.67 6.176C1009.88 6.36 1010.13 6.5 1010.41 6.596C1010.69 6.692 1011.01 6.74 1011.35 6.74C1011.7 6.74 1012.01 6.692 1012.29 6.596C1012.58 6.5 1012.82 6.36 1013.02 6.176C1013.23 5.992 1013.39 5.772 1013.5 5.516C1013.61 5.252 1013.67 4.956 1013.67 4.628C1013.67 4.332 1013.61 4.056 1013.49 3.8C1013.38 3.536 1013.22 3.308 1013.01 3.116C1012.8 2.916 1012.55 2.76 1012.27 2.648C1011.99 2.536 1011.68 2.48 1011.35 2.48C1010.91 2.48 1010.52 2.576 1010.17 2.768C1009.82 2.96 1009.55 3.22 1009.34 3.548C1009.14 3.868 1009.04 4.228 1009.04 4.628ZM1010.01 4.748C1010.01 4.484 1010.07 4.248 1010.18 4.04C1010.3 3.832 1010.46 3.672 1010.66 3.56C1010.87 3.44 1011.1 3.38 1011.35 3.38C1011.62 3.38 1011.85 3.44 1012.05 3.56C1012.25 3.672 1012.41 3.832 1012.52 4.04C1012.64 4.248 1012.7 4.484 1012.7 4.748C1012.7 5.012 1012.63 5.244 1012.51 5.444C1012.39 5.644 1012.22 5.8 1012.01 5.912C1011.81 6.024 1011.59 6.08 1011.35 6.08C1011.11 6.08 1010.89 6.024 1010.68 5.912C1010.48 5.8 1010.32 5.644 1010.19 5.444C1010.07 5.244 1010.01 5.012 1010.01 4.748ZM1008.74 8.72C1008.74 9.048 1008.8 9.356 1008.93 9.644C1009.07 9.932 1009.25 10.188 1009.48 10.412C1009.72 10.636 1010 10.812 1010.31 10.94C1010.63 11.06 1010.98 11.12 1011.35 11.12C1011.73 11.12 1012.07 11.06 1012.39 10.94C1012.71 10.812 1012.98 10.636 1013.21 10.412C1013.45 10.188 1013.64 9.932 1013.77 9.644C1013.9 9.356 1013.97 9.048 1013.97 8.72C1013.97 8.336 1013.9 7.996 1013.75 7.7C1013.62 7.396 1013.43 7.144 1013.18 6.944C1012.94 6.736 1012.66 6.58 1012.34 6.476C1012.03 6.372 1011.7 6.32 1011.35 6.32C1011.01 6.32 1010.68 6.372 1010.36 6.476C1010.05 6.58 1009.77 6.736 1009.52 6.944C1009.28 7.144 1009.09 7.396 1008.94 7.7C1008.81 7.996 1008.74 8.336 1008.74 8.72ZM1009.71 8.6C1009.71 8.296 1009.79 8.024 1009.94 7.784C1010.1 7.536 1010.3 7.34 1010.55 7.196C1010.81 7.052 1011.07 6.98 1011.35 6.98C1011.63 6.98 1011.9 7.052 1012.15 7.196C1012.4 7.34 1012.61 7.536 1012.76 7.784C1012.92 8.024 1013 8.296 1013 8.6C1013 8.944 1012.92 9.236 1012.76 9.476C1012.61 9.716 1012.4 9.9 1012.15 10.028C1011.9 10.156 1011.63 10.22 1011.35 10.22C1011.07 10.22 1010.81 10.156 1010.55 10.028C1010.3 9.9 1010.1 9.716 1009.94 9.476C1009.79 9.236 1009.71 8.944 1009.71 8.6ZM1016.23 9.68L1015.17 12.788L1015.87 13.04L1017.19 10.04L1016.23 9.68Z" fill="black"/>
<path d="M970.291 19.56H971.647C972.151 19.56 972.587 19.488 972.955 19.344C973.331 19.2 973.623 18.988 973.831 18.708C974.039 18.428 974.143 18.092 974.143 17.7C974.143 17.34 974.083 17.028 973.963 16.764C973.843 16.5 973.671 16.284 973.447 16.116C973.231 15.94 972.971 15.812 972.667 15.732C972.363 15.644 972.023 15.6 971.647 15.6H969.487V24H971.767C972.311 24 972.795 23.912 973.219 23.736C973.651 23.552 973.991 23.28 974.239 22.92C974.495 22.552 974.623 22.092 974.623 21.54C974.623 21.156 974.551 20.824 974.407 20.544C974.263 20.264 974.059 20.036 973.795 19.86C973.539 19.676 973.239 19.54 972.895 19.452C972.551 19.364 972.175 19.32 971.767 19.32H970.291V19.884H971.767C972.039 19.884 972.287 19.92 972.511 19.992C972.735 20.056 972.927 20.156 973.087 20.292C973.255 20.428 973.383 20.596 973.471 20.796C973.559 20.996 973.603 21.224 973.603 21.48C973.603 21.824 973.523 22.116 973.363 22.356C973.211 22.596 972.995 22.78 972.715 22.908C972.443 23.036 972.127 23.1 971.767 23.1H970.507V16.5H971.647C972.071 16.5 972.423 16.612 972.703 16.836C972.983 17.052 973.123 17.36 973.123 17.76C973.123 18.024 973.059 18.248 972.931 18.432C972.803 18.616 972.627 18.756 972.403 18.852C972.179 18.948 971.927 18.996 971.647 18.996H970.291V19.56ZM975.639 21.24C975.639 21.792 975.763 22.288 976.011 22.728C976.267 23.16 976.611 23.5 977.043 23.748C977.475 23.996 977.959 24.12 978.495 24.12C979.039 24.12 979.523 23.996 979.947 23.748C980.379 23.5 980.719 23.16 980.967 22.728C981.223 22.288 981.351 21.792 981.351 21.24C981.351 20.68 981.223 20.184 980.967 19.752C980.719 19.32 980.379 18.98 979.947 18.732C979.523 18.484 979.039 18.36 978.495 18.36C977.959 18.36 977.475 18.484 977.043 18.732C976.611 18.98 976.267 19.32 976.011 19.752C975.763 20.184 975.639 20.68 975.639 21.24ZM976.611 21.24C976.611 20.856 976.691 20.516 976.851 20.22C977.019 19.916 977.243 19.68 977.523 19.512C977.811 19.344 978.135 19.26 978.495 19.26C978.855 19.26 979.175 19.344 979.455 19.512C979.743 19.68 979.967 19.916 980.127 20.22C980.295 20.516 980.379 20.856 980.379 21.24C980.379 21.624 980.295 21.964 980.127 22.26C979.967 22.556 979.743 22.792 979.455 22.968C979.175 23.136 978.855 23.22 978.495 23.22C978.135 23.22 977.811 23.136 977.523 22.968C977.243 22.792 977.019 22.556 976.851 22.26C976.691 21.964 976.611 21.624 976.611 21.24ZM983.102 21.24C983.102 20.856 983.182 20.516 983.342 20.22C983.51 19.916 983.734 19.68 984.014 19.512C984.302 19.344 984.626 19.26 984.986 19.26C985.282 19.26 985.558 19.308 985.814 19.404C986.078 19.492 986.306 19.612 986.498 19.764C986.69 19.916 986.826 20.084 986.906 20.268V19.068C986.714 18.844 986.438 18.672 986.078 18.552C985.726 18.424 985.362 18.36 984.986 18.36C984.45 18.36 983.966 18.484 983.534 18.732C983.102 18.98 982.758 19.32 982.502 19.752C982.254 20.184 982.13 20.68 982.13 21.24C982.13 21.792 982.254 22.288 982.502 22.728C982.758 23.16 983.102 23.5 983.534 23.748C983.966 23.996 984.45 24.12 984.986 24.12C985.362 24.12 985.726 24.06 986.078 23.94C986.438 23.812 986.714 23.636 986.906 23.412V22.212C986.826 22.388 986.69 22.556 986.498 22.716C986.306 22.868 986.078 22.992 985.814 23.088C985.558 23.176 985.282 23.22 984.986 23.22C984.626 23.22 984.302 23.136 984.014 22.968C983.734 22.792 983.51 22.556 983.342 22.26C983.182 21.964 983.102 21.624 983.102 21.24ZM988.34 18.48V24H989.3V18.48H988.34ZM991.34 18.48L988.94 20.76L991.58 24H992.78L990.14 20.76L992.54 18.48H991.34ZM994.585 26.64V18.48H993.625V26.64H994.585ZM999.205 21.24C999.205 20.64 999.081 20.128 998.833 19.704C998.585 19.272 998.253 18.94 997.837 18.708C997.429 18.476 996.973 18.36 996.469 18.36C996.125 18.36 995.809 18.428 995.521 18.564C995.241 18.692 994.997 18.88 994.789 19.128C994.589 19.376 994.433 19.68 994.321 20.04C994.209 20.392 994.153 20.792 994.153 21.24C994.153 21.688 994.209 22.092 994.321 22.452C994.433 22.804 994.589 23.104 994.789 23.352C994.997 23.6 995.241 23.792 995.521 23.928C995.809 24.056 996.125 24.12 996.469 24.12C996.973 24.12 997.429 24.004 997.837 23.772C998.253 23.54 998.585 23.208 998.833 22.776C999.081 22.344 999.205 21.832 999.205 21.24ZM998.233 21.24C998.233 21.664 998.145 22.024 997.969 22.32C997.801 22.616 997.573 22.84 997.285 22.992C997.005 23.144 996.693 23.22 996.349 23.22C996.141 23.22 995.933 23.176 995.725 23.088C995.517 23 995.325 22.872 995.149 22.704C994.981 22.536 994.845 22.332 994.741 22.092C994.637 21.844 994.585 21.56 994.585 21.24C994.585 20.92 994.637 20.64 994.741 20.4C994.845 20.152 994.981 19.944 995.149 19.776C995.325 19.608 995.517 19.48 995.725 19.392C995.933 19.304 996.141 19.26 996.349 19.26C996.693 19.26 997.005 19.336 997.285 19.488C997.573 19.64 997.801 19.864 997.969 20.16C998.145 20.456 998.233 20.816 998.233 21.24ZM1000.66 21.48H1005.38C1005.38 21.432 1005.39 21.384 1005.39 21.336C1005.39 21.288 1005.39 21.24 1005.39 21.192C1005.39 20.608 1005.28 20.108 1005.06 19.692C1004.85 19.268 1004.54 18.94 1004.15 18.708C1003.76 18.476 1003.3 18.36 1002.78 18.36C1002.31 18.36 1001.88 18.456 1001.5 18.648C1001.12 18.84 1000.82 19.108 1000.58 19.452C1000.34 19.796 1000.18 20.196 1000.1 20.652C1000.08 20.748 1000.07 20.844 1000.06 20.94C1000.05 21.036 1000.05 21.136 1000.05 21.24C1000.05 21.792 1000.16 22.288 1000.38 22.728C1000.62 23.16 1000.93 23.5 1001.32 23.748C1001.72 23.996 1002.17 24.12 1002.66 24.12C1003.14 24.12 1003.54 24.064 1003.86 23.952C1004.18 23.832 1004.46 23.668 1004.68 23.46C1004.9 23.244 1005.11 22.996 1005.29 22.716L1004.51 22.224C1004.39 22.424 1004.25 22.6 1004.08 22.752C1003.91 22.896 1003.72 23.012 1003.5 23.1C1003.3 23.18 1003.06 23.22 1002.78 23.22C1002.42 23.22 1002.11 23.144 1001.85 22.992C1001.58 22.84 1001.38 22.616 1001.24 22.32C1001.09 22.024 1001.02 21.664 1001.02 21.24L1001.04 20.88C1001.04 20.536 1001.12 20.24 1001.27 19.992C1001.43 19.736 1001.64 19.54 1001.91 19.404C1002.17 19.268 1002.46 19.2 1002.78 19.2C1003.1 19.2 1003.37 19.264 1003.59 19.392C1003.81 19.512 1003.98 19.684 1004.1 19.908C1004.23 20.124 1004.31 20.376 1004.34 20.664H1000.66V21.48ZM1007.14 21.24C1007.14 20.856 1007.22 20.516 1007.38 20.22C1007.54 19.916 1007.77 19.68 1008.05 19.512C1008.34 19.344 1008.66 19.26 1009.02 19.26C1009.32 19.26 1009.59 19.308 1009.85 19.404C1010.11 19.492 1010.34 19.612 1010.53 19.764C1010.72 19.916 1010.86 20.084 1010.94 20.268V19.068C1010.75 18.844 1010.47 18.672 1010.11 18.552C1009.76 18.424 1009.4 18.36 1009.02 18.36C1008.48 18.36 1008 18.484 1007.57 18.732C1007.14 18.98 1006.79 19.32 1006.54 19.752C1006.29 20.184 1006.16 20.68 1006.16 21.24C1006.16 21.792 1006.29 22.288 1006.54 22.728C1006.79 23.16 1007.14 23.5 1007.57 23.748C1008 23.996 1008.48 24.12 1009.02 24.12C1009.4 24.12 1009.76 24.06 1010.11 23.94C1010.47 23.812 1010.75 23.636 1010.94 23.412V22.212C1010.86 22.388 1010.72 22.556 1010.53 22.716C1010.34 22.868 1010.11 22.992 1009.85 23.088C1009.59 23.176 1009.32 23.22 1009.02 23.22C1008.66 23.22 1008.34 23.136 1008.05 22.968C1007.77 22.792 1007.54 22.556 1007.38 22.26C1007.22 21.964 1007.14 21.624 1007.14 21.24ZM1012.57 21.48H1017.28C1017.29 21.432 1017.3 21.384 1017.3 21.336C1017.3 21.288 1017.3 21.24 1017.3 21.192C1017.3 20.608 1017.19 20.108 1016.97 19.692C1016.76 19.268 1016.45 18.94 1016.06 18.708C1015.67 18.476 1015.21 18.36 1014.69 18.36C1014.22 18.36 1013.79 18.456 1013.41 18.648C1013.03 18.84 1012.72 19.108 1012.48 19.452C1012.24 19.796 1012.08 20.196 1012 20.652C1011.99 20.748 1011.98 20.844 1011.97 20.94C1011.96 21.036 1011.96 21.136 1011.96 21.24C1011.96 21.792 1012.07 22.288 1012.29 22.728C1012.52 23.16 1012.84 23.5 1013.23 23.748C1013.63 23.996 1014.08 24.12 1014.57 24.12C1015.05 24.12 1015.45 24.064 1015.77 23.952C1016.09 23.832 1016.36 23.668 1016.59 23.46C1016.81 23.244 1017.02 22.996 1017.2 22.716L1016.42 22.224C1016.3 22.424 1016.16 22.6 1015.99 22.752C1015.82 22.896 1015.63 23.012 1015.41 23.1C1015.2 23.18 1014.96 23.22 1014.69 23.22C1014.33 23.22 1014.02 23.144 1013.76 22.992C1013.49 22.84 1013.29 22.616 1013.14 22.32C1013 22.024 1012.93 21.664 1012.93 21.24L1012.95 20.88C1012.95 20.536 1013.03 20.24 1013.18 19.992C1013.34 19.736 1013.55 19.54 1013.82 19.404C1014.08 19.268 1014.37 19.2 1014.69 19.2C1015.01 19.2 1015.28 19.264 1015.5 19.392C1015.72 19.512 1015.89 19.684 1016.01 19.908C1016.14 20.124 1016.22 20.376 1016.25 20.664H1012.57V21.48ZM1019.17 21.54H1023.25V20.64H1019.17V21.54ZM1022.63 18.48V24H1023.59V18.48H1022.63ZM1018.61 18.48V24H1019.57V18.48H1018.61ZM1025.4 18.48V24H1026.36V18.48H1025.4ZM1025.96 21.408H1027.68C1027.91 21.408 1028.1 21.444 1028.25 21.516C1028.41 21.58 1028.53 21.68 1028.61 21.816C1028.69 21.944 1028.73 22.1 1028.73 22.284C1028.73 22.468 1028.69 22.628 1028.61 22.764C1028.53 22.892 1028.41 22.992 1028.25 23.064C1028.1 23.128 1027.91 23.16 1027.68 23.16H1025.96V24H1027.68C1028.06 24 1028.4 23.94 1028.71 23.82C1029.01 23.7 1029.25 23.512 1029.43 23.256C1029.6 23 1029.69 22.676 1029.69 22.284C1029.69 21.884 1029.6 21.56 1029.43 21.312C1029.25 21.056 1029.01 20.868 1028.71 20.748C1028.4 20.628 1028.06 20.568 1027.68 20.568H1025.96V21.408ZM1031.33 21.48H1036.04C1036.05 21.432 1036.06 21.384 1036.06 21.336C1036.06 21.288 1036.06 21.24 1036.06 21.192C1036.06 20.608 1035.95 20.108 1035.73 19.692C1035.52 19.268 1035.21 18.94 1034.82 18.708C1034.43 18.476 1033.97 18.36 1033.45 18.36C1032.98 18.36 1032.55 18.456 1032.17 18.648C1031.79 18.84 1031.48 19.108 1031.24 19.452C1031 19.796 1030.84 20.196 1030.76 20.652C1030.75 20.748 1030.74 20.844 1030.73 20.94C1030.72 21.036 1030.72 21.136 1030.72 21.24C1030.72 21.792 1030.83 22.288 1031.05 22.728C1031.28 23.16 1031.6 23.5 1031.99 23.748C1032.39 23.996 1032.84 24.12 1033.33 24.12C1033.81 24.12 1034.21 24.064 1034.53 23.952C1034.85 23.832 1035.12 23.668 1035.35 23.46C1035.57 23.244 1035.78 22.996 1035.96 22.716L1035.18 22.224C1035.06 22.424 1034.92 22.6 1034.75 22.752C1034.58 22.896 1034.39 23.012 1034.17 23.1C1033.96 23.18 1033.72 23.22 1033.45 23.22C1033.09 23.22 1032.78 23.144 1032.52 22.992C1032.25 22.84 1032.05 22.616 1031.9 22.32C1031.76 22.024 1031.69 21.664 1031.69 21.24L1031.71 20.88C1031.71 20.536 1031.79 20.24 1031.94 19.992C1032.1 19.736 1032.31 19.54 1032.58 19.404C1032.84 19.268 1033.13 19.2 1033.45 19.2C1033.77 19.2 1034.04 19.264 1034.26 19.392C1034.48 19.512 1034.65 19.684 1034.77 19.908C1034.9 20.124 1034.98 20.376 1035.01 20.664H1031.33V21.48Z" fill="black" fill-opacity="0.5"/>
</svg>
